<svg width="46" height="46" viewBox="0 0 46 46" fill="none" xmlns="http://www.w3.org/2000/svg">
<g clip-path="url(#clip0_322_4004)">
<path d="M22.6125 0.68457C10.1869 0.68457 0.112549 10.7589 0.112549 23.1846C0.112549 35.6102 10.1869 45.6846 22.6125 45.6846C35.0382 45.6846 45.1125 35.6102 45.1125 23.1846C45.1125 10.7589 35.0382 0.68457 22.6125 0.68457ZM22.6125 4.14582C33.1032 4.15895 41.6026 12.6677 41.6026 23.1602C41.6026 33.6621 33.09 42.1746 22.5882 42.1746C12.0863 42.1746 3.5738 33.6621 3.5738 23.1602C3.5738 17.9102 5.70192 13.1571 9.14255 9.71644C12.5869 6.27582 17.3438 4.1477 22.5975 4.1477H22.6107L22.6125 4.14582ZM22.6125 9.33957C14.3775 10.7908 7.03505 18.3846 7.03505 26.6458C11.0644 19.5321 13.755 19.0202 14.4994 19.0202C15.2438 19.0202 15.6357 19.4064 15.6357 20.2633V30.8646C15.6357 32.1827 13.0744 31.9671 12.2269 31.8377C15.3582 36.4971 22.6125 37.0314 22.6125 37.0314L26.0738 33.5702L29.535 35.3008C34.9988 32.7996 38.1882 27.4446 38.1882 26.6477C36.8738 28.2752 35.1019 29.4883 33.0676 30.0902L32.9944 30.1089C32.535 30.1089 31.2638 29.8727 31.2638 29.2427V16.6933C31.2638 15.6039 33.78 12.2796 34.725 11.0683C28.4775 12.7052 26.6663 15.5571 26.6663 15.5571C26.6663 15.5571 26.1919 14.5296 24.3413 14.5296C25.2807 15.4164 25.9125 16.6183 26.07 17.9646L26.0719 17.9908V28.5921C25.0875 29.2914 23.9269 29.8164 22.6725 30.0939L22.6088 30.1052C21.4088 30.1052 20.8238 29.6177 20.8238 28.6989C20.8238 27.7802 20.8782 16.2602 20.8782 16.2602C20.8782 16.2602 19.1475 16.8958 19.1475 13.3389C19.1475 11.5596 22.6088 9.33582 22.6088 9.33582L22.6125 9.33957Z" fill="white"/>
</g>
<defs>
<clipPath id="clip0_322_4004">
<rect width="45" height="45" fill="white" transform="translate(0.112549 0.68457)"/>
</clipPath>
</defs>
</svg>
