<svg width="36" height="46" viewBox="0 0 36 46" fill="none" xmlns="http://www.w3.org/2000/svg">
<path d="M24.1324 7.52369C25.8256 5.71095 26.9709 3.19421 26.6574 0.68457C24.218 0.771626 21.2615 2.11651 19.5105 3.92909C17.9409 5.53375 16.5667 8.09835 16.9334 10.5587C19.6555 10.7429 22.4363 9.33349 24.1324 7.52369ZM29.3274 24.8553C29.2754 19.229 33.7819 16.5267 33.9815 16.3961C31.448 12.5754 27.5022 12.0526 26.097 11.9936C22.7372 11.6409 19.5459 14.0283 17.8401 14.0283C16.1413 14.0283 13.5136 12.0399 10.727 12.0933C7.06374 12.1537 3.68833 14.2869 1.80691 17.6677C-1.99853 24.469 0.831549 34.5441 4.53975 40.0609C6.35248 42.7616 8.51081 45.7913 11.3451 45.6817C14.081 45.5721 15.1124 43.862 18.4132 43.862C21.7155 43.862 22.6401 45.6817 25.5291 45.6269C28.4688 45.5721 30.3292 42.8741 32.1265 40.1649C34.2061 37.0328 35.0634 34.0003 35.1125 33.8472C35.0494 33.8106 29.3878 31.5835 29.3274 24.8553Z" fill="white"/>
</svg>
