<svg width="42" height="46" viewBox="0 0 42 46" fill="none" xmlns="http://www.w3.org/2000/svg">
<path fill-rule="evenodd" clip-rule="evenodd" d="M18.4009 1.27032C19.7893 0.489321 21.4846 0.489321 22.873 1.27032L38.8364 10.2497C40.2726 11.0576 41.1613 12.5772 41.1613 14.225V31.8865C41.1613 33.3381 40.3937 34.6813 39.1433 35.4183L22.659 45.133C21.4114 45.8684 19.8625 45.8684 18.6148 45.133L2.13067 35.4183C0.880138 34.6813 0.112549 33.3381 0.112549 31.8865V14.225C0.112549 12.5772 1.0013 11.0576 2.43746 10.2497L18.4009 1.27032ZM4.9668 14.3386C5.58428 13.2409 6.97472 12.8516 8.07246 13.469L20.6374 20.5368L33.2022 13.469C34.3 12.8516 35.6904 13.2409 36.308 14.3386C36.9253 15.4363 36.536 16.8268 35.4382 17.4443L22.9179 24.487V39.1166C22.9179 40.3761 21.8969 41.3971 20.6374 41.3971C19.3779 41.3971 18.3569 40.3761 18.3569 39.1166V24.487L5.83639 17.4443C4.73866 16.8268 4.34933 15.4363 4.9668 14.3386Z" fill="white"/>
</svg>
