<svg width="46" height="40" viewBox="0 0 46 40" fill="none" xmlns="http://www.w3.org/2000/svg">
<path d="M23.225 5.00217C23.0535 4.14366 23.2724 3.25376 23.8661 2.33232C24.5683 1.22349 25.3956 0.615023 26.3482 0.489778C27.5818 0.349417 28.7214 1.00491 29.7831 2.42601C30.7668 3.75298 31.2042 5.00217 31.095 6.14202C31.079 6.82898 30.0646 7.25041 28.0503 7.39077C26.473 7.51602 25.3334 7.35966 24.5989 6.90676C23.8341 6.4543 23.3812 5.81437 23.225 5.00217ZM44.9907 39.7431C44.8816 39.9768 44.492 39.9457 43.8198 39.6491C42.6802 39.1028 41.4155 38.275 39.9948 37.1506C38.4175 35.9019 37.4959 34.9182 37.2463 34.1997C37.1997 34.0279 37.2156 33.8097 37.3089 33.5287L37.606 32.732C37.8086 31.9984 37.543 31.2648 36.8093 30.5303C36.4506 30.1714 35.9665 29.8282 35.3728 29.4999C33.9836 28.7663 31.9848 28.1419 29.3461 27.6419C26.6132 27.1268 24.0064 26.8302 21.5236 26.7679L18.5101 26.9242C17.7138 27.8452 16.949 28.7037 16.2146 29.4999C15.5903 30.1559 14.9818 30.7648 14.3881 31.3269C11.9993 33.4661 9.6732 35.09 7.39332 36.214C4.28603 37.7287 1.95957 38.1658 0.382546 37.4943C0.179607 37.3539 0.117028 37.1199 0.179607 36.7917L0.460681 35.9173C1.53804 33.5753 3.30236 31.4362 5.7226 29.4998C5.92554 29.3285 6.14404 29.1721 6.34698 29.0163C8.26757 27.5952 10.8593 26.0964 14.1228 24.5505C16.2616 23.6295 18.0263 23.0206 19.4003 22.724L20.6962 20.9281C21.2113 20.2882 21.7575 19.6793 22.3042 19.1011C23.4752 17.8364 24.677 16.6658 25.9425 15.6195C26.0514 15.5725 26.0674 15.5103 26.0043 15.4322C25.3645 15.0733 24.3185 14.4014 22.8979 13.4178C21.6794 12.5905 20.7273 12.0127 20.0398 11.7001C17.8855 10.7324 15.6838 11.0135 13.4202 12.5435C12.0615 13.4489 11.3277 14.4485 11.2497 15.5414L11.1715 16.8843C11.2497 17.2587 10.0475 17.8834 7.58061 18.7578C7.12771 18.8982 6.75295 19.023 6.44067 19.1011C5.89399 19.2103 5.51923 19.2263 5.33219 19.1322L5.26962 19.1011L5.09814 18.9918C4.87929 18.5548 5.90999 17.0557 8.17396 14.4795C8.33023 14.3045 8.48808 14.1346 8.64681 13.9671L8.65209 13.9603L8.65727 13.9568C12.7561 9.64535 17.5903 7.97674 23.1472 8.96797C24.6771 9.23349 27.2074 10.1701 30.7516 11.763C31.1412 11.3723 31.8134 10.9042 32.7345 10.3731C33.9055 9.70203 34.8732 9.34239 35.6073 9.32727C37.2157 9.31136 38.2301 9.92018 38.652 11.185C38.9016 11.9505 38.3393 13.0279 36.9502 14.4174C35.514 15.8851 34.1552 16.8061 32.8749 17.1805C31.2664 17.6649 29.5177 17.3838 27.6597 16.3692C26.8327 17.0091 25.8957 17.9305 24.8806 19.1011C24.8339 19.1482 24.7869 19.2104 24.7402 19.2574L22.336 22.1306L22.3045 22.3331L23.9596 22.271C25.1462 22.3025 26.3483 22.505 27.582 22.8954C30.9392 23.9727 33.7494 25.2996 36.013 26.8771C37.0903 27.6418 38.1374 28.5166 39.1205 29.4998C40.1353 30.5302 41.1189 31.6857 42.04 32.9504C42.8526 34.0752 43.5392 35.2144 44.1166 36.3543C44.9286 37.9474 45.2248 39.0713 44.9907 39.7431ZM32.6874 12.3876C32.9841 12.6217 33.6866 12.7157 34.8266 12.6687C36.0909 12.6217 36.9501 12.3721 37.4338 11.888C37.6683 11.6536 37.6683 11.4195 37.4027 11.201C37.1061 10.9355 36.5597 10.8733 35.7791 10.9822C35.1076 11.0914 34.3892 11.3255 33.6088 11.6851C32.8437 12.044 32.5312 12.2784 32.6874 12.3876ZM15.6528 27.3453L15.2935 27.2987C14.2162 27.5176 13.217 27.7672 12.2959 28.0487C11.0002 28.4698 9.79757 28.9538 8.68918 29.5C7.7992 29.9219 6.97144 30.3904 6.20671 30.8897C3.77055 32.4666 2.64652 33.9973 2.84946 35.4801L3.08386 35.7456C3.7238 36.1675 4.98854 35.8392 6.86211 34.7619C9.40759 33.2791 11.6867 31.5303 13.7011 29.5C14.3725 28.813 15.028 28.0949 15.6528 27.3453Z" fill="white"/>
</svg>
