<svg width="112" height="98" viewBox="0 0 112 98" fill="none" xmlns="http://www.w3.org/2000/svg">
<g clip-path="url(#clip0_425_181)">
<g filter="url(#filter0_d_425_181)">
<path d="M9.69611 93.8909C9.63625 93.8926 9.48668 93.897 9.33667 93.8865L9.09469 93.8042C9.00366 93.7622 8.89592 93.6607 8.86161 93.5127L8.09822 92.4928C8.00673 92.4359 7.88401 92.3352 7.87837 92.1417C7.87317 91.9631 8.67378 90.1535 9.38902 88.4946L10.9902 84.8746C11.0325 84.7844 11.1303 84.5428 11.243 84.302C11.4407 83.894 11.4694 83.8485 11.498 83.803C11.527 83.7724 11.5847 83.6962 11.6736 83.6638C11.7326 83.6323 11.792 83.6157 11.8219 83.6148C11.8668 83.6139 11.9112 83.5973 13.2576 83.5588C13.3175 83.557 13.4076 83.5693 13.4833 83.5965C13.68 83.6656 13.7591 83.8118 13.7625 83.9309L14.5101 84.9219C14.6768 84.9919 14.741 85.139 14.7441 85.2431C14.7514 85.4954 13.6963 87.8196 13.6549 87.9396C13.532 88.345 12.885 89.7781 12.8291 89.9138L11.426 93.1407C11.3419 93.3368 11.2432 93.5486 11.054 93.7325L10.9668 93.8244L10.8472 93.8279C10.4582 93.8392 10.0851 93.8795 9.69611 93.8909ZM8.17756 92.133C8.1819 92.2818 8.4965 92.2879 8.70595 92.2818C9.07991 92.2705 9.48299 92.2293 9.85695 92.2187C10.0022 92.0656 10.0872 91.8992 10.1713 91.7031C10.41 91.1603 11.6423 88.2363 11.773 88.098C11.8814 87.7076 12.3627 86.7559 12.3866 86.5467C12.4284 86.4416 13.4708 84.1926 13.4634 83.9396C13.3992 83.7926 12.7872 83.8547 12.6375 83.8591C12.4879 83.8635 11.9195 83.8801 11.8011 83.9282C11.6682 83.9913 11.3198 84.8799 11.2635 85.0007C10.9965 85.6039 8.91752 90.2953 8.90554 90.3996C8.83467 90.5361 8.17409 92.0139 8.17756 92.133ZM14.9367 93.68L13.3958 93.7246L12.4144 92.4123L12.4202 92.0998L16.2053 84.8134C16.3765 84.5254 16.5337 84.2679 16.6619 84.0412C16.8036 83.7689 16.8446 83.6333 16.8816 83.3645L17.136 83.3574C18.1383 83.3285 19.1243 83.2551 20.1266 83.2262C20.2164 83.2236 20.3809 83.2184 20.531 83.2289L20.6506 83.2261C20.681 83.2402 20.7259 83.2385 20.7558 83.2376C20.831 83.2507 20.9217 83.2778 20.9973 83.305L21.1034 83.347L21.4934 83.8863L21.522 83.8408C21.5502 83.7804 21.5779 83.7051 21.6211 83.6446C21.6642 83.5834 21.6916 83.4933 21.7347 83.4328C21.821 83.3111 21.9086 83.2341 21.983 83.2174C22.0128 83.2165 22.0872 83.1991 22.1919 83.1964L22.2966 83.193C22.356 83.1764 22.4159 83.1746 22.4907 83.1728L23.4182 83.1457C24.1059 83.1107 24.809 83.0906 24.9437 83.087C25.0483 83.0836 25.198 83.0792 25.348 83.0897C25.4976 83.0854 25.6776 83.0958 25.8293 83.1658L25.9657 83.221L26.9472 84.5325L27.0148 84.7986C27.0244 85.126 26.9737 85.4403 26.9071 85.7249C26.8405 86.0102 26.7586 86.2807 26.722 86.5644C26.6121 87.4162 26.3517 88.2427 26.1965 89.0813C25.9888 90.1739 25.7662 91.2674 25.5436 92.3608L25.4356 92.7661L25.3378 93.0069C25.3101 93.0822 25.2533 93.1881 25.1358 93.266L24.8982 93.3325L24.6891 93.3535L22.9239 93.4043L21.9424 92.0928L21.9281 91.6017L21.2768 92.886C21.205 92.9928 21.1178 93.0847 21.0606 93.1757L20.8009 93.5102L18.0932 93.5889L17.0043 92.1908L17.0388 91.8327L16.5285 92.815L16.2005 93.3753L16.0843 93.4979C16.0262 93.5592 15.9667 93.5758 15.9219 93.5767L15.7732 93.6109L15.4599 93.6502C15.2509 93.6712 15.0265 93.6773 14.9367 93.68ZM17.1446 83.6543L12.7199 92.1059L13.752 92.0761C13.9017 92.0718 14.7997 92.0612 14.9163 91.9535C15.1932 91.6919 16.5883 88.7038 16.9013 88.1436C17.1144 87.7505 17.3566 87.3267 17.5543 86.9188C17.6534 86.7219 17.8062 86.3157 17.9664 86.1624C18.0074 86.0268 18.2188 85.5742 18.3684 85.5698C18.503 85.5662 18.5522 85.7134 18.5553 85.8175C18.5605 85.9961 17.3929 91.1369 17.3495 91.7041L17.5219 91.9676L19.6611 91.9055C19.7042 91.845 20.0234 91.4931 20.0217 91.4336L23.2004 85.4306C23.2901 85.428 23.3543 85.575 23.3564 85.6494C23.3608 85.7983 23.3356 85.9621 22.6565 88.8555C22.4969 89.5453 22.2134 91.1168 22.2329 91.7864L23.0706 91.762C23.2202 91.7576 23.8789 91.754 23.9968 91.691C24.1298 91.6272 24.2342 91.1036 24.2607 90.9836C24.4837 89.9051 24.7064 88.8116 24.9141 87.7183C25.0692 86.8804 25.3146 86.054 25.4395 85.2021C25.5137 84.6637 25.7498 84.0316 25.7341 83.4959L25.7174 83.4364C25.5657 83.3664 25.1169 83.3795 24.9523 83.3847C23.9949 83.4119 23.0383 83.4696 22.0809 83.4968C21.9779 83.5598 21.7657 83.9826 21.7243 84.1034C21.1441 84.7451 20.9629 85.7186 20.3981 86.3752C20.4805 86.1196 20.8946 83.8889 20.8885 83.6806C20.8876 83.6508 20.8863 83.6062 20.8705 83.5765C20.7487 83.5055 20.255 83.5203 20.1353 83.5238C19.133 83.5527 18.147 83.6254 17.1446 83.6543ZM28.2455 93.295L26.7047 93.3396L25.7232 92.0281L25.729 91.7155L29.5141 84.4291C29.6854 84.1411 29.8426 83.8837 29.9707 83.6562C30.1125 83.3839 30.1535 83.2491 30.1906 82.9803L30.4449 82.9725C31.4472 82.9436 32.4332 82.8701 33.4355 82.8412C33.5252 82.8386 33.6898 82.8341 33.8398 82.8447L33.9595 82.8412C33.9898 82.8552 34.0347 82.8542 34.0647 82.8534C34.1399 82.8657 34.2305 82.8928 34.3062 82.9208L34.4122 82.962L34.8022 83.5021L34.8308 83.4566C34.8591 83.3962 34.8868 83.3209 34.93 83.2597C34.9731 83.1992 35.0004 83.109 35.0435 83.0478C35.1298 82.9262 35.2174 82.8499 35.2918 82.8324C35.3217 82.8316 35.3961 82.8149 35.5008 82.8114L35.6055 82.8088C35.6649 82.7921 35.7247 82.7904 35.7995 82.7878L36.727 82.7615C37.4148 82.7265 38.1179 82.7064 38.2525 82.7021C38.3573 82.6994 38.5068 82.695 38.6568 82.7055C38.8065 82.7012 38.9864 82.7108 39.1382 82.7808L39.2745 82.8368L40.2561 84.1483L40.3237 84.4144C40.3332 84.7418 40.2825 85.0561 40.216 85.3407C40.1494 85.6252 40.0675 85.8957 40.0308 86.1802C39.9209 87.032 39.6606 87.8584 39.5053 88.6963C39.2977 89.7897 39.0751 90.8831 38.8524 91.9766L38.7444 92.3811L38.6467 92.6227C38.6189 92.698 38.5621 92.8039 38.4446 92.8818L38.207 92.9476L37.998 92.9686L36.2327 93.0201L35.2512 91.7079L35.2369 91.2175L34.5857 92.5018C34.5139 92.6078 34.4267 92.6997 34.3695 92.7907L34.1098 93.126L31.4021 93.2039L30.3133 91.8059L30.3477 91.4477L29.8373 92.4301L29.5093 92.9911L29.3931 93.1129C29.335 93.1742 29.2757 93.1908 29.2308 93.1925L29.082 93.2266L28.7687 93.2652C28.5597 93.2862 28.3353 93.2924 28.2455 93.295ZM30.4536 83.2701L26.0287 91.7217L27.0609 91.6919C27.2105 91.6875 28.1085 91.6762 28.2251 91.5686C28.502 91.3076 29.8971 88.3189 30.2102 87.7594C30.4233 87.3655 30.6654 86.9418 30.8632 86.5338C30.9622 86.3377 31.115 85.9314 31.2753 85.7775C31.3163 85.6426 31.5277 85.1899 31.6772 85.1856C31.8118 85.1813 31.8611 85.3291 31.8641 85.4333C31.8693 85.6119 30.7017 90.7526 30.6584 91.3199L30.8307 91.5826L32.97 91.5212C33.0131 91.46 33.3323 91.1081 33.3305 91.0486L36.5092 85.0456C36.599 85.043 36.6632 85.1901 36.6653 85.2645C36.6697 85.4133 36.6445 85.5779 35.9653 88.4712C35.8058 89.1611 35.5222 90.7325 35.5417 91.4022L36.3795 91.3778C36.5291 91.3734 37.1878 91.3691 37.3057 91.306C37.4386 91.243 37.5431 90.7186 37.5695 90.5987C37.7926 89.5201 38.0153 88.4267 38.2229 87.334C38.3782 86.4954 38.6235 85.6698 38.7484 84.8171C38.8226 84.2788 39.0586 83.6467 39.043 83.1109L39.0263 83.0522C38.8745 82.9822 38.4257 82.9953 38.2612 82.9997C37.3038 83.0276 36.3472 83.0846 35.3898 83.1126C35.2868 83.1748 35.0746 83.5984 35.0332 83.7184C34.453 84.3609 34.2717 85.3336 33.707 85.9902C33.7894 85.7346 34.2034 83.5039 34.1974 83.2956C34.1965 83.2658 34.1952 83.2219 34.1793 83.1922C34.0575 83.1213 33.5638 83.1353 33.4442 83.1388C32.4419 83.1677 31.4558 83.2412 30.4536 83.2701ZM45.0021 92.9301L40.4095 93.0631L40.0568 92.7751L39.0753 91.4636L39.1149 91.2841C39.1269 91.1791 39.1687 91.074 39.211 90.983C39.2537 90.9077 39.2964 90.8316 39.3387 90.7413L39.9919 89.0098C40.1042 88.754 40.2319 88.5116 40.3138 88.2411C40.4798 87.7753 40.6609 87.3079 41.1806 86.132C41.1938 86.0717 41.2065 85.9972 41.2344 85.9219C41.2898 85.7714 41.3897 85.6042 42.0421 83.8436L42.1271 83.6773L42.1548 83.602L42.2389 83.4059C42.3354 83.1205 42.5678 82.8754 42.743 82.7213L42.8306 82.6443L42.9503 82.6408C43.8192 82.6609 44.6869 82.6355 45.5695 82.6101L46.871 82.5725C46.9309 82.5708 47.1253 82.5647 47.3057 82.5892C47.3955 82.5866 47.516 82.6136 47.6067 82.6408C47.6673 82.6688 47.8943 82.7512 47.9017 83.0042L48.6185 83.9663C48.7096 84.0083 48.8772 84.1073 48.8833 84.3157C48.8924 84.6282 48.2565 85.9273 48.1125 86.1251L48.0263 86.2468L46.3956 86.2941L46.4893 86.4254L47.2373 87.4305C47.4493 87.5137 47.4704 87.722 47.4721 87.7815L47.4474 87.961L47.3923 88.1264L47.2404 88.5624C47.1294 88.8636 47.0039 89.1796 46.962 89.2848L46.9206 89.4055L46.8202 89.557C46.7485 89.6637 46.6177 89.8012 46.3934 89.8081L45.2115 89.8423L45.9595 90.8474L46.0399 91.0391C46.0435 91.1581 46.0033 91.3228 45.9615 91.4286L45.6656 92.0625L45.5673 92.2884L45.4995 92.5291L45.4145 92.6946C45.3859 92.7402 45.3137 92.832 45.1949 92.8653L45.0021 92.9301ZM39.4013 91.3498L39.524 91.4505L43.8324 91.3262C43.9521 91.3227 44.1167 91.3183 44.1153 91.2736C44.2051 91.271 44.2862 90.9707 44.299 90.8955C44.3801 90.5953 44.753 90.034 44.7601 89.7653L44.7285 89.7067C44.6062 89.6209 42.3473 89.6865 42.8559 89.6716C42.6614 89.6777 42.3768 89.6707 42.3741 89.5814C42.3659 89.2987 42.7323 88.5142 42.9048 88.2708C43.4883 88.2542 44.0871 88.2516 44.6705 88.2349C44.9099 88.2279 45.1638 88.2053 45.4031 88.1983C45.5677 88.1938 45.6518 87.9978 45.7077 87.8621C45.791 87.6362 46.1957 86.6268 46.1914 86.478C46.1906 86.4482 46.1743 86.4044 46.1439 86.3904C45.9046 86.3974 43.6448 86.4325 43.5841 86.4044C43.5806 86.2854 44.2412 84.8075 44.3569 84.6701C44.7763 84.6728 45.196 84.6903 45.6149 84.6781L46.8865 84.6413C47.0304 84.4442 47.6081 83.2064 47.6025 83.0129C47.5978 82.8492 46.9844 82.8667 46.8797 82.8702L45.5632 82.9079C44.6956 82.9332 43.8279 82.9578 42.944 82.9393C42.8564 83.0163 42.5223 83.3683 42.5262 83.5022C42.4416 83.6834 40.8209 87.6607 40.6011 88.3374C40.4222 88.8784 39.467 91.0355 39.4013 91.3498ZM56.6157 87.6512C56.0943 88.7683 55.4727 89.5308 55.2822 89.67L55.316 89.8031L55.7722 91.0707C55.9185 91.4682 56.097 91.9392 56.1061 92.2518C56.1092 92.3559 56.0681 92.4916 55.966 92.5835C55.9519 92.6141 55.8635 92.6614 55.7143 92.6806L55.5053 92.7009L54.9228 92.748C54.4894 92.7752 54.0256 92.7884 53.9209 92.7918L53.8161 92.7945L53.6653 92.7542C53.5447 92.728 53.4524 92.6413 53.4036 92.509C53.3882 92.4942 53.3877 92.4793 53.3728 92.4801L52.4221 91.1968C52.2827 91.0374 52.004 90.2118 51.9377 89.9903L51.2046 90.0114L51.0368 90.4184L50.6727 91.2773C50.5471 91.5934 50.4207 91.8804 50.3076 92.1072L50.1222 92.425C50.079 92.4854 49.9778 92.6079 49.8445 92.6561L49.6957 92.6903L48.0352 92.7384C47.96 92.7253 47.8544 92.699 47.7778 92.6413C47.6868 92.5992 47.5945 92.5126 47.5756 92.3794L46.7814 91.3306C46.6899 91.2737 46.5817 91.1573 46.5765 90.9787C46.5734 90.8745 46.6004 90.7695 46.6426 90.6793C46.6704 90.604 46.6981 90.5287 46.7558 90.4525L46.9253 90.105C47.1059 89.6235 47.8027 87.8463 48.5316 86.1427C49.2032 84.5301 49.9761 82.795 50.2542 82.5787C50.2833 82.5481 50.3422 82.5166 50.4316 82.4991C50.4615 82.4982 50.5064 82.4973 50.5509 82.4807C50.6406 82.4781 50.7449 82.4605 50.8795 82.4562C51.1483 82.4342 51.4775 82.4246 51.8365 82.4141L53.4372 82.3678C53.5419 82.3651 53.9612 82.3677 54.3497 82.3415L54.9024 82.2959L55.0519 82.2916L55.5641 82.3958L56.1789 82.9438L57.1605 84.2553C57.3465 84.4733 57.4586 84.7236 57.4694 85.0949C57.4772 85.3628 57.0816 86.6847 56.6157 87.6512ZM54.1433 88.095C54.8623 87.5978 55.1689 86.8143 55.4354 86.1962C55.7189 85.6517 56.2065 84.4023 56.1887 83.7922C56.1727 83.2415 55.8204 82.9692 55.4222 82.668L55.2543 82.5534C55.0299 82.5603 54.5208 82.5596 53.9224 82.577C52.5312 82.6173 50.6321 82.7021 50.4407 82.8116C50.1168 82.9998 47.4867 89.3294 47.2126 90.2013C47.1439 90.4114 46.8697 90.7616 46.8757 90.97C46.8835 91.2379 47.6588 91.1266 47.8383 91.1214C47.958 91.1179 48.6761 91.0969 48.7649 91.0645C49.0761 90.9515 49.7778 88.8313 50.0349 88.4075L50.6633 88.3891C50.8428 88.3839 51.6339 88.3016 51.7592 88.4915L52.6874 91.0557C52.7055 91.1591 52.7961 91.1863 52.8859 91.1836C53.0653 91.1784 54.7399 91.1005 54.7835 91.0541C54.8126 91.0235 54.8267 90.9937 54.8253 90.949C54.8184 90.7109 54.4449 89.7093 54.3794 89.5176C54.2818 89.2524 54.1706 89.0318 54.1025 88.7516C54.1012 88.7069 54.085 88.6623 54.0687 88.6185C54.0212 88.5301 53.9587 88.4426 53.9557 88.3384C53.9518 88.2045 54.0552 88.1572 54.1433 88.095ZM53.0426 84.2404C53.4914 84.2273 53.8218 84.2623 53.831 84.5748C53.84 84.8874 53.5309 85.5815 53.4045 85.8679C53.2218 86.275 53.1931 86.3205 52.7619 86.4221C52.3307 86.5244 51.8815 86.5226 51.4327 86.535C51.1784 86.5428 50.8488 86.5375 50.844 86.3738C50.8432 86.344 51.598 84.5056 51.6822 84.3095C51.8467 84.3051 52.0253 84.2701 52.19 84.2649C52.4895 84.271 52.7883 84.2474 53.0426 84.2404ZM61.3225 92.5626C60.6942 92.581 60.0347 92.5555 59.4016 92.4102C59.2058 92.3708 58.6761 92.1774 58.2059 91.9681C57.963 91.856 57.7202 91.7439 57.5522 91.6293L57.3071 91.4428C57.261 91.3999 57.2144 91.3413 57.1674 91.2686L56.3257 90.1314C56.2641 90.0736 56.1559 89.9572 56.1511 89.7935C56.1489 89.7198 56.1762 89.6297 56.1895 89.5693C56.2027 89.5097 56.8971 88.1642 56.9552 88.1029C56.9988 88.0574 57.1009 87.9646 57.2505 87.9603C57.3552 87.9576 57.4463 87.9996 57.492 88.0277C57.5532 88.0706 57.5989 88.0994 57.6451 88.1424L57.7687 88.2728L57.7845 88.3025C58.186 88.7227 59.15 88.918 59.8232 88.8987C59.9428 88.8952 60.3014 88.8699 60.6206 88.518C60.2225 88.2168 59.8218 87.8264 59.0591 87.3422L58.1619 86.3556C57.9763 86.1525 57.8643 85.9029 57.797 85.6517C57.7623 85.4888 57.7576 85.3251 57.7532 85.1763L57.7393 84.7001C57.7367 84.6108 57.7337 84.5066 57.7465 84.4321L57.743 84.3131C57.7567 84.2676 57.7554 84.223 57.7695 84.1932C57.769 84.1783 57.9368 83.7712 57.9496 83.6967C58.0747 83.365 58.4097 83.0428 58.7177 82.8257C58.8643 82.7172 58.9968 82.6392 59.0998 82.5762C59.631 82.3083 60.646 82.2041 61.1547 82.1893C62.0822 82.163 63.4873 82.5982 64.1532 83.3536L64.2929 83.5279L65.2745 84.8402L65.16 85.0222L64.4246 86.5026L64.2375 86.7609L63.6578 86.3906L63.2149 86.0904C62.9105 85.9205 62.6685 85.8382 62.1898 85.8522C61.9205 85.8601 61.7124 85.9108 61.5808 86.0186L62.1918 86.4327C62.42 86.5604 62.6492 86.7172 62.8643 86.9046C62.9874 87.0201 63.1106 87.1357 63.2196 87.2818L64.2012 88.5933C64.4347 88.8996 64.5805 89.2823 64.5945 89.7585C64.6071 90.1901 64.4687 90.5806 64.2987 90.9133C64.0716 91.337 63.7814 91.6582 63.4444 91.906C62.8436 92.3551 62.1004 92.5407 61.3225 92.5626ZM56.4504 89.7855C56.459 90.0824 58.1853 90.7477 58.4866 90.8134C59.0594 90.9456 59.7488 90.9702 60.3323 90.9535C61.4692 90.921 62.5055 90.5184 63.0436 89.4608C63.1995 89.1588 63.3242 88.8122 63.3138 88.455C63.312 88.3955 63.2958 88.3516 63.294 88.2921C63.1568 87.1794 62.2479 86.8187 61.3642 86.2934C61.0748 86.1227 60.1145 85.5397 60.1032 85.1527C60.0837 84.4838 60.6311 84.2597 61.1995 84.2431C62.3365 84.2099 62.9588 85.0109 63.1986 85.0188C63.2562 84.9427 63.8622 83.6451 63.9194 83.5541C63.346 82.8853 62.031 82.4616 61.1633 82.4869C60.6696 82.501 59.6695 82.6043 59.2422 82.8405C58.9179 83.0131 58.3615 83.4464 58.2374 83.8071C58.1818 83.9577 58.1422 84.138 58.0563 84.2745C58.0325 84.483 58.0385 84.6913 58.0446 84.8997L58.0546 85.242C58.0967 86.6855 60.8827 87.7511 60.9044 88.4952C60.9152 88.8672 60.1012 89.1885 59.8019 89.1973C59.0839 89.2175 57.8275 88.7481 57.3032 88.2272C56.9964 88.489 56.443 89.5325 56.4504 89.7855ZM66.3364 92.2247C66.2766 92.2264 66.112 92.2308 65.9466 92.2063L65.6755 92.1538C65.6153 92.1407 65.3883 92.0583 65.3809 91.8053L64.6487 90.8292L64.3994 90.4939C64.3985 90.4641 64.3968 90.4046 64.425 90.3442L64.4664 90.2234C64.5091 90.1481 64.5509 90.0422 64.6073 89.9214C64.72 89.6806 64.8759 89.3777 65.0318 89.0757C65.3431 88.4559 65.6694 87.8361 65.7553 87.6995C65.798 87.6242 65.8548 87.5182 65.927 87.4271L66.041 87.2302C66.1119 87.0937 66.1524 86.9439 66.2237 86.8223C66.407 86.4301 66.635 86.0362 66.8486 85.6579L67.0211 85.4146L67.1352 85.2176C67.4183 84.659 67.6566 84.1013 67.9701 83.5559C68.0696 83.3747 68.1986 83.1769 68.313 82.9948C68.3566 82.9492 68.4002 82.9029 68.4283 82.8425L68.5147 82.7216C68.5864 82.6149 68.6283 82.5097 68.6996 82.3881C68.7559 82.2673 68.8422 82.1456 68.9431 82.009L69.0302 81.9171L73.0693 81.8007L74.0509 83.1122L74.0596 83.4098C74.0661 83.633 74.0585 83.8861 74.035 84.1102C74.0227 84.2003 73.9953 84.2905 73.9826 84.3649L73.9275 84.5304L73.7189 85.5933L73.5727 86.2235L73.5197 86.4626L73.492 86.5379C73.4814 86.6875 73.4549 86.8074 73.4284 86.9274C73.3875 87.0622 73.3611 87.1822 73.3346 87.3021C73.3077 87.4071 73.3112 87.5262 73.2993 87.6304L73.2174 87.9009L73.097 88.3956C73.0577 88.5907 72.9316 89.398 72.7742 90.1622C72.6957 90.5518 72.6173 90.9413 72.5357 91.2267L72.4269 91.6015L72.3565 91.7529C72.2992 91.8439 72.2411 91.9052 72.1967 91.921C72.1232 91.9682 72.0334 91.9708 71.9741 91.9867L71.765 92.0077L70.0148 92.0584L69.0332 90.7469L69.0254 90.4791L68.9061 90.4974L68.7917 90.6795L68.6508 90.9815C68.5372 91.1926 68.4526 91.3738 68.3818 91.5103C68.2963 91.6618 68.2105 91.7983 68.0938 91.906C67.831 92.1363 67.4729 92.1766 66.9792 92.1906C66.7698 92.1967 66.5459 92.2185 66.3364 92.2247ZM65.3462 90.6148C66.9918 90.5675 66.7862 90.7075 67.3957 89.5283C67.4807 89.362 67.5933 89.1204 67.7087 88.9688C67.7809 88.877 68.0946 88.8533 68.4088 88.8438C68.6781 88.8367 68.9627 88.8429 69.0375 88.8411C69.1871 88.8367 69.3525 88.8613 69.5026 88.8718C69.3805 89.3077 69.3103 89.9792 69.3238 90.4406L70.1465 90.4169C70.2961 90.4126 70.9398 90.409 71.0727 90.3452C71.3385 90.2183 71.7645 86.8564 72.0168 86.2681C72.0059 85.8961 72.205 85.5328 72.2091 85.1607C72.2967 85.0837 72.6152 83.1682 72.7531 82.7628C72.7466 82.5396 72.7853 82.3295 72.7788 82.1063L69.1735 82.2112C69.1009 82.2874 68.7861 82.7881 68.7738 82.8775C68.2111 83.6085 67.8033 84.5137 67.4084 85.3444C67.3379 85.4951 67.1931 85.6631 67.1076 85.8146C66.9232 86.1622 66.423 86.9807 66.3142 87.3562C66.0963 87.5857 64.6947 90.3512 64.6986 90.4851C64.7021 90.6042 65.047 90.6235 65.3462 90.6148ZM68.5547 87.1724C68.5542 87.1575 69.3627 85.6151 69.4903 85.3734C69.5608 85.222 70.0989 84.1644 70.2933 84.1591C70.4131 84.1556 70.3871 84.2904 70.3892 84.3648C70.3961 84.6022 70.2934 85.1861 70.1948 85.3979C70.1986 85.5318 70.1273 85.6527 70.1009 85.7726C70.0361 86.1167 70.0623 86.5036 69.9073 86.8354C69.9086 86.8801 69.8839 87.0595 69.8245 87.0761C69.766 87.1225 68.735 87.1969 68.5705 87.2014C68.5551 87.1873 68.5551 87.1873 68.5547 87.1724ZM77.8195 88.4087L78.1699 88.6215L79.1664 89.9329L79.1557 90.0669C79.1478 90.3058 79.0228 90.6517 78.9118 90.9528C78.801 91.2688 78.6609 91.5857 78.5764 91.7662L78.506 91.9324L74.6004 92.0007C74.4957 92.0033 74.2563 92.0103 74.0165 92.0024L73.6562 91.9683L73.4904 91.9281C73.4446 91.9 73.3536 91.858 73.2915 91.7853L72.31 90.4738L72.3308 90.1604C72.3599 90.1298 72.4542 89.7692 72.4829 89.7237L72.9086 88.9226C73.061 88.5014 74.1515 85.8489 74.5294 84.9445C74.7104 84.4779 74.876 83.9964 75.087 83.5289C75.5759 82.3234 75.7159 81.9917 75.9951 81.82C76.025 81.8043 76.069 81.7736 76.158 81.7561C76.2029 81.7544 76.2477 81.7386 76.3076 81.7368L77.548 81.6712C77.6228 81.6686 77.7284 81.6808 77.8199 81.7377L78.0374 82.0144L78.8014 83.0492C78.9379 83.1201 79.0162 83.2366 79.0206 83.4003C79.0258 83.564 78.9712 83.7443 78.9298 83.8643L78.7758 84.2266C78.2168 85.6125 77.6286 86.9844 77.0696 88.3702C77.1743 88.3676 77.6698 88.3982 77.8195 88.4087ZM73.6102 90.3915L77.3212 90.3286C77.462 90.0117 77.8688 89.0767 77.8741 88.7493C77.7975 88.6767 77.4225 88.6582 77.0185 88.6696C76.5546 88.6828 76.0624 88.7273 75.8376 88.7335C75.7629 88.7361 75.1345 88.7537 75.1307 88.6197C75.1263 88.4717 75.3267 88.153 75.398 88.0314C75.541 87.8038 75.6755 87.2793 75.7873 87.008C76.3452 85.6072 76.9483 84.2048 77.5214 82.8032C77.591 82.6228 77.746 82.3059 77.7399 82.0975C77.739 82.0677 77.7214 81.9785 77.6773 81.9802L77.2134 81.9934C76.7794 82.0057 76.2108 82.0223 76.1526 82.0687C75.9757 82.1781 75.8486 82.4346 75.7944 82.6298L75.3601 83.655C75.1492 84.1225 74.9981 84.589 74.8021 85.0557C74.4392 85.96 72.6036 90.2716 72.5442 90.2882C72.6229 90.4196 73.4606 90.3959 73.6102 90.3915ZM75.5144 88.4305L75.5998 88.2791C75.5712 88.3246 75.5426 88.3701 75.5144 88.4305ZM82.0351 91.7855L81.8556 91.7907C81.4815 91.802 81.0916 91.7977 80.7182 91.809L80.5229 91.7994C80.4472 91.7722 80.2201 91.6891 80.213 91.4361L79.4807 90.4599L79.2315 90.1246C79.2307 90.0949 79.229 90.0502 79.2571 89.9749C79.2562 89.9452 79.2695 89.9005 80.5716 86.7953C80.6006 86.7498 80.6719 86.6281 80.7282 86.5081L80.7987 86.3716L80.7987 86.3567L80.7837 86.3575L80.7019 86.1212L80.3807 85.3858C80.04 84.4876 79.1343 82.1763 79.0868 82.088L78.8492 81.6484L79.3438 81.6493L79.807 81.6354C80.2559 81.6223 80.7197 81.5942 81.182 81.5513L81.3914 81.5303L82.3729 82.8418L82.453 83.0334C82.5322 83.1797 82.5973 83.3416 82.6766 83.5035C82.8509 83.3197 83.0692 83.1044 83.2875 82.8899C83.8254 82.3384 84.3923 81.7413 84.5375 81.5881L84.6389 81.4813L84.7886 81.4918C84.8185 81.4909 84.8343 81.505 84.8492 81.5049L84.954 81.5164L85.0746 81.5278L86.1512 81.4971C86.3308 81.4918 86.5103 81.4717 86.6749 81.4665C86.7797 81.4638 86.8844 81.4611 86.9892 81.4726L87.3501 81.5216L88.3316 82.8339L88.2216 83.1789L88.1362 83.3304C86.357 85.4664 86.8914 84.7958 84.3136 87.7741L83.9667 88.2013L83.8805 88.3229L83.8532 88.4272L83.7686 88.5936L83.1295 90.3095C83.0045 90.6412 82.8935 90.9423 82.7659 91.184L82.596 91.5166C82.5378 91.5779 82.4367 91.7145 82.2737 91.7636L82.0351 91.7855ZM79.5308 90.1159C79.5335 90.2052 79.6831 90.2008 79.728 90.1999C80.1013 90.1886 80.4912 90.1921 80.8653 90.1816C80.985 90.1781 81.1048 90.1746 81.2237 90.1562C81.5925 89.9671 82.3436 87.4886 82.554 87.0062C82.5963 86.9153 86.9152 82.011 86.9531 81.7712C86.8625 81.7589 86.7735 81.7615 86.6837 81.7642C86.5191 81.7693 86.3246 81.7895 86.16 81.7947L85.0833 81.8254C84.9786 81.8288 84.858 81.8026 84.7524 81.7904C84.6072 81.9435 82.5014 84.1785 82.3218 84.1838C82.1871 84.1873 82.1061 83.9667 82.0585 83.8634C81.784 83.1867 81.5244 82.5091 81.2057 81.8481C80.7427 81.891 80.2796 81.9198 79.8157 81.933L79.3526 81.9462C79.7003 82.5765 81.1104 86.2735 81.1139 86.3926C81.1155 86.4372 80.8868 86.8304 80.8445 86.9213C80.678 87.3582 79.5239 89.8927 79.5308 90.1159ZM88.5066 91.6436L87.2346 91.6655L86.9942 91.6278C86.7822 91.5595 86.703 91.4125 86.6994 91.2786L85.9662 90.2875L85.7179 89.9671C85.717 89.9373 85.7153 89.8778 85.7427 89.8025C85.7567 89.772 85.77 89.7124 85.7832 89.652C85.8254 89.5469 85.8808 89.3963 85.9354 89.216C86.0605 88.8851 86.2277 88.4482 86.4091 88.0114C86.7428 87.1377 87.1213 86.2334 88.8418 82.1039C88.9535 81.8176 89.0381 81.6371 89.185 81.5286C89.3312 81.4201 89.5249 81.3842 89.8541 81.3754L91.4994 81.3273L92.4809 82.6388L92.5477 82.8603C92.6314 82.665 92.7142 82.4242 92.8277 82.1975C92.9113 81.9865 93.01 81.7904 93.0954 81.639C93.1385 81.5629 93.1958 81.4867 93.2539 81.4254C93.2978 81.3798 93.3991 81.2722 93.5637 81.2678C94.0127 81.2547 94.4757 81.2267 94.9247 81.2136C94.9696 81.2126 95.0743 81.2092 95.1649 81.2214C95.2099 81.2354 95.2855 81.2477 95.3613 81.2905L95.5479 81.5383L96.3427 82.602C96.4192 82.6449 96.5267 82.7456 96.5311 82.9093C96.5319 82.9242 96.5188 82.9987 96.4923 83.1037L96.4219 83.2551L96.3233 83.481L95.3918 85.9349L93.9831 89.4752L93.8018 89.9418L93.6793 90.3472L93.4539 90.8304L93.3122 91.1175L93.2259 91.2392L93.0648 91.3627C92.9917 91.4092 92.8721 91.4275 92.7981 91.445L91.2118 91.4905C91.0314 91.466 90.835 91.3977 90.71 91.2077L89.7902 89.9681L89.7752 89.954C89.4663 90.6772 89.2145 91.2804 89.1572 91.3714C89.0569 91.5229 88.9089 91.5719 88.8192 91.5894C88.7153 91.6226 88.5964 91.641 88.5066 91.6436ZM86.0172 89.9584C86.0217 90.1221 86.9178 90.0363 87.0225 90.0337C87.0824 90.0319 87.247 90.0416 87.4116 90.0372C87.6361 90.0303 87.8747 89.9942 87.9169 89.9033C88.0851 89.5111 89.543 86.1038 89.5519 85.8954L89.581 85.8797C89.6857 85.877 89.7288 86.3218 89.7403 86.7236C89.7499 87.0362 89.7428 87.319 89.7437 87.3487C89.7569 87.7952 89.8299 88.2399 89.8722 88.6706C89.998 89.9025 89.6995 89.9261 90.9857 89.8893C91.1503 89.8841 91.8386 89.8647 91.9558 89.7868C92.0754 89.7685 92.3238 89.0611 92.41 88.9246C92.4364 88.8047 92.5219 88.6681 92.5334 88.549C92.8687 87.7059 93.1725 86.848 93.5528 86.018C93.5607 85.765 94.7546 83.08 94.7511 82.946C94.7925 82.8402 95.0584 82.1923 95.0549 82.0882C95.0839 82.0426 95.2512 81.6214 95.2504 81.6066C95.2485 81.5173 95.0531 81.5077 94.9334 81.5112C94.4845 81.5243 94.0214 81.5523 93.5725 81.5654C93.3929 81.5707 93.0301 82.4593 92.9737 82.5801C92.8751 82.7919 92.8374 83.0607 92.708 83.2429C92.6401 83.4687 91.957 85.2153 91.8292 85.4428C91.8143 85.4577 91.7861 85.5033 91.7562 85.5041C91.7113 85.5051 91.6937 85.4315 91.6778 85.3876C91.5643 85.0778 91.5088 84.2006 91.4983 83.8442L91.4781 83.1596C91.4632 82.6388 91.4325 82.1187 91.2837 81.6312L89.473 81.6688C89.075 82.3804 86.0103 89.7351 86.0172 89.9584ZM101.972 86.6231L104.741 91.2192L101.625 91.1746L100.643 89.8483L100.059 88.8082C99.8412 89.0376 99.5656 89.3432 99.2901 89.6495C98.7539 90.2605 98.1888 90.9171 98.0154 91.1307L97.929 91.2368L95.8939 91.2962L95.6843 91.2874C95.5197 91.2769 95.4273 91.2051 95.3807 91.1466L95.1633 90.8855L94.1818 89.5733L94.4758 89.386C94.5647 89.3387 95.3324 88.4684 96.2154 87.4302C96.983 86.5294 97.7789 85.5979 98.1416 85.1855C97.9102 84.4476 96.692 82.2046 96.2685 81.5322L96.0159 81.0927L98.5741 81.0192L99.8645 83.1852C100.054 82.9864 101.692 81.1672 101.837 81.014L101.91 80.9222L104.887 80.8364L105.868 82.1478L105.374 82.6687C104.548 83.601 102.36 86.0909 101.972 86.6231ZM94.6334 89.6495C94.6492 89.6792 94.6941 89.6775 94.7091 89.6775C94.8745 89.6872 95.0383 89.6827 95.203 89.6783L96.8041 89.6319C96.9054 89.5094 99.0763 86.9452 99.3131 86.849L100.815 89.5603L103.226 89.5952L100.645 85.3072C100.699 85.0822 103.712 81.6444 104.177 81.155L102.053 81.2162C101.995 81.2775 99.8803 83.7209 99.7756 83.7236L98.4033 81.3213L96.5335 81.3755C96.8169 81.8588 98.4119 84.7163 98.4734 85.2652C97.9796 85.8009 94.7962 89.5855 94.6334 89.6495Z" fill="#8F010A"/>
</g>
<g filter="url(#filter1_d_425_181)">
<path d="M73.6941 65.0768L67.3537 56.6937L69.2438 53.3443L80.27 67.918L73.6941 65.0768Z" fill="url(#paint0_linear_425_181)"/>
<path d="M57.9078 23.6239L46.1773 25.8079L40.6488 22.5411L51.8496 20.3724L57.9078 23.6239Z" fill="url(#paint1_linear_425_181)"/>
<path d="M77.9609 20.54L68.6504 37.5464L63.8203 30.9647L71.6378 17.2962L82.4416 15.1389L88.6279 18.2549L77.9609 20.54Z" fill="url(#paint2_linear_425_181)"/>
<path d="M47.1629 73.2242L40.9876 70.5032L56.3654 43.4372L40.3878 22.6807L46.1735 25.6764L57.7754 23.6279L68.7829 37.5432L77.8285 20.5444L88.6358 18.5189L74.6722 44.0943L91.471 65.7497L80.134 67.7905L69.2437 53.3447L59.1697 71.4275L47.5587 73.1649L47.1629 73.2242Z" fill="url(#paint3_linear_425_181)"/>
</g>
<g filter="url(#filter2_d_425_181)">
<path d="M24.571 75.5901C29.6168 75.4443 33.6297 72.6731 33.5343 69.4005C33.4388 66.1279 29.2711 63.5931 24.2253 63.7389C19.1796 63.8847 15.1666 66.6559 15.2621 69.9285C15.3575 73.2011 19.5253 75.7359 24.571 75.5901Z" fill="#060302"/>
<path d="M26.5571 75.5327C32.6998 75.3552 37.602 72.5583 37.5065 69.2857C37.4111 66.0131 32.3541 63.504 26.2115 63.6815C20.0688 63.859 15.1666 66.6559 15.2621 69.9285C15.3575 73.2011 20.4145 75.7102 26.5571 75.5327Z" fill="#181310"/>
<path d="M36.0954 69.1055C27.9267 74.538 20.2199 72.1226 16.4901 69.668C15.8924 69.2746 15.748 68.4943 16.0388 67.8428C18.4976 62.3321 21.5549 48.4836 17.8174 28.2764C17.6905 27.5901 18.5636 27.0135 19.2025 27.3016C21.9732 28.5514 26.7663 29.3042 32.5665 26.4872C33.1288 26.2141 33.7979 26.6784 33.7116 27.2948C30.7365 48.5351 34.0255 61.9271 36.5618 67.1259C36.9 67.8191 36.7395 68.6771 36.0954 69.1055Z" fill="#890008"/>
<path d="M25.8409 29.7548C30.3097 29.6257 33.8923 28.1505 33.843 26.4598C33.7937 24.7691 30.1311 23.5033 25.6623 23.6324C21.1936 23.7615 17.6109 25.2368 17.6602 26.9274C17.7095 28.6181 21.3721 29.884 25.8409 29.7548Z" fill="#FFBC2B"/>
<path d="M23.8314 28.3991C26.4885 28.3224 28.6179 27.4167 28.5876 26.3763C28.5572 25.3359 26.3786 24.5547 23.7215 24.6315C21.0644 24.7083 18.935 25.6139 18.9653 26.6543C18.9957 27.6947 21.1743 28.4759 23.8314 28.3991Z" fill="#FFD258"/>
<path d="M32.1325 69.9266L18.8235 63.1793C18.3171 62.9226 17.6586 63.3047 17.4476 63.8296C17.0762 64.7536 16.3335 65.9295 15.4827 68.4066C15.5743 71.5438 25.9476 73.9629 32.1476 71.1391C32.6747 70.8991 32.6489 70.1884 32.1325 69.9266Z" fill="#710007"/>
<path d="M25.7008 55.2612C26.5784 55.2358 27.2708 54.5668 27.2475 53.7668C27.2241 52.9668 26.4939 52.3389 25.6163 52.3642C24.7388 52.3896 24.0464 53.0587 24.0697 53.8586C24.093 54.6586 24.8233 55.2865 25.7008 55.2612Z" fill="#FFA700"/>
<path d="M25.8173 39.1832L25.0656 39.2049C24.6525 39.2169 24.3273 39.5596 24.3393 39.9704L24.5157 46.018C24.5277 46.4288 24.8723 46.7522 25.2854 46.7402L26.037 46.7185C26.4501 46.7066 26.7753 46.3639 26.7633 45.953L26.5869 39.9055C26.575 39.4947 26.2304 39.1713 25.8173 39.1832Z" fill="#D9D9D9"/>
<path d="M21.7108 42.4028L21.7361 43.2698C21.7481 43.6806 22.0927 44.004 22.5058 43.9921L28.2022 43.8275C28.6153 43.8155 28.9405 43.4728 28.9285 43.062L28.9032 42.1949C28.8912 41.7841 28.5466 41.4607 28.1335 41.4727L22.4371 41.6373C22.024 41.6492 21.6988 41.9919 21.7108 42.4028Z" fill="#D9D9D9"/>
<path d="M24.9978 22.0705C29.8241 21.931 33.6232 17.927 33.4832 13.1272C33.3432 8.32738 29.3171 4.54943 24.4908 4.68889C19.6645 4.82835 15.8654 8.83241 16.0054 13.6322C16.1455 18.432 20.1715 22.21 24.9978 22.0705Z" fill="#890008"/>
<path d="M29.5099 14.4804C31.2792 13.7815 32.0299 11.5032 31.1867 9.39179C30.3435 7.28033 28.2256 6.13523 26.4563 6.83413C24.687 7.53304 23.9362 9.81128 24.7795 11.9227C25.6227 14.0342 27.7406 15.1793 29.5099 14.4804Z" fill="#710007"/>
</g>
<path d="M65.6198 66.3751C63.6992 66.1561 61.6085 63.9991 59.8442 60.3608L51.2842 59.3847C48.3275 63.038 45.3971 64.6479 43.4136 63.6939C43.0227 63.4861 42.6785 63.2015 42.4016 62.8574C42.1248 62.5132 41.9213 62.1166 41.8034 61.6917C40.81 58.8137 41.7587 53.505 44.114 48.7822C44.534 47.9577 45.1416 47.242 45.8884 46.692C46.6353 46.1421 47.501 45.773 48.4164 45.6141C49.3319 45.4552 50.2721 45.511 51.1621 45.7768C52.052 46.0427 52.8674 46.5115 53.5433 47.1458L60.4307 47.9312C61.2334 47.4655 62.1343 47.1925 63.0617 47.1339C63.9892 47.0753 64.9176 47.2327 65.7731 47.5935C66.6286 47.9544 67.3877 48.5087 67.99 49.2126C68.5922 49.9164 69.0211 50.7503 69.2423 51.6479C70.46 56.7782 70.1763 62.1628 68.5534 64.7424C68.3418 65.1296 68.0532 65.4701 67.7053 65.743C67.3572 66.016 66.9571 66.2157 66.5291 66.33C66.2307 66.396 65.9233 66.4112 65.6198 66.3751Z" fill="#9F0008"/>
<path d="M67.4564 64.6422C67.1393 64.712 66.8125 64.7281 66.4899 64.6897C64.4495 64.457 62.2283 62.1656 60.3534 58.298L51.2583 57.2608C48.1179 61.1426 45.0028 62.8552 42.8951 61.8412C42.3007 61.543 41.8178 61.0636 41.5169 60.4731C41.5739 60.8886 41.6698 61.2979 41.8031 61.6958C41.9215 62.1201 42.1253 62.516 42.4021 62.8595C42.679 63.2031 43.0232 63.4871 43.4137 63.6945C45.3979 64.6485 48.3276 63.0385 51.2843 59.3852L59.8443 60.3614C61.6085 64.0009 63.6993 66.1567 65.6199 66.3757C65.9235 66.4114 66.231 66.3958 66.5294 66.3294C66.9573 66.2151 67.3575 66.0154 67.7055 65.7424C68.0535 65.4695 68.342 65.129 68.5537 64.7418C68.7742 64.3843 68.9608 64.0071 69.1109 63.6152C68.6839 64.1245 68.1041 64.4845 67.4564 64.6422ZM57.152 56.4839L54.7896 56.2145C54.633 56.1966 54.4899 56.1176 54.3919 55.9949C54.2938 55.8721 54.2488 55.7156 54.2668 55.5599C54.2847 55.4041 54.3642 55.2618 54.4877 55.1642C54.6112 55.0667 54.7685 55.0219 54.9251 55.0399L57.2875 55.3092C57.4441 55.3271 57.5872 55.4061 57.6853 55.5289C57.7833 55.6517 57.8283 55.8082 57.8103 55.964C57.7924 56.1197 57.7129 56.262 57.5894 56.3596C57.466 56.4571 57.3086 56.5018 57.152 56.4839Z" fill="#FFCF53"/>
<path d="M62.9561 58.0389C65.4024 58.3179 67.613 56.5719 67.8937 54.139C68.1743 51.7061 66.4187 49.5077 63.9724 49.2287C61.5261 48.9498 59.3155 50.6959 59.0348 53.1287C58.7542 55.5615 60.5098 57.7599 62.9561 58.0389Z" fill="#FFCF53"/>
<path d="M48.8161 56.1277C51.0992 56.388 53.1625 54.7584 53.4244 52.4877C53.6863 50.2171 52.0478 48.1652 49.7646 47.9048C47.4814 47.6444 45.4181 49.2741 45.1562 51.5448C44.8943 53.8154 46.5328 55.8672 48.8161 56.1277Z" fill="#FFCF53"/>
<path d="M63.5998 52.4583C64.089 52.5141 64.5311 52.165 64.5872 51.6784C64.6434 51.1918 64.2923 50.7521 63.803 50.6963C63.3138 50.6405 62.8716 50.9898 62.8155 51.4763C62.7594 51.9629 63.1105 52.4026 63.5998 52.4583Z" fill="#BF1C0E"/>
<path d="M63.1255 56.5697C63.6148 56.6255 64.057 56.2762 64.1131 55.7897C64.1692 55.3031 63.8181 54.8635 63.3288 54.8077C62.8395 54.7518 62.3975 55.101 62.3413 55.5876C62.2851 56.0742 62.6363 56.5139 63.1255 56.5697Z" fill="#BF1C0E"/>
<path d="M65.4297 54.7494C65.9189 54.8052 66.3611 54.456 66.4172 53.9694C66.4733 53.4828 66.1222 53.0432 65.6329 52.9873C65.1437 52.9316 64.7016 53.2808 64.6455 53.7674C64.5893 54.2539 64.9404 54.6936 65.4297 54.7494Z" fill="#BF1C0E"/>
<path d="M61.2956 54.2786C61.7848 54.3345 62.2269 53.9853 62.283 53.4987C62.3392 53.0121 61.9881 52.5724 61.4988 52.5166C61.0096 52.4609 60.5674 52.8101 60.5113 53.2967C60.4552 53.7832 60.8063 54.2229 61.2956 54.2786Z" fill="#BF1C0E"/>
<path d="M51.4589 51.3712L50.2777 51.2365L50.4133 50.0618C50.4402 49.8282 50.3727 49.5935 50.2256 49.4093C50.0786 49.2251 49.8639 49.1066 49.629 49.0798C49.394 49.053 49.158 49.1201 48.9728 49.2664C48.7876 49.4127 48.6684 49.6261 48.6415 49.8598L48.506 51.0345L47.3248 50.8997C47.0899 50.873 46.8538 50.9401 46.6686 51.0864C46.4834 51.2327 46.3642 51.4461 46.3373 51.6797C46.3104 51.9134 46.3778 52.1481 46.5249 52.3323C46.672 52.5165 46.8866 52.635 47.1215 52.6618L48.3027 52.7965L48.1672 53.9712C48.1402 54.2048 48.2078 54.4395 48.3549 54.6238C48.5019 54.8079 48.7165 54.9264 48.9515 54.9532C49.1864 54.98 49.4224 54.9129 49.6076 54.7666C49.7929 54.6204 49.912 54.4069 49.9389 54.1732L50.0745 52.9985L51.2557 53.1333C51.4906 53.1601 51.7266 53.0929 51.9119 52.9467C52.097 52.8004 52.2162 52.587 52.2432 52.3532C52.2701 52.1196 52.2026 51.8849 52.0555 51.7007C51.9085 51.5165 51.6938 51.398 51.4589 51.3712Z" fill="#BF1C0E"/>
</g>
<defs>
<filter id="filter0_d_425_181" x="3.8783" y="76.8359" width="105.99" height="21.0576" filterUnits="userSpaceOnUse" color-interpolation-filters="sRGB">
<feFlood flood-opacity="0" result="BackgroundImageFix"/>
<feColorMatrix in="SourceAlpha" type="matrix" values="0 0 0 0 0 0 0 0 0 0 0 0 0 0 0 0 0 0 127 0" result="hardAlpha"/>
<feOffset/>
<feGaussianBlur stdDeviation="2"/>
<feComposite in2="hardAlpha" operator="out"/>
<feColorMatrix type="matrix" values="0 0 0 0 0.992157 0 0 0 0 0.772549 0 0 0 0 0 0 0 0 0.3 0"/>
<feBlend mode="normal" in2="BackgroundImageFix" result="effect1_dropShadow_425_181"/>
<feBlend mode="normal" in="SourceGraphic" in2="effect1_dropShadow_425_181" result="shape"/>
</filter>
<filter id="filter1_d_425_181" x="31.6878" y="10.4387" width="68.4831" height="75.4859" filterUnits="userSpaceOnUse" color-interpolation-filters="sRGB">
<feFlood flood-opacity="0" result="BackgroundImageFix"/>
<feColorMatrix in="SourceAlpha" type="matrix" values="0 0 0 0 0 0 0 0 0 0 0 0 0 0 0 0 0 0 127 0" result="hardAlpha"/>
<feOffset dy="4"/>
<feGaussianBlur stdDeviation="4.35"/>
<feComposite in2="hardAlpha" operator="out"/>
<feColorMatrix type="matrix" values="0 0 0 0 1 0 0 0 0 0.823529 0 0 0 0 0.345098 0 0 0 0.25 0"/>
<feBlend mode="normal" in2="BackgroundImageFix" result="effect1_dropShadow_425_181"/>
<feBlend mode="normal" in="SourceGraphic" in2="effect1_dropShadow_425_181" result="shape"/>
</filter>
<filter id="filter2_d_425_181" x="8.16038" y="0.585547" width="36.4476" height="85.1102" filterUnits="userSpaceOnUse" color-interpolation-filters="sRGB">
<feFlood flood-opacity="0" result="BackgroundImageFix"/>
<feColorMatrix in="SourceAlpha" type="matrix" values="0 0 0 0 0 0 0 0 0 0 0 0 0 0 0 0 0 0 127 0" result="hardAlpha"/>
<feOffset dy="3"/>
<feGaussianBlur stdDeviation="3.55"/>
<feComposite in2="hardAlpha" operator="out"/>
<feColorMatrix type="matrix" values="0 0 0 0 1 0 0 0 0 0.823529 0 0 0 0 0.345098 0 0 0 0.25 0"/>
<feBlend mode="normal" in2="BackgroundImageFix" result="effect1_dropShadow_425_181"/>
<feBlend mode="normal" in="SourceGraphic" in2="effect1_dropShadow_425_181" result="shape"/>
</filter>
<linearGradient id="paint0_linear_425_181" x1="64.5002" y1="15.6576" x2="66.0223" y2="68.3297" gradientUnits="userSpaceOnUse">
<stop stop-color="#C0000D"/>
<stop offset="1" stop-color="#690102"/>
</linearGradient>
<linearGradient id="paint1_linear_425_181" x1="64.5001" y1="15.6578" x2="66.0222" y2="68.3299" gradientUnits="userSpaceOnUse">
<stop stop-color="#C0000D"/>
<stop offset="1" stop-color="#690102"/>
</linearGradient>
<linearGradient id="paint2_linear_425_181" x1="64.5001" y1="15.6574" x2="66.0222" y2="68.3295" gradientUnits="userSpaceOnUse">
<stop stop-color="#C0000D"/>
<stop offset="1" stop-color="#690102"/>
</linearGradient>
<linearGradient id="paint3_linear_425_181" x1="57.246" y1="32.7367" x2="69.2055" y2="83.5515" gradientUnits="userSpaceOnUse">
<stop stop-color="#FFD258"/>
<stop offset="0.262119" stop-color="#FFA700"/>
</linearGradient>
<clipPath id="clip0_425_181">
<rect width="110" height="96" fill="white" transform="translate(0.792969 1.23828) rotate(-0.247649)"/>
</clipPath>
</defs>
</svg>
