<svg width="200" height="176" viewBox="0 0 200 176" fill="none" xmlns="http://www.w3.org/2000/svg">
<g clip-path="url(#clip0_1488_470)">
<g filter="url(#filter0_d_1488_470)">
<path d="M16.1269 169.313C16.0184 169.316 15.7475 169.324 15.4758 169.305L15.0375 169.156C14.8726 169.08 14.6774 168.896 14.6153 168.628L13.2325 166.781C13.0668 166.677 12.8445 166.495 12.8343 166.145C12.8249 165.821 14.2751 162.543 15.5706 159.538L18.471 152.981C18.5476 152.818 18.7247 152.38 18.9289 151.944C19.2871 151.205 19.3389 151.123 19.3907 151.04C19.4433 150.985 19.5478 150.847 19.7088 150.788C19.8157 150.731 19.9233 150.701 19.9775 150.699C20.0588 150.698 20.1392 150.668 22.5781 150.598C22.6865 150.595 22.8498 150.617 22.9869 150.666C23.3431 150.791 23.4864 151.056 23.4927 151.272L24.8468 153.067C25.1488 153.194 25.265 153.46 25.2706 153.649C25.2839 154.106 23.3726 158.316 23.2977 158.533C23.075 159.267 21.9032 161.863 21.8019 162.109L19.2604 167.954C19.1081 168.309 18.9293 168.693 18.5865 169.026L18.4286 169.193L18.2119 169.199C17.5073 169.219 16.8315 169.292 16.1269 169.313ZM13.3762 166.129C13.3841 166.398 13.9539 166.409 14.3333 166.398C15.0107 166.378 15.7408 166.303 16.4182 166.284C16.6813 166.007 16.8352 165.705 16.9877 165.35C17.42 164.367 19.6521 159.07 19.8889 158.82C20.0852 158.113 20.957 156.389 21.0003 156.01C21.076 155.82 22.9642 151.746 22.9508 151.288C22.8344 151.021 21.7259 151.134 21.4548 151.142C21.1839 151.15 20.1542 151.18 19.9398 151.267C19.6991 151.381 19.068 152.991 18.9659 153.21C18.4824 154.302 14.7166 162.8 14.6949 162.989C14.5665 163.236 13.37 165.913 13.3762 166.129ZM25.6195 168.931L22.8284 169.012L21.0506 166.635L21.0612 166.069L27.9174 152.87C28.2276 152.349 28.5122 151.882 28.7444 151.472C29.0012 150.978 29.0753 150.733 29.1425 150.246L29.6032 150.233C31.4187 150.181 33.2048 150.048 35.0203 149.995C35.1829 149.991 35.481 149.981 35.7528 150L35.9695 149.995C36.0245 150.021 36.1059 150.018 36.1601 150.016C36.2963 150.04 36.4605 150.089 36.5975 150.138L36.7896 150.214L37.4961 151.191L37.5479 151.109C37.5989 150.999 37.6492 150.863 37.7273 150.753C37.8054 150.642 37.855 150.479 37.9332 150.37C38.0895 150.149 38.2481 150.01 38.3829 149.979C38.4369 149.978 38.5717 149.946 38.7614 149.941L38.951 149.935C39.0586 149.905 39.1671 149.902 39.3026 149.899L40.9826 149.85C42.2283 149.786 43.5018 149.75 43.7458 149.743C43.9354 149.737 44.2064 149.729 44.4782 149.748C44.7491 149.74 45.0751 149.759 45.35 149.886L45.597 149.986L47.375 152.362L47.4974 152.844C47.5147 153.437 47.4229 154.006 47.3023 154.521C47.1817 155.038 47.0334 155.528 46.967 156.042C46.7679 157.585 46.2963 159.082 46.0151 160.601C45.6389 162.58 45.2356 164.561 44.8324 166.541L44.6369 167.276L44.4597 167.712C44.4095 167.848 44.3066 168.04 44.0937 168.181L43.6633 168.302L43.2847 168.34L40.0873 168.432L38.3093 166.056L38.2834 165.167L37.1038 167.493C36.9737 167.686 36.8158 167.853 36.7121 168.018L36.2417 168.624L31.3371 168.766L29.3648 166.234L29.4272 165.585L28.5028 167.364L27.9087 168.379L27.6982 168.601C27.5929 168.712 27.4853 168.742 27.404 168.744L27.1346 168.806L26.5672 168.877C26.1886 168.915 25.7821 168.926 25.6195 168.931ZM29.6189 150.771L21.604 166.08L23.4736 166.026C23.7447 166.018 25.3713 165.999 25.5825 165.804C26.0841 165.33 28.6111 159.917 29.1782 158.903C29.5641 158.191 30.0028 157.423 30.361 156.684C30.5404 156.327 30.8172 155.592 31.1075 155.314C31.1816 155.068 31.5645 154.248 31.8356 154.241C32.0794 154.234 32.1685 154.501 32.1741 154.689C32.1835 155.013 30.0685 164.324 29.99 165.352L30.3022 165.829L34.1771 165.717C34.2553 165.607 34.8333 164.97 34.8303 164.862L40.588 153.988C40.7505 153.984 40.8669 154.25 40.8707 154.385C40.8787 154.654 40.8331 154.951 39.6029 160.192C39.3139 161.442 38.8002 164.288 38.8356 165.501L40.353 165.457C40.624 165.449 41.8171 165.442 42.0307 165.328C42.2715 165.213 42.4607 164.264 42.5087 164.047C42.9127 162.093 43.3159 160.113 43.6922 158.132C43.9732 156.614 44.4177 155.118 44.6439 153.575C44.7782 152.599 45.206 151.454 45.1776 150.484L45.1474 150.376C44.8725 150.249 44.0596 150.273 43.7614 150.282C42.0272 150.332 40.2945 150.436 38.5603 150.486C38.3737 150.6 37.9894 151.366 37.9143 151.584C36.8634 152.747 36.5352 154.51 35.5122 155.699C35.6613 155.236 36.4115 151.196 36.4003 150.818C36.3987 150.765 36.3965 150.684 36.3678 150.63C36.1471 150.501 35.2529 150.528 35.0361 150.534C33.2205 150.587 31.4345 150.719 29.6189 150.771ZM49.7267 168.234L46.9357 168.314L45.1578 165.939L45.1684 165.373L52.0246 152.174C52.3348 151.653 52.6196 151.186 52.8516 150.774C53.1085 150.281 53.1827 150.037 53.2498 149.55L53.7105 149.536C55.526 149.483 57.3121 149.35 59.1276 149.298C59.2901 149.293 59.5883 149.285 59.86 149.304L60.0768 149.298C60.1317 149.323 60.213 149.322 60.2672 149.32C60.4036 149.342 60.5676 149.392 60.7048 149.442L60.8968 149.517L61.6032 150.495L61.6551 150.413C61.7062 150.303 61.7565 150.167 61.8346 150.056C61.9128 149.947 61.9622 149.783 62.0403 149.672C62.1966 149.452 62.3553 149.314 62.49 149.282C62.5442 149.281 62.679 149.25 62.8686 149.244L63.0583 149.239C63.1659 149.209 63.2742 149.206 63.4098 149.201L65.0898 149.154C66.3356 149.09 67.6091 149.054 67.853 149.046C68.0427 149.041 68.3136 149.033 68.5853 149.052C68.8564 149.044 69.1823 149.062 69.4572 149.189L69.7042 149.29L71.4821 151.666L71.6047 152.148C71.6219 152.741 71.53 153.31 71.4096 153.825C71.289 154.341 71.1405 154.831 71.0742 155.346C70.8751 156.889 70.4035 158.386 70.1223 159.904C69.7462 161.884 69.3429 163.865 68.9396 165.846L68.744 166.578L68.567 167.016C68.5166 167.152 68.4138 167.344 68.2009 167.485L67.7705 167.604L67.392 167.642L64.1944 167.736L62.4165 165.359L62.3906 164.471L61.2109 166.797C61.081 166.989 60.9231 167.155 60.8195 167.32L60.349 167.928L55.4444 168.069L53.4721 165.536L53.5345 164.888L52.61 166.667L52.0158 167.683L51.8053 167.904C51.7001 168.015 51.5926 168.045 51.5113 168.048L51.2418 168.11L50.6743 168.18C50.2958 168.218 49.8893 168.229 49.7267 168.234ZM53.7262 150.075L45.7112 165.384L47.5809 165.33C47.8518 165.322 49.4784 165.301 49.6897 165.106C50.1912 164.634 52.7183 159.22 53.2853 158.207C53.6714 157.493 54.11 156.726 54.4681 155.987C54.6476 155.631 54.9244 154.896 55.2146 154.617C55.2889 154.372 55.6718 153.552 55.9428 153.545C56.1866 153.537 56.2758 153.805 56.2812 153.993C56.2906 154.317 54.1757 163.629 54.0972 164.656L54.4094 165.132L58.2844 165.021C58.3626 164.91 58.9406 164.272 58.9374 164.165L64.6952 153.291C64.8578 153.286 64.9741 153.553 64.978 153.687C64.9858 153.957 64.9404 154.255 63.71 159.496C63.421 160.746 62.9074 163.592 62.9427 164.805L64.4603 164.761C64.7312 164.753 65.9244 164.745 66.1379 164.631C66.3787 164.517 66.568 163.567 66.6158 163.35C67.0199 161.396 67.4232 159.415 67.7994 157.436C68.0805 155.917 68.525 154.422 68.7512 152.877C68.8855 151.902 69.3131 150.757 69.2848 149.787L69.2545 149.68C68.9796 149.553 68.1667 149.577 67.8687 149.585C66.1345 149.636 64.4018 149.739 62.6676 149.79C62.481 149.902 62.0966 150.67 62.0216 150.887C60.9707 152.051 60.6423 153.813 59.6194 155.002C59.7686 154.539 60.5186 150.498 60.5076 150.121C60.506 150.067 60.5037 149.988 60.475 149.934C60.2543 149.805 59.3601 149.831 59.1434 149.837C57.3278 149.889 55.5416 150.023 53.7262 150.075ZM80.079 167.573L71.7601 167.814L71.1212 167.292L69.3433 164.916L69.4151 164.591C69.4368 164.401 69.5125 164.211 69.5891 164.046C69.6664 163.909 69.7438 163.772 69.8204 163.608L71.0036 160.472C71.207 160.008 71.4383 159.569 71.5867 159.079C71.8875 158.235 72.2154 157.389 73.1567 155.259C73.1807 155.15 73.2038 155.015 73.2542 154.878C73.3547 154.606 73.5357 154.303 74.7172 151.114L74.8713 150.813L74.9215 150.676L75.0738 150.321C75.2486 149.804 75.6696 149.36 75.9869 149.081L76.1456 148.941L76.3623 148.935C77.9363 148.971 79.508 148.926 81.1067 148.88L83.4642 148.811C83.5726 148.808 83.9249 148.797 84.2516 148.842C84.4142 148.837 84.6325 148.886 84.7968 148.935C84.9066 148.986 85.3178 149.135 85.3312 149.593L86.6296 151.336C86.7946 151.412 87.0982 151.591 87.1091 151.969C87.1257 152.535 85.9738 154.888 85.7131 155.246L85.5568 155.467L82.6031 155.552L82.7729 155.79L84.1277 157.611C84.5118 157.762 84.5499 158.139 84.553 158.247L84.5082 158.572L84.4085 158.871L84.1333 159.661C83.9322 160.207 83.7049 160.779 83.629 160.97L83.554 161.188L83.3722 161.463C83.2423 161.656 83.0055 161.905 82.599 161.918L80.4582 161.98L81.8131 163.8L81.9589 164.147C81.9652 164.363 81.8925 164.661 81.8167 164.853L81.2807 166.001L81.1028 166.41L80.98 166.846L80.8259 167.146C80.7741 167.229 80.6433 167.395 80.4282 167.455L80.079 167.573ZM69.9339 164.71L70.1562 164.893L77.9602 164.667C78.177 164.661 78.4751 164.653 78.4727 164.572C78.6353 164.567 78.7822 164.024 78.8053 163.887C78.9522 163.343 79.6277 162.327 79.6407 161.84L79.5833 161.734C79.3618 161.579 75.2701 161.697 76.1914 161.67C75.8392 161.681 75.3235 161.669 75.3187 161.507C75.3039 160.995 75.9675 159.574 76.28 159.133C77.3369 159.103 78.4215 159.098 79.4784 159.068C79.9119 159.055 80.3718 159.014 80.8054 159.002C81.1034 158.994 81.2558 158.638 81.3571 158.393C81.508 157.984 82.2411 156.155 82.2333 155.886C82.2317 155.832 82.2022 155.752 82.1472 155.727C81.7136 155.74 77.6203 155.803 77.5104 155.752C77.5041 155.537 78.7006 152.86 78.9103 152.611C79.6699 152.616 80.4302 152.647 81.1889 152.625L83.4922 152.559C83.7529 152.202 84.7994 149.959 84.7892 149.609C84.7806 149.313 83.6696 149.344 83.48 149.35L81.0953 149.419C79.5237 149.465 77.952 149.509 76.3509 149.476C76.1923 149.615 75.5871 150.253 75.5943 150.495C75.441 150.824 72.5052 158.028 72.1071 159.254C71.7831 160.234 70.0529 164.141 69.9339 164.71ZM101.115 158.011C100.171 160.034 99.045 161.415 98.7 161.667L98.7612 161.909L99.5875 164.205C99.8526 164.925 100.176 165.778 100.192 166.344C100.198 166.533 100.124 166.778 99.9386 166.945C99.9131 167 99.7528 167.086 99.4827 167.121L99.1042 167.158L98.0489 167.243C97.2639 167.292 96.4239 167.316 96.2341 167.322L96.0444 167.327L95.7711 167.254C95.5528 167.207 95.3855 167.05 95.2971 166.81C95.2692 166.783 95.2684 166.756 95.2414 166.758L93.5193 164.433C93.2667 164.144 92.762 162.649 92.6418 162.248L91.314 162.286L91.0101 163.023L90.3505 164.579C90.123 165.151 89.894 165.671 89.6891 166.082L89.3533 166.658C89.2751 166.767 89.0918 166.989 88.8503 167.076L88.5809 167.138L85.5731 167.225C85.4367 167.202 85.2456 167.154 85.1068 167.05C84.942 166.973 84.7747 166.816 84.7404 166.575L83.302 164.675C83.1361 164.572 82.9402 164.362 82.9308 164.038C82.9252 163.849 82.974 163.659 83.0506 163.496C83.1008 163.359 83.1511 163.223 83.2555 163.085L83.5626 162.455C83.8897 161.583 85.1518 158.364 86.4721 155.278C87.6886 152.357 89.0887 149.214 89.5924 148.823C89.645 148.767 89.7519 148.71 89.9137 148.678C89.9679 148.677 90.0492 148.675 90.1298 148.645C90.2923 148.64 90.4812 148.608 90.725 148.601C91.212 148.561 91.8082 148.543 92.4585 148.524L95.358 148.44C95.5477 148.436 96.3072 148.44 97.0109 148.393L98.0119 148.31L98.2829 148.302L99.2105 148.491L100.324 149.484L102.102 151.86C102.439 152.254 102.642 152.708 102.662 153.38C102.676 153.866 101.959 156.26 101.115 158.011ZM96.637 158.815C97.9394 157.914 98.4947 156.495 98.9775 155.375C99.491 154.389 100.374 152.126 100.342 151.021C100.313 150.023 99.6748 149.53 98.9536 148.984L98.6494 148.777C98.2429 148.789 97.3208 148.788 96.2369 148.82C93.7168 148.892 90.277 149.046 89.9303 149.244C89.3435 149.585 84.5794 161.05 84.0829 162.63C83.9585 163.01 83.4618 163.645 83.4728 164.022C83.4869 164.507 84.8913 164.306 85.2164 164.296C85.4332 164.29 86.7339 164.252 86.8948 164.193C87.4585 163.989 88.7296 160.148 89.1952 159.381L90.3334 159.347C90.6585 159.338 92.0916 159.189 92.3186 159.533L93.9999 164.178C94.0326 164.365 94.1967 164.414 94.3593 164.409C94.6844 164.4 97.7177 164.259 97.7967 164.175C97.8493 164.119 97.8748 164.065 97.8724 163.984C97.8599 163.553 97.1832 161.739 97.0646 161.391C96.8878 160.911 96.6864 160.512 96.5631 160.004C96.5607 159.923 96.5313 159.842 96.5018 159.763C96.4158 159.603 96.3027 159.444 96.2972 159.256C96.2901 159.013 96.4775 158.927 96.637 158.815ZM94.6433 151.832C95.4562 151.809 96.0547 151.872 96.0713 152.438C96.0877 153.004 95.5278 154.262 95.2988 154.78C94.9678 155.518 94.9159 155.6 94.1348 155.784C93.3537 155.97 92.54 155.966 91.7271 155.989C91.2664 156.003 90.6694 155.993 90.6608 155.697C90.6592 155.643 92.0266 152.313 92.179 151.958C92.4771 151.95 92.8006 151.886 93.0988 151.877C93.6414 151.888 94.1826 151.845 94.6433 151.832ZM109.641 166.907C108.503 166.94 107.308 166.894 106.162 166.631C105.807 166.56 104.848 166.209 103.996 165.83C103.556 165.627 103.116 165.424 102.812 165.217L102.368 164.879C102.284 164.801 102.2 164.695 102.115 164.563L100.59 162.503C100.478 162.399 100.283 162.188 100.274 161.891C100.27 161.758 100.319 161.594 100.343 161.485C100.367 161.377 101.625 158.94 101.73 158.829C101.809 158.746 101.994 158.578 102.265 158.571C102.455 158.566 102.62 158.642 102.703 158.693C102.814 158.77 102.896 158.823 102.98 158.9L103.204 159.137L103.233 159.19C103.96 159.952 105.706 160.305 106.925 160.27C107.142 160.264 107.792 160.218 108.37 159.581C107.649 159.035 106.923 158.328 105.541 157.451L103.916 155.664C103.58 155.296 103.377 154.844 103.255 154.389C103.192 154.094 103.184 153.797 103.176 153.528L103.151 152.665C103.146 152.503 103.141 152.315 103.164 152.18L103.157 151.964C103.182 151.882 103.18 151.801 103.205 151.747C103.205 151.72 103.508 150.983 103.532 150.848C103.758 150.247 104.365 149.663 104.923 149.27C105.188 149.073 105.428 148.932 105.615 148.818C106.577 148.333 108.416 148.144 109.337 148.117C111.017 148.069 113.562 148.858 114.769 150.226L115.022 150.542L116.8 152.919L116.592 153.249L115.26 155.93L114.921 156.398L113.871 155.727L113.069 155.183C112.518 154.876 112.079 154.727 111.212 154.752C110.724 154.766 110.347 154.858 110.109 155.053L111.216 155.803C111.629 156.035 112.044 156.319 112.434 156.658C112.657 156.868 112.88 157.077 113.078 157.342L114.855 159.717C115.278 160.272 115.543 160.965 115.568 161.828C115.591 162.61 115.34 163.317 115.032 163.92C114.621 164.687 114.095 165.269 113.485 165.718C112.396 166.531 111.05 166.867 109.641 166.907ZM100.816 161.877C100.832 162.415 103.958 163.62 104.504 163.739C105.542 163.978 106.791 164.023 107.848 163.992C109.907 163.934 111.784 163.204 112.759 161.289C113.041 160.741 113.267 160.114 113.248 159.467C113.245 159.359 113.216 159.279 113.212 159.172C112.964 157.156 111.317 156.503 109.717 155.551C109.192 155.242 107.453 154.186 107.432 153.485C107.397 152.273 108.389 151.867 109.418 151.837C111.478 151.777 112.605 153.228 113.039 153.242C113.144 153.105 114.241 150.754 114.345 150.589C113.306 149.378 110.924 148.61 109.353 148.656C108.459 148.682 106.647 148.869 105.873 149.297C105.286 149.609 104.278 150.394 104.053 151.048C103.952 151.32 103.88 151.647 103.725 151.894C103.682 152.272 103.693 152.649 103.704 153.027L103.722 153.647C103.798 156.262 108.844 158.192 108.884 159.539C108.903 160.213 107.429 160.795 106.887 160.811C105.586 160.848 103.31 159.998 102.361 159.054C101.805 159.528 100.803 161.418 100.816 161.877ZM118.723 166.295C118.615 166.298 118.317 166.306 118.017 166.262L117.526 166.167C117.417 166.143 117.006 165.994 116.992 165.535L115.666 163.767L115.215 163.16C115.213 163.106 115.21 162.998 115.261 162.889L115.336 162.67C115.413 162.533 115.489 162.342 115.591 162.123C115.795 161.687 116.078 161.138 116.36 160.591C116.924 159.468 117.515 158.346 117.671 158.098C117.748 157.962 117.851 157.77 117.982 157.605L118.188 157.248C118.316 157.001 118.39 156.73 118.519 156.509C118.851 155.799 119.264 155.085 119.651 154.4L119.963 153.959L120.17 153.603C120.683 152.591 121.115 151.581 121.682 150.593C121.863 150.264 122.096 149.906 122.304 149.576C122.382 149.494 122.461 149.41 122.512 149.3L122.669 149.081C122.799 148.888 122.875 148.698 123.004 148.477C123.106 148.259 123.262 148.038 123.445 147.791L123.603 147.624L130.919 147.413L132.697 149.789L132.713 150.328C132.724 150.732 132.711 151.191 132.668 151.597C132.646 151.76 132.596 151.923 132.573 152.058L132.473 152.358L132.096 154.283L131.831 155.425L131.735 155.858L131.685 155.994C131.665 156.265 131.617 156.482 131.569 156.7C131.495 156.944 131.447 157.161 131.399 157.378C131.351 157.569 131.357 157.784 131.335 157.973L131.187 158.463L130.969 159.359C130.898 159.713 130.67 161.175 130.384 162.559C130.242 163.265 130.1 163.97 129.952 164.487L129.755 165.166L129.628 165.44C129.524 165.605 129.419 165.716 129.338 165.745C129.205 165.83 129.043 165.835 128.935 165.864L128.556 165.902L125.386 165.994L123.608 163.618L123.594 163.133L123.378 163.166L123.171 163.496L122.915 164.043C122.71 164.426 122.556 164.754 122.428 165.001C122.273 165.275 122.118 165.523 121.906 165.718C121.43 166.135 120.782 166.208 119.888 166.233C119.508 166.244 119.103 166.284 118.723 166.295ZM116.93 163.379C119.91 163.293 119.538 163.547 120.642 161.411C120.796 161.11 121 160.672 121.209 160.397C121.34 160.231 121.908 160.188 122.477 160.171C122.965 160.158 123.48 160.169 123.616 160.166C123.887 160.158 124.187 160.203 124.458 160.222C124.237 161.011 124.11 162.228 124.134 163.063L125.625 163.02C125.896 163.013 127.062 163.006 127.302 162.891C127.784 162.661 128.555 156.571 129.013 155.505C128.993 154.832 129.353 154.174 129.361 153.499C129.519 153.36 130.096 149.89 130.346 149.156C130.334 148.752 130.404 148.371 130.393 147.967L123.862 148.157C123.731 148.295 123.16 149.202 123.138 149.364C122.119 150.688 121.38 152.328 120.665 153.832C120.537 154.105 120.275 154.41 120.12 154.684C119.786 155.314 118.88 156.796 118.683 157.476C118.288 157.892 115.749 162.901 115.756 163.144C115.763 163.36 116.388 163.395 116.93 163.379ZM122.741 157.143C122.74 157.116 124.205 154.322 124.436 153.885C124.564 153.611 125.538 151.695 125.891 151.685C126.107 151.679 126.06 151.923 126.064 152.058C126.077 152.488 125.891 153.545 125.712 153.929C125.719 154.172 125.59 154.391 125.542 154.608C125.425 155.231 125.472 155.932 125.191 156.533C125.194 156.614 125.149 156.939 125.041 156.969C124.935 157.053 123.068 157.188 122.77 157.196C122.742 157.17 122.742 157.17 122.741 157.143ZM139.523 159.383L140.158 159.768L141.963 162.144L141.944 162.386C141.929 162.819 141.703 163.446 141.502 163.991C141.301 164.564 141.047 165.138 140.894 165.464L140.767 165.766L133.692 165.889C133.503 165.894 133.069 165.907 132.635 165.892L131.982 165.831L131.682 165.758C131.599 165.707 131.434 165.631 131.321 165.499L129.544 163.123L129.581 162.556C129.634 162.5 129.805 161.847 129.857 161.765L130.628 160.314C130.904 159.551 132.879 154.746 133.564 153.108C133.892 152.263 134.192 151.391 134.574 150.544C135.459 148.36 135.713 147.759 136.219 147.448C136.273 147.42 136.352 147.364 136.514 147.332C136.595 147.329 136.676 147.301 136.785 147.298L139.031 147.179C139.167 147.174 139.358 147.196 139.524 147.299L139.918 147.8L141.302 149.675C141.549 149.803 141.691 150.014 141.699 150.311C141.708 150.607 141.609 150.934 141.535 151.151L141.255 151.808C140.243 154.318 139.177 156.803 138.165 159.313C138.355 159.308 139.252 159.364 139.523 159.383ZM131.899 162.974L138.621 162.86C138.876 162.286 139.613 160.593 139.622 160C139.483 159.868 138.804 159.835 138.072 159.855C137.232 159.879 136.341 159.96 135.933 159.971C135.798 159.976 134.66 160.008 134.653 159.765C134.645 159.497 135.008 158.92 135.137 158.699C135.396 158.287 135.64 157.337 135.842 156.846C136.853 154.308 137.945 151.768 138.983 149.229C139.109 148.902 139.39 148.328 139.379 147.951C139.377 147.897 139.346 147.735 139.266 147.738L138.425 147.762C137.639 147.785 136.609 147.815 136.504 147.899C136.184 148.097 135.953 148.562 135.855 148.915L135.068 150.772C134.686 151.619 134.413 152.464 134.058 153.309C133.4 154.947 130.075 162.757 129.968 162.787C130.11 163.025 131.628 162.982 131.899 162.974ZM135.348 159.422L135.503 159.148C135.451 159.231 135.399 159.313 135.348 159.422ZM147.159 165.499L146.834 165.509C146.156 165.529 145.45 165.522 144.774 165.542L144.42 165.525C144.283 165.475 143.872 165.325 143.859 164.867L142.532 163.098L142.081 162.491C142.079 162.437 142.076 162.356 142.127 162.22C142.126 162.166 142.15 162.085 144.508 156.46C144.561 156.378 144.69 156.158 144.792 155.94L144.92 155.693L144.92 155.666L144.893 155.667L144.744 155.239L144.162 153.907C143.545 152.28 141.905 148.094 141.819 147.934L141.388 147.137L142.284 147.139L143.123 147.114C143.936 147.09 144.777 147.039 145.614 146.962L145.993 146.923L147.771 149.299L147.916 149.646C148.06 149.911 148.178 150.205 148.321 150.498C148.637 150.165 149.032 149.775 149.428 149.386C150.402 148.387 151.429 147.306 151.692 147.028L151.876 146.835L152.147 146.854C152.201 146.852 152.23 146.878 152.257 146.878L152.447 146.898L152.665 146.919L154.615 146.863C154.94 146.854 155.266 146.817 155.564 146.808C155.753 146.803 155.943 146.798 156.133 146.819L156.787 146.908L158.565 149.285L158.365 149.91L158.211 150.184C154.988 154.053 155.956 152.839 151.286 158.233L150.658 159.007L150.502 159.227L150.453 159.416L150.299 159.718L149.142 162.826C148.915 163.427 148.714 163.972 148.483 164.41L148.175 165.012C148.07 165.123 147.887 165.371 147.592 165.46L147.159 165.499ZM142.623 162.475C142.628 162.637 142.899 162.629 142.98 162.627C143.657 162.607 144.363 162.613 145.04 162.594C145.257 162.588 145.474 162.581 145.689 162.548C146.358 162.206 147.718 157.716 148.099 156.842C148.176 156.678 155.999 147.794 156.068 147.36C155.903 147.338 155.742 147.342 155.58 147.347C155.281 147.356 154.929 147.393 154.631 147.402L152.681 147.458C152.491 147.464 152.273 147.417 152.081 147.395C151.818 147.672 148.004 151.72 147.679 151.73C147.435 151.736 147.288 151.337 147.202 151.15C146.704 149.924 146.234 148.696 145.657 147.499C144.818 147.577 143.979 147.629 143.139 147.653L142.3 147.677C142.93 148.819 145.484 155.515 145.491 155.731C145.494 155.812 145.079 156.524 145.003 156.689C144.701 157.48 142.61 162.071 142.623 162.475ZM158.882 165.242L156.577 165.282L156.142 165.214C155.758 165.09 155.614 164.824 155.608 164.581L154.28 162.786L153.83 162.206C153.829 162.152 153.825 162.044 153.875 161.908C153.901 161.852 153.924 161.744 153.948 161.635C154.025 161.445 154.125 161.172 154.224 160.845C154.451 160.246 154.754 159.454 155.082 158.663C155.687 157.081 156.372 155.442 159.489 147.962C159.691 147.444 159.844 147.117 160.11 146.92C160.375 146.724 160.726 146.659 161.322 146.643L164.303 146.556L166.08 148.931L166.201 149.333C166.353 148.979 166.503 148.543 166.709 148.132C166.86 147.75 167.039 147.395 167.194 147.12C167.272 146.982 167.375 146.845 167.481 146.734C167.56 146.651 167.744 146.456 168.042 146.448C168.855 146.424 169.694 146.373 170.507 146.35C170.588 146.348 170.778 146.342 170.942 146.364C171.024 146.389 171.161 146.412 171.298 146.489L171.636 146.938L173.076 148.865C173.214 148.942 173.409 149.125 173.417 149.421C173.418 149.448 173.395 149.583 173.347 149.774L173.219 150.048L173.04 150.457L171.353 154.902L168.801 161.315L168.473 162.16L168.251 162.894L167.843 163.769L167.586 164.29L167.43 164.51L167.138 164.734C167.006 164.818 166.789 164.851 166.655 164.883L163.782 164.965C163.455 164.921 163.099 164.797 162.873 164.453L161.207 162.207L161.179 162.182C160.62 163.492 160.164 164.584 160.06 164.749C159.878 165.024 159.61 165.113 159.448 165.144C159.26 165.204 159.044 165.238 158.882 165.242ZM154.372 162.19C154.38 162.486 156.004 162.331 156.193 162.326C156.302 162.323 156.6 162.341 156.898 162.333C157.305 162.32 157.737 162.255 157.813 162.09C158.118 161.38 160.759 155.208 160.775 154.83L160.828 154.802C161.017 154.797 161.095 155.603 161.116 156.331C161.133 156.897 161.121 157.409 161.122 157.463C161.146 158.272 161.278 159.077 161.355 159.857C161.583 162.089 161.042 162.131 163.372 162.065C163.67 162.055 164.917 162.02 165.129 161.879C165.346 161.846 165.796 160.565 165.952 160.317C166 160.1 166.155 159.853 166.175 159.637C166.783 158.11 167.333 156.556 168.022 155.052C168.036 154.594 170.199 149.731 170.193 149.488C170.268 149.296 170.749 148.123 170.743 147.934C170.795 147.852 171.098 147.089 171.097 147.062C171.094 146.9 170.74 146.883 170.523 146.889C169.71 146.913 168.871 146.963 168.058 146.987C167.732 146.997 167.075 148.606 166.973 148.825C166.795 149.209 166.726 149.696 166.492 150.026C166.369 150.435 165.131 153.598 164.9 154.01C164.873 154.038 164.822 154.12 164.768 154.122C164.686 154.123 164.655 153.99 164.626 153.911C164.42 153.349 164.32 151.76 164.301 151.115L164.264 149.875C164.237 148.931 164.181 147.989 163.912 147.106L160.632 147.174C159.911 148.463 154.36 161.785 154.372 162.19ZM183.272 156.149L188.288 164.474L182.644 164.393L180.865 161.99L179.807 160.106C179.413 160.522 178.913 161.075 178.414 161.63C177.443 162.737 176.42 163.926 176.105 164.313L175.949 164.505L172.263 164.613L171.883 164.597C171.585 164.578 171.417 164.448 171.333 164.342L170.939 163.869L169.161 161.492L169.694 161.153C169.855 161.067 171.246 159.491 172.845 157.61C174.235 155.979 175.677 154.291 176.334 153.544C175.915 152.208 173.708 148.145 172.941 146.927L172.484 146.131L177.117 145.998L179.455 149.921C179.798 149.561 182.765 146.266 183.028 145.988L183.159 145.822L188.552 145.667L190.33 148.042L189.435 148.986C187.939 150.674 183.975 155.184 183.272 156.149ZM169.979 161.63C170.008 161.684 170.089 161.681 170.116 161.681C170.416 161.699 170.713 161.691 171.011 161.682L173.911 161.599C174.095 161.377 178.027 156.732 178.456 156.558L181.176 161.469L185.544 161.532L180.869 153.765C180.966 153.357 186.425 147.13 187.267 146.244L183.419 146.355C183.314 146.466 179.483 150.891 179.294 150.896L176.808 146.545L173.421 146.643C173.935 147.518 176.824 152.694 176.935 153.689C176.041 154.659 170.274 161.514 169.979 161.63Z" fill="#8F010A"/>
</g>
<g filter="url(#filter1_d_1488_470)">
<path d="M132.051 117.121L120.566 101.936L123.989 95.8688L143.962 122.267L132.051 117.121Z" fill="url(#paint0_linear_1488_470)"/>
<path d="M103.456 42.0339L82.2078 45.9899L72.1936 40.0726L92.4823 36.1443L103.456 42.0339Z" fill="url(#paint1_linear_1488_470)"/>
<path d="M139.779 36.4485L122.915 67.2534L114.166 55.3314L128.326 30.5727L147.896 26.6652L159.101 32.3094L139.779 36.4485Z" fill="url(#paint2_linear_1488_470)"/>
<path d="M83.9927 131.878L72.8071 126.95L100.662 77.9233L71.7206 40.3256L82.2006 45.752L103.216 42.0414L123.154 67.2471L139.54 36.4561L159.115 32.7872L133.822 79.1135L164.251 118.339L143.716 122.036L123.989 95.8694L105.741 128.624L84.7097 131.771L83.9927 131.878Z" fill="url(#paint3_linear_1488_470)"/>
</g>
<g filter="url(#filter2_d_1488_470)">
<path d="M43.071 136.164C52.2107 135.9 59.4796 130.88 59.3067 124.952C59.1338 119.024 51.5845 114.433 42.4448 114.697C33.3052 114.961 26.0362 119.981 26.2091 125.909C26.382 131.836 33.9313 136.428 43.071 136.164Z" fill="#060302"/>
<path d="M46.6686 136.06C57.7951 135.738 66.6748 130.672 66.5019 124.744C66.329 118.816 57.169 114.272 46.0424 114.593C34.9159 114.915 26.0362 119.981 26.2091 125.909C26.382 131.836 35.542 136.381 46.6686 136.06Z" fill="#181310"/>
<path d="M63.9459 124.419C49.1494 134.259 35.1895 129.884 28.4335 125.438C27.3509 124.725 27.0893 123.312 27.616 122.132C32.0698 112.15 37.6077 87.0651 30.8377 50.4625C30.6079 49.2194 32.1894 48.1749 33.3468 48.6968C38.3654 50.9607 47.0475 52.3242 57.5537 47.2215C58.5722 46.7269 59.7843 47.568 59.6279 48.6844C54.239 87.1584 60.1966 111.416 64.7907 120.833C65.4033 122.089 65.1125 123.643 63.9459 124.419Z" fill="#890008"/>
<path d="M45.3711 53.1404C53.4656 52.9065 59.9551 50.2344 59.8658 47.172C59.7765 44.1095 53.1421 41.8166 45.0476 42.0505C36.953 42.2844 30.4635 44.9566 30.5529 48.019C30.6422 51.0814 37.2765 53.3743 45.3711 53.1404Z" fill="#FFBC2B"/>
<path d="M41.7311 50.6845C46.5441 50.5454 50.4012 48.9049 50.3463 47.0204C50.2913 45.1358 46.345 43.7208 41.5321 43.8599C36.7191 43.999 32.8619 45.6394 32.9169 47.524C32.9719 49.4086 36.9181 50.8235 41.7311 50.6845Z" fill="#FFD258"/>
<path d="M56.7673 125.906L32.6599 113.684C31.7427 113.219 30.5499 113.911 30.1677 114.862C29.4949 116.536 28.1497 118.666 26.6086 123.153C26.7744 128.835 45.5644 133.217 56.7949 128.102C57.7495 127.667 57.7028 126.38 56.7673 125.906Z" fill="#710007"/>
<path d="M45.1173 99.3411C46.7068 99.2952 47.9611 98.0833 47.9188 96.6343C47.8765 95.1852 46.5537 94.0478 44.9642 94.0937C43.3747 94.1396 42.1204 95.3516 42.1627 96.8006C42.205 98.2496 43.5278 99.3871 45.1173 99.3411Z" fill="#FFA700"/>
<path d="M45.3282 70.2177L43.9667 70.257C43.2184 70.2786 42.6294 70.8994 42.6511 71.6436L42.9706 82.5979C42.9923 83.342 43.6165 83.9278 44.3648 83.9061L45.7263 83.8668C46.4746 83.8452 47.0636 83.2244 47.0419 82.4802L46.7224 71.5259C46.7007 70.7818 46.0765 70.196 45.3282 70.2177Z" fill="#D9D9D9"/>
<path d="M37.89 76.0498L37.9358 77.6203C37.9575 78.3645 38.5817 78.9502 39.33 78.9286L49.6482 78.6305C50.3965 78.6088 50.9855 77.9881 50.9638 77.2439L50.918 75.6734C50.8963 74.9292 50.2721 74.3435 49.5238 74.3651L39.2056 74.6633C38.4573 74.6849 37.8683 75.3057 37.89 76.0498Z" fill="#D9D9D9"/>
<path d="M43.8438 39.2202C52.5861 38.9676 59.4675 31.7147 59.2139 23.0205C58.9603 14.3264 51.6677 7.4831 42.9255 7.73571C34.1832 7.98833 27.3018 15.2412 27.5554 23.9353C27.809 32.6295 35.1015 39.4728 43.8438 39.2202Z" fill="#890008"/>
<path d="M52.0169 25.4714C55.2217 24.2054 56.5816 20.0787 55.0542 16.2541C53.5269 12.4294 49.6906 10.3552 46.4858 11.6212C43.2809 12.8872 41.921 17.0139 43.4484 20.8385C44.9758 24.6632 48.812 26.7374 52.0169 25.4714Z" fill="#710007"/>
</g>
</g>
<defs>
<filter id="filter0_d_1488_470" x="5.58876" y="138.421" width="191.986" height="38.1418" filterUnits="userSpaceOnUse" color-interpolation-filters="sRGB">
<feFlood flood-opacity="0" result="BackgroundImageFix"/>
<feColorMatrix in="SourceAlpha" type="matrix" values="0 0 0 0 0 0 0 0 0 0 0 0 0 0 0 0 0 0 127 0" result="hardAlpha"/>
<feOffset/>
<feGaussianBlur stdDeviation="3.62273"/>
<feComposite in2="hardAlpha" operator="out"/>
<feColorMatrix type="matrix" values="0 0 0 0 0.992157 0 0 0 0 0.772549 0 0 0 0 0 0 0 0 0.3 0"/>
<feBlend mode="normal" in2="BackgroundImageFix" result="effect1_dropShadow_1488_470"/>
<feBlend mode="normal" in="SourceGraphic" in2="effect1_dropShadow_1488_470" result="shape"/>
</filter>
<filter id="filter1_d_1488_470" x="55.9618" y="18.1517" width="124.048" height="136.731" filterUnits="userSpaceOnUse" color-interpolation-filters="sRGB">
<feFlood flood-opacity="0" result="BackgroundImageFix"/>
<feColorMatrix in="SourceAlpha" type="matrix" values="0 0 0 0 0 0 0 0 0 0 0 0 0 0 0 0 0 0 127 0" result="hardAlpha"/>
<feOffset dy="7.24546"/>
<feGaussianBlur stdDeviation="7.87944"/>
<feComposite in2="hardAlpha" operator="out"/>
<feColorMatrix type="matrix" values="0 0 0 0 1 0 0 0 0 0.823529 0 0 0 0 0.345098 0 0 0 0.25 0"/>
<feBlend mode="normal" in2="BackgroundImageFix" result="effect1_dropShadow_1488_470"/>
<feBlend mode="normal" in="SourceGraphic" in2="effect1_dropShadow_1488_470" result="shape"/>
</filter>
<filter id="filter2_d_1488_470" x="13.3454" y="0.302281" width="66.0197" height="154.167" filterUnits="userSpaceOnUse" color-interpolation-filters="sRGB">
<feFlood flood-opacity="0" result="BackgroundImageFix"/>
<feColorMatrix in="SourceAlpha" type="matrix" values="0 0 0 0 0 0 0 0 0 0 0 0 0 0 0 0 0 0 127 0" result="hardAlpha"/>
<feOffset dy="5.4341"/>
<feGaussianBlur stdDeviation="6.43035"/>
<feComposite in2="hardAlpha" operator="out"/>
<feColorMatrix type="matrix" values="0 0 0 0 1 0 0 0 0 0.823529 0 0 0 0 0.345098 0 0 0 0.25 0"/>
<feBlend mode="normal" in2="BackgroundImageFix" result="effect1_dropShadow_1488_470"/>
<feBlend mode="normal" in="SourceGraphic" in2="effect1_dropShadow_1488_470" result="shape"/>
</filter>
<linearGradient id="paint0_linear_1488_470" x1="115.397" y1="27.6043" x2="118.154" y2="123.013" gradientUnits="userSpaceOnUse">
<stop stop-color="#C0000D"/>
<stop offset="1" stop-color="#690102"/>
</linearGradient>
<linearGradient id="paint1_linear_1488_470" x1="115.397" y1="27.6043" x2="118.154" y2="123.013" gradientUnits="userSpaceOnUse">
<stop stop-color="#C0000D"/>
<stop offset="1" stop-color="#690102"/>
</linearGradient>
<linearGradient id="paint2_linear_1488_470" x1="115.397" y1="27.6042" x2="118.154" y2="123.013" gradientUnits="userSpaceOnUse">
<stop stop-color="#C0000D"/>
<stop offset="1" stop-color="#690102"/>
</linearGradient>
<linearGradient id="paint3_linear_1488_470" x1="102.257" y1="58.5408" x2="123.92" y2="150.585" gradientUnits="userSpaceOnUse">
<stop stop-color="#FFD258"/>
<stop offset="0.262119" stop-color="#FFA700"/>
</linearGradient>
<clipPath id="clip0_1488_470">
<rect width="199.25" height="173.891" fill="white" transform="translate(0 1.48596) rotate(-0.247649)"/>
</clipPath>
</defs>
</svg>
