<svg width="207" height="49" viewBox="0 0 207 49" fill="none" xmlns="http://www.w3.org/2000/svg">
<g clip-path="url(#clip0_426_405)">
<g filter="url(#filter0_d_426_405)">
<path d="M13.2446 44.4513C16.2068 44.525 18.6465 43.0273 18.6939 41.106C18.7412 39.1847 16.3782 37.5674 13.4159 37.4936C10.4537 37.4198 8.01395 38.9176 7.96663 40.8389C7.91931 42.7602 10.2823 44.3775 13.2446 44.4513Z" fill="#060302"/>
<path d="M14.4106 44.4803C18.0168 44.5701 20.9786 43.0854 21.0259 41.1641C21.0732 39.2428 18.1881 37.6124 14.5819 37.5226C10.9757 37.4328 8.01395 38.9176 7.96663 40.8389C7.91931 42.7602 10.8044 44.3905 14.4106 44.4803Z" fill="#181310"/>
<path d="M20.2044 41.0146C15.2447 43.9412 10.8035 42.2821 8.69467 40.7256C8.35676 40.4762 8.29673 40.0142 8.48771 39.6415C10.1029 36.4889 12.332 28.4679 10.7789 16.5051C10.7262 16.0988 11.2561 15.7884 11.6216 15.9774C13.2062 16.7975 15.992 17.39 19.4808 15.9218C19.819 15.7794 20.1965 16.0727 20.1265 16.4313C17.7123 28.7878 19.2176 36.7415 20.5402 39.8689C20.7166 40.2859 20.5954 40.7838 20.2044 41.0146Z" fill="#890008"/>
<path d="M15.4353 17.6246C18.0588 17.6899 20.2054 16.9382 20.2298 15.9457C20.2543 14.9531 18.1473 14.0955 15.5238 14.0302C12.9003 13.9649 10.7537 14.7165 10.7292 15.7091C10.7048 16.7017 12.8117 17.5593 15.4353 17.6246Z" fill="#FFBC2B"/>
<path d="M14.3001 16.7661C15.86 16.8049 17.1368 16.3413 17.1518 15.7305C17.1669 15.1197 15.9145 14.593 14.3546 14.5542C12.7947 14.5153 11.5179 14.979 11.5029 15.5898C11.4878 16.2006 12.7402 16.7273 14.3001 16.7661Z" fill="#FFD258"/>
<path d="M17.8555 41.3704L10.2671 36.9954C9.97843 36.8289 9.58038 37.0321 9.44014 37.3331C9.19326 37.863 8.72084 38.5289 8.14395 39.954C8.09861 41.7959 14.1028 43.5412 17.8261 42.0816C18.1427 41.9575 18.1499 41.5402 17.8555 41.3704Z" fill="#710007"/>
<path d="M14.5483 32.5709C15.0635 32.5838 15.4905 32.2134 15.5021 31.7438C15.5136 31.2741 15.1054 30.883 14.5902 30.8702C14.075 30.8574 13.648 31.2277 13.6365 31.6973C13.6249 32.167 14.0331 32.5581 14.5483 32.5709Z" fill="#FFA700"/>
<path d="M15.1239 23.1501L14.6827 23.1391C14.4401 23.1331 14.2387 23.3237 14.2328 23.5649L14.1453 27.1154C14.1394 27.3565 14.3312 27.557 14.5737 27.563L15.015 27.574C15.2575 27.58 15.4589 27.3894 15.4649 27.1482L15.5523 23.5978C15.5582 23.3566 15.3665 23.1562 15.1239 23.1501Z" fill="#D9D9D9"/>
<path d="M12.6153 24.9078L12.6027 25.4169C12.5968 25.6581 12.7886 25.8585 13.0311 25.8645L16.3753 25.9478C16.6179 25.9538 16.8193 25.7632 16.8252 25.522L16.8378 25.013C16.8437 24.7718 16.6519 24.5714 16.4094 24.5653L13.0652 24.4821C12.8226 24.476 12.6212 24.6666 12.6153 24.9078Z" fill="#D9D9D9"/>
<path d="M15.1836 13.0933C18.0171 13.1639 20.3703 10.9367 20.4397 8.11882C20.5091 5.30092 18.2684 2.95936 15.435 2.8888C12.6015 2.81825 10.2483 5.04541 10.1789 7.86331C10.1095 10.6812 12.3502 13.0228 15.1836 13.0933Z" fill="#890008"/>
<path d="M18.068 8.78654C19.1271 8.4327 19.6391 7.12096 19.2114 5.85668C18.7838 4.59241 17.5785 3.85435 16.5193 4.20819C15.4602 4.56203 14.9482 5.87377 15.3759 7.13805C15.8035 8.40232 17.0088 9.14038 18.068 8.78654Z" fill="#710007"/>
</g>
<g filter="url(#filter1_d_426_405)">
<path d="M4.66433 55.212C4.62919 55.2111 4.54138 55.2089 4.45379 55.198L4.31454 55.1422C4.26251 55.1147 4.20256 55.0518 4.18711 54.964L3.77183 54.342C3.71999 54.3058 3.65124 54.2429 3.65404 54.1293C3.65662 54.0244 4.18302 52.989 4.65462 52.0391L5.70744 49.9678C5.73506 49.9162 5.80002 49.7777 5.87368 49.6401C6.00246 49.4072 6.02067 49.3814 6.03887 49.3557C6.05687 49.3386 6.09307 49.2958 6.14621 49.2796C6.18178 49.263 6.21713 49.2551 6.2347 49.2556C6.26105 49.2564 6.28758 49.2481 7.07802 49.268C7.11316 49.2689 7.16562 49.2789 7.20913 49.2972C7.32222 49.3439 7.36399 49.4322 7.36224 49.5021L7.76917 50.1066C7.8647 50.1528 7.89767 50.2411 7.89618 50.3022C7.89254 50.4503 7.20069 51.7794 7.17265 51.8484C7.08781 52.0822 6.66337 52.9018 6.62632 52.9796L5.70202 54.8268C5.64655 54.9391 5.58202 55.0601 5.46527 55.162L5.41128 55.2131L5.34104 55.2113C5.11267 55.2057 4.89271 55.2176 4.66433 55.212ZM3.82969 54.1336C3.82754 54.221 4.01175 54.2345 4.13472 54.2375C4.35427 54.2427 4.59185 54.2313 4.81138 54.2369C4.90136 54.1517 4.95641 54.0569 5.01193 53.9446C5.16897 53.6339 5.98354 51.9588 6.06454 51.8819C6.14039 51.6565 6.45255 51.1139 6.47314 50.992C6.50098 50.9317 7.18297 49.6463 7.18662 49.4978C7.15361 49.4095 6.79292 49.4267 6.70506 49.4245C6.61725 49.4223 6.2835 49.4141 6.21262 49.4386C6.13272 49.4714 5.90046 49.9813 5.86362 50.0503C5.68812 50.3954 4.32142 53.0798 4.31111 53.1405C4.26526 53.2183 3.83141 54.0637 3.82969 54.1336ZM7.74286 55.2537L6.83824 55.2312L6.30435 54.4311L6.31763 54.248L8.76627 50.0964C8.87573 49.933 8.97597 49.7871 9.05826 49.6582C9.14994 49.5031 9.17822 49.4249 9.20844 49.2685L9.35773 49.2724C9.94616 49.2871 10.5265 49.2751 11.1149 49.2898C11.1676 49.2911 11.2642 49.2933 11.3518 49.3042L11.4221 49.3063C11.4394 49.3155 11.4658 49.3159 11.4834 49.3164C11.527 49.3264 11.5793 49.3452 11.6228 49.3635L11.6836 49.3915L11.8952 49.7199L11.9134 49.6941C11.9319 49.6596 11.9505 49.6164 11.9777 49.5823C12.0049 49.5478 12.0238 49.4958 12.051 49.4617C12.1054 49.3931 12.1592 49.3507 12.2033 49.3433C12.2208 49.3437 12.265 49.3358 12.3265 49.3375L12.3879 49.3388C12.4233 49.331 12.4584 49.3318 12.5023 49.3331L13.0469 49.3465C13.4511 49.3477 13.8638 49.3581 13.9429 49.3603C14.0043 49.3616 14.0922 49.3637 14.1798 49.3746C14.2676 49.3768 14.3728 49.3886 14.4595 49.4344L14.5377 49.4711L15.0717 50.2708L15.1029 50.4289C15.0982 50.6211 15.0585 50.8038 15.0105 50.9685C14.9625 51.1336 14.906 51.2896 14.8756 51.4547C14.7842 51.9506 14.6056 52.4268 14.4881 52.9134C14.3319 53.5474 14.1669 54.1813 14.0019 54.8152L13.9258 55.0493L13.8609 55.1874C13.8422 55.2307 13.8056 55.291 13.7343 55.3329L13.5929 55.3644L13.4697 55.3701L12.4334 55.3442L11.8994 54.5445L11.9065 54.2561L11.4843 54.9884C11.4388 55.0487 11.3848 55.0998 11.3484 55.1514L11.1856 55.3393L9.59596 55.2999L9.00183 54.4461L9.03332 54.2372L8.70321 54.7969L8.49325 55.115L8.42127 55.1832C8.38527 55.2173 8.34992 55.2251 8.32357 55.2243L8.23534 55.2396L8.05046 55.2527C7.92729 55.2585 7.79557 55.255 7.74286 55.2537ZM9.35346 49.4467L6.49308 54.2611L7.09904 54.2762C7.18689 54.2784 7.7136 54.3005 7.78538 54.2411C7.95592 54.0964 8.86797 52.389 9.06916 52.0705C9.20646 51.8468 9.36179 51.606 9.49057 51.3731C9.55484 51.2609 9.65726 51.0276 9.75601 50.9428C9.78429 50.8646 9.92248 50.6059 10.0103 50.6081C10.0893 50.6103 10.1135 50.6981 10.1121 50.7592C10.1095 50.8641 9.26284 53.8405 9.21953 54.1717L9.31224 54.3315L10.5681 54.3626C10.5953 54.3286 10.7935 54.1324 10.7944 54.0974L12.8471 50.679C12.8997 50.6803 12.9327 50.7685 12.9316 50.8122C12.9295 50.8996 12.9096 50.9948 12.4202 52.6694C12.3049 53.0687 12.0891 53.9809 12.0794 54.374L12.5712 54.3861C12.659 54.3883 13.0452 54.407 13.1164 54.3738C13.1963 54.3405 13.274 54.0369 13.2934 53.9674C13.4581 53.3423 13.6231 52.7084 13.7794 52.074C13.8968 51.5878 14.0667 51.1111 14.1668 50.6157C14.2272 50.3025 14.3856 49.9394 14.3933 49.6249L14.3854 49.5895C14.2987 49.5437 14.0352 49.5372 13.9385 49.535C13.3765 49.5207 12.814 49.5244 12.2519 49.5101C12.1895 49.5438 12.0518 49.785 12.0237 49.8544C11.6634 50.2123 11.5264 50.7772 11.1747 51.1442C11.231 50.997 11.5442 49.7025 11.5471 49.5802C11.5476 49.5627 11.5482 49.5365 11.5399 49.5186C11.4707 49.4732 11.1809 49.4663 11.1106 49.4646C10.5222 49.4499 9.94189 49.4614 9.35346 49.4467ZM15.5562 55.448L14.6516 55.4256L14.1177 54.6258L14.131 54.4428L16.5796 50.2912C16.6891 50.1278 16.7893 49.9819 16.8716 49.8525C16.9633 49.6974 16.9916 49.6197 17.0218 49.4633L17.1711 49.4667C17.7596 49.4814 18.3398 49.4695 18.9283 49.4842C18.9809 49.4855 19.0776 49.488 19.1652 49.4989L19.2354 49.5007C19.2528 49.5098 19.2791 49.5107 19.2967 49.5111C19.3404 49.5207 19.3926 49.5395 19.4361 49.5583L19.497 49.5858L19.7085 49.9147L19.7268 49.8889C19.7452 49.8544 19.7639 49.8111 19.7911 49.7766C19.8183 49.7425 19.8371 49.6905 19.8643 49.656C19.9187 49.5874 19.9725 49.5455 20.0166 49.5376C20.0342 49.538 20.0783 49.5306 20.1398 49.5319L20.2013 49.5336C20.2366 49.5257 20.2717 49.5266 20.3157 49.5275L20.8602 49.5413C21.2644 49.5425 21.6772 49.5529 21.7562 49.5546C21.8177 49.5563 21.9055 49.5585 21.9931 49.5694C22.081 49.5716 22.1861 49.5829 22.2729 49.6287L22.351 49.6658L22.885 50.4656L22.9163 50.6237C22.9115 50.8159 22.8719 50.9985 22.8239 51.1632C22.7759 51.3279 22.7193 51.4839 22.6889 51.6495C22.5976 52.1453 22.4189 52.6215 22.3014 53.1078C22.1452 53.7421 21.9802 54.376 21.8152 55.0099L21.7391 55.2437L21.6742 55.3822C21.6556 55.4254 21.6189 55.4857 21.5476 55.5277L21.4062 55.5587L21.2831 55.5644L20.2467 55.539L19.7128 54.7388L19.7199 54.4509L19.2976 55.1832C19.2522 55.243 19.1982 55.2942 19.1618 55.3457L18.999 55.534L17.4093 55.4943L16.8152 54.6404L16.8467 54.4316L16.5166 54.9913L16.3066 55.3098L16.2346 55.3775C16.1986 55.4116 16.1633 55.4195 16.1369 55.419L16.0487 55.4344L15.8638 55.4471C15.7406 55.4528 15.6089 55.4493 15.5562 55.448ZM17.1668 49.6415L14.3064 54.4559L14.9124 54.471C15.0002 54.4731 15.5269 54.4948 15.5987 54.4354C15.7692 54.2912 16.6813 52.5833 16.8825 52.2652C17.0198 52.0411 17.1751 51.8004 17.3039 51.5675C17.3682 51.4556 17.4706 51.2223 17.5694 51.1371C17.5977 51.0593 17.7358 50.8007 17.8237 50.8029C17.9027 50.8046 17.9269 50.8928 17.9254 50.954C17.9228 51.0588 17.0762 54.0353 17.0328 54.3664L17.1256 54.5259L18.3815 54.5574C18.4087 54.5229 18.6069 54.3267 18.6077 54.2918L20.6604 50.8733C20.7131 50.8746 20.7461 50.9628 20.745 51.0065C20.7429 51.0939 20.7229 51.1896 20.2335 52.8641C20.1182 53.2634 19.9024 54.1756 19.8927 54.5688L20.3846 54.5809C20.4724 54.5831 20.8586 54.6013 20.9297 54.5681C21.0096 54.5353 21.0874 54.2312 21.1067 54.1618C21.2715 53.5366 21.4365 52.9027 21.5927 52.2688C21.7102 51.7821 21.8801 51.3059 21.9802 50.81C22.0406 50.4968 22.1989 50.1337 22.2067 49.8192L22.1987 49.7843C22.112 49.7384 21.8485 49.7319 21.7519 49.7293C21.1898 49.7155 20.6274 49.7187 20.0653 49.7049C20.0029 49.7381 19.8651 49.9797 19.8371 50.0488C19.4768 50.4071 19.3398 50.9715 18.988 51.3386C19.0444 51.1913 19.3575 49.8969 19.3605 49.7745C19.3609 49.7571 19.3616 49.7313 19.3532 49.7134C19.284 49.668 18.9942 49.6606 18.924 49.6589C18.3355 49.6442 17.7552 49.6561 17.1668 49.6415ZM25.3899 55.7629L22.6936 55.6959L22.496 55.516L21.962 54.7163L21.9909 54.6123C22.0012 54.5512 22.0291 54.4909 22.0567 54.4389C22.0841 54.396 22.1116 54.3528 22.1392 54.3012L22.5767 53.3069C22.6506 53.1605 22.7331 53.0224 22.7897 52.8665C22.9017 52.5986 23.0226 52.3304 23.3643 51.6575C23.374 51.6226 23.3838 51.5793 23.4025 51.5361C23.4397 51.4496 23.5036 51.3548 23.9415 50.3433L23.9966 50.2485L24.0152 50.2053L24.0707 50.093C24.1363 49.9287 24.2803 49.7924 24.3878 49.7076L24.4416 49.6652L24.5118 49.667C25.0205 49.7061 25.53 49.7187 26.0481 49.7316L26.8122 49.7506C26.8473 49.7515 26.9615 49.7541 27.0665 49.7742C27.1192 49.7755 27.189 49.7951 27.2413 49.8139C27.2759 49.8322 27.4064 49.8877 27.4027 50.0362L27.7925 50.6228C27.8446 50.6503 27.9397 50.7136 27.9367 50.8359C27.9322 51.0194 27.5184 51.7608 27.4278 51.8723L27.3734 51.9409L26.4161 51.9171L26.4669 51.997L26.8736 52.6098C26.9953 52.6652 27.001 52.788 27.0002 52.8229L26.98 52.9274L26.9425 53.0226L26.8397 53.2734C26.7651 53.4464 26.6816 53.6277 26.6537 53.688L26.6256 53.7575L26.562 53.8431C26.5166 53.9034 26.4356 53.9799 26.3039 53.9769L25.61 53.9596L26.0168 54.5724L26.0579 54.6872C26.0562 54.7571 26.0274 54.8524 25.9996 54.9131L25.8061 55.2753L25.7414 55.4046L25.6941 55.5436L25.639 55.6379C25.6208 55.6637 25.5756 55.7153 25.5049 55.731L25.3899 55.7629ZM22.1567 54.6599L22.2255 54.7228L24.7548 54.7859C24.8251 54.7876 24.9217 54.7902 24.9223 54.764C24.975 54.7653 25.0321 54.5918 25.0419 54.5481C25.0989 54.3747 25.3352 54.0575 25.3479 53.9002L25.3312 53.8648C25.2622 53.8107 23.936 53.7778 24.2346 53.7852C24.1205 53.7826 23.9538 53.7695 23.9551 53.7171C23.9592 53.5511 24.1987 53.1028 24.3075 52.9656C24.6501 52.9743 25.0011 52.9917 25.3437 53.0003C25.4842 53.0038 25.6337 52.9985 25.7742 53.0019C25.8708 53.0045 25.9263 52.8923 25.9634 52.8145C26.0193 52.6847 26.2884 52.1058 26.2906 52.0185C26.291 52.001 26.2829 51.9748 26.2655 51.9656C26.125 51.9622 24.7993 51.9114 24.7646 51.8931C24.7663 51.8232 25.2001 50.9777 25.2723 50.9008C25.5181 50.9156 25.7635 50.9392 26.0094 50.9452L26.756 50.9638C26.8466 50.8528 27.2243 50.1454 27.2271 50.0319C27.2295 49.9358 26.8694 49.9267 26.8079 49.9254L26.035 49.9059C25.5257 49.8934 25.0163 49.8804 24.4987 49.8417C24.445 49.8841 24.238 50.0798 24.2361 50.1585C24.1808 50.262 23.1052 52.5422 22.9551 52.9319C22.8331 53.2434 22.2052 54.4777 22.1567 54.6599ZM32.3639 53.0351C32.0231 53.6734 31.6346 54.1008 31.5186 54.1764L31.5342 54.2554L31.7616 55.0129C31.8348 55.2505 31.9246 55.5323 31.92 55.7157C31.9186 55.7769 31.8902 55.8551 31.8275 55.9058C31.8183 55.9233 31.7649 55.9482 31.6769 55.9547L31.5537 55.96L31.2108 55.9693C30.9559 55.9715 30.6836 55.9646 30.6221 55.9633L30.5606 55.9616L30.4735 55.9332C30.4036 55.914 30.3523 55.8603 30.3278 55.7812C30.3192 55.7721 30.3194 55.7633 30.3107 55.7633L29.7939 54.9811C29.7172 54.8832 29.5799 54.3905 29.548 54.2586L29.1177 54.2478L29.0065 54.4811L28.7659 54.9731C28.6824 55.1544 28.5992 55.3186 28.5257 55.448L28.407 55.6284C28.3798 55.6625 28.3166 55.7311 28.237 55.7552L28.1487 55.7705L27.1738 55.7463C27.1301 55.7362 27.0691 55.7175 27.026 55.6812C26.974 55.6537 26.9226 55.6 26.9157 55.5214L26.4833 54.8815C26.4314 54.8453 26.3717 54.7736 26.3743 54.6688C26.3758 54.6076 26.3949 54.5469 26.4225 54.4953C26.4411 54.4521 26.4598 54.4088 26.496 54.366L26.6063 54.1677C26.7274 53.8911 27.1919 52.8714 27.6729 51.8958C28.1175 50.9717 28.6253 49.979 28.7951 49.8611C28.8131 49.844 28.8487 49.8274 28.9016 49.82C28.9192 49.8204 28.9455 49.8213 28.9721 49.813C29.0248 49.8142 29.0865 49.8072 29.1655 49.809C29.3238 49.8046 29.517 49.8093 29.7278 49.8145L30.6675 49.8378C30.729 49.8396 30.9747 49.8544 31.2032 49.8512L31.5286 49.842L31.6164 49.8441L31.9134 49.9214L32.2565 50.262L32.7904 51.0618C32.8926 51.1954 32.9504 51.3457 32.945 51.5636C32.9412 51.7209 32.6675 52.4833 32.3639 53.0351ZM30.9007 53.2172C31.3379 52.9485 31.5423 52.4989 31.718 52.145C31.9014 51.8348 32.2266 51.1178 32.2354 50.7596C32.2434 50.4363 32.0455 50.2656 31.8216 50.0765L31.7268 50.004C31.595 50.001 31.2967 49.9845 30.9453 49.9758C30.1286 49.9555 29.0127 49.9453 28.8971 50.0034C28.7013 50.1035 26.9598 53.7307 26.7717 54.2331C26.7248 54.3542 26.553 54.5508 26.55 54.6731C26.5461 54.8304 27.0041 54.7896 27.1094 54.7922C27.1797 54.7939 27.6013 54.8043 27.6544 54.7881C27.8403 54.7317 28.3186 53.511 28.4826 53.2707L28.8515 53.2798C28.9569 53.2824 29.4232 53.2591 29.4907 53.3744L29.9539 54.9068C29.9612 54.9679 30.0134 54.9867 30.0662 54.988C30.1715 54.9906 31.1556 54.9978 31.1826 54.972C31.2006 54.9549 31.2098 54.9379 31.2104 54.9117C31.2139 54.7719 31.0265 54.173 30.9942 54.0586C30.9453 53.9 30.8871 53.7672 30.8561 53.6008C30.8567 53.5746 30.8486 53.5479 30.8404 53.5217C30.8154 53.4684 30.7816 53.4152 30.783 53.354C30.785 53.2754 30.8471 53.2509 30.9007 53.2172ZM30.3772 50.923C30.6406 50.9295 30.8332 50.9605 30.8287 51.144C30.8242 51.3274 30.6211 51.7246 30.5379 51.8884C30.418 52.1213 30.3997 52.1471 30.1438 52.193C29.8878 52.2394 29.6245 52.2242 29.361 52.2173C29.2117 52.2138 29.0187 52.2003 29.0211 52.1042C29.0215 52.0867 29.522 51.0329 29.5775 50.9206C29.6741 50.9232 29.7799 50.9083 29.8766 50.9105C30.052 50.9236 30.2279 50.9192 30.3772 50.923ZM34.9679 56.0626C34.599 56.0535 34.2133 56.0178 33.8467 55.9126C33.7332 55.8833 33.4289 55.7532 33.1598 55.6157C33.021 55.5424 32.8822 55.469 32.7873 55.3965L32.6496 55.2795C32.6239 55.2528 32.5984 55.217 32.5731 55.1729L32.1157 54.4797C32.0814 54.4439 32.0216 54.3723 32.024 54.2762C32.0251 54.2329 32.0439 54.181 32.0536 54.146C32.0632 54.1115 32.5127 53.3447 32.5487 53.3106C32.5757 53.2853 32.6385 53.2341 32.7263 53.2363C32.7878 53.238 32.8398 53.2655 32.8657 53.2834C32.9002 53.3105 32.9261 53.3289 32.9518 53.3555L33.0202 53.4359L33.0285 53.4538C33.2506 53.7128 33.8095 53.8577 34.2047 53.8676C34.2749 53.8693 34.4859 53.8658 34.6841 53.6696C34.4603 53.4805 34.2377 53.239 33.8059 52.9311L33.3112 52.3245C33.2088 52.1995 33.151 52.0497 33.1195 51.9003C33.1043 51.8038 33.1067 51.7077 33.1088 51.6203L33.1157 51.3407C33.117 51.2883 33.1185 51.2271 33.1284 51.1839L33.1301 51.114C33.1395 51.0878 33.1402 51.0616 33.1494 51.0445C33.1496 51.0358 33.2608 50.8025 33.2706 50.7592C33.3544 50.5687 33.5609 50.3905 33.7484 50.2729C33.8377 50.2139 33.9178 50.1724 33.9802 50.1387C34.3 49.9984 34.8983 49.9694 35.1969 49.9768C35.7414 49.9906 36.5513 50.2901 36.9178 50.7539L36.9942 50.8605L37.5281 51.6606L37.4553 51.7637L36.9775 52.6083L36.8597 52.7538L36.5316 52.5184L36.2814 52.3285C36.1083 52.2193 35.9691 52.1634 35.688 52.1565C35.53 52.1526 35.4064 52.1758 35.3258 52.2348L35.6709 52.4968C35.8007 52.5789 35.9301 52.678 36.0502 52.7946C36.1187 52.8663 36.1873 52.9379 36.2466 53.027L36.7806 53.8267C36.9078 54.0137 36.9812 54.2425 36.9743 54.5221C36.9681 54.7755 36.8747 55.0001 36.7645 55.1897C36.618 55.4309 36.4378 55.61 36.2324 55.7446C35.8661 55.9889 35.4246 56.0742 34.9679 56.0626ZM32.1997 54.281C32.1954 54.4553 33.1863 54.8997 33.3608 54.9477C33.6924 55.0433 34.0957 55.0794 34.4383 55.0881C35.1057 55.1049 35.7259 54.9016 36.0747 54.2987C36.1756 54.1266 36.2596 53.9273 36.2648 53.7176C36.2656 53.6827 36.2575 53.6565 36.2583 53.6215C36.213 52.965 35.6916 52.7248 35.1902 52.389C35.0259 52.2799 34.4814 51.9078 34.487 51.6807C34.4967 51.2879 34.8247 51.1738 35.1584 51.182C35.8259 51.1985 36.1654 51.6876 36.3057 51.6998C36.3419 51.657 36.738 50.9156 36.7744 50.864C36.4594 50.4539 35.702 50.164 35.1926 50.1515C34.9027 50.1442 34.3132 50.1731 34.0553 50.2981C33.8598 50.3891 33.52 50.6255 33.4358 50.833C33.3985 50.9195 33.3696 51.0239 33.3149 51.1013C33.2944 51.2227 33.2914 51.345 33.2883 51.4674L33.2834 51.6683C33.2625 52.5158 34.862 53.2283 34.8512 53.6652C34.8458 53.8836 34.3585 54.0462 34.1828 54.0419C33.7613 54.0311 33.0396 53.7163 32.7488 53.3944C32.5607 53.5382 32.2033 54.1324 32.1997 54.281ZM37.9175 56.0227C37.8825 56.0218 37.7858 56.0192 37.6896 55.9996L37.5324 55.9603C37.4975 55.9507 37.3671 55.8953 37.3707 55.7467L36.9724 55.1514L36.8368 54.947C36.8372 54.9295 36.8381 54.8946 36.8565 54.8601L36.8846 54.7906C36.912 54.7478 36.9398 54.6871 36.9767 54.618C37.0504 54.4804 37.1513 54.3078 37.2522 54.1357C37.4543 53.7822 37.6651 53.4292 37.7197 53.3518C37.7471 53.309 37.7838 53.2487 37.829 53.1976L37.902 53.0858C37.9479 53.008 37.9764 52.9215 38.022 52.8524C38.1418 52.6283 38.2879 52.4046 38.425 52.1896L38.5338 52.0524L38.6069 51.9406C38.7905 51.6221 38.9478 51.3027 39.1487 50.9929C39.2128 50.8898 39.2946 50.7779 39.3675 50.6748C39.3944 50.6495 39.4214 50.6237 39.4399 50.5892L39.4943 50.521C39.5397 50.4607 39.5676 50.4004 39.6132 50.3314C39.65 50.2624 39.7045 50.1938 39.7679 50.1169L39.8219 50.0657L42.1931 50.125L42.7271 50.9247L42.7228 51.0994C42.7196 51.2305 42.7071 51.3786 42.6863 51.5092C42.6762 51.5616 42.6574 51.6136 42.6475 51.6569L42.61 51.7521L42.4542 52.3685L42.3486 52.7333L42.31 52.8718L42.2914 52.9151C42.2804 53.0024 42.2612 53.0719 42.2419 53.1414C42.2136 53.2191 42.1943 53.2886 42.175 53.3581C42.1559 53.4188 42.1542 53.4887 42.1439 53.5494L42.0874 53.7054L42.0012 53.9916C41.9721 54.1047 41.8727 54.5739 41.7563 55.0169C41.698 55.2428 41.6397 55.4686 41.5829 55.6333L41.5073 55.8496L41.4612 55.9361C41.4248 55.9877 41.3888 56.0217 41.3623 56.0296C41.3177 56.055 41.265 56.0537 41.2297 56.0611L41.1065 56.0668L40.079 56.0413L39.545 55.2416L39.5489 55.0843L39.4784 55.0913L39.4055 55.1945L39.3134 55.367C39.2401 55.4872 39.1849 55.5907 39.139 55.6685C39.0842 55.7546 39.0295 55.8319 38.9578 55.8913C38.7965 56.0181 38.5853 56.0304 38.2955 56.023C38.1725 56.02 38.0405 56.0257 37.9175 56.0227ZM37.388 55.0478C38.354 55.072 38.2291 55.1476 38.6236 54.4756C38.6786 54.3808 38.7523 54.2427 38.8247 54.1575C38.8699 54.106 39.0546 54.102 39.239 54.1063C39.3971 54.1106 39.5638 54.1233 39.6076 54.1246C39.6955 54.1267 39.7917 54.1463 39.8793 54.1572C39.794 54.4089 39.7316 54.8003 39.725 55.0712L40.208 55.0833C40.2958 55.0854 40.6732 55.1037 40.7532 55.0705C40.913 55.0045 41.2687 53.0473 41.4352 52.7104C41.4406 52.492 41.5687 52.2853 41.5829 52.0673C41.6366 52.025 41.8838 50.9122 41.9774 50.6789C41.9806 50.5479 42.01 50.426 42.0132 50.2949L39.8966 50.2426C39.8516 50.285 39.6513 50.5686 39.6412 50.6206C39.2884 51.0313 39.0208 51.5491 38.763 52.0235C38.717 52.1096 38.6268 52.2036 38.5719 52.2896C38.4528 52.4876 38.1338 52.9516 38.0582 53.1683C37.9232 53.2959 37.0144 54.8727 37.0124 54.9513C37.0107 55.0212 37.2123 55.0435 37.388 55.0478ZM39.3773 53.1312C39.3775 53.1225 39.9001 52.2438 39.9825 52.1062C40.0286 52.0197 40.3774 51.4168 40.4915 51.4198C40.5618 51.4215 40.5423 51.4997 40.5412 51.5434C40.5378 51.6828 40.4591 52.0218 40.3946 52.1428C40.3927 52.2214 40.3471 52.29 40.3278 52.3595C40.2789 52.5592 40.2821 52.7867 40.1808 52.9764C40.1801 53.0026 40.16 53.107 40.1246 53.1149C40.0889 53.1402 39.4822 53.1513 39.3856 53.1487C39.3771 53.14 39.3771 53.14 39.3773 53.1312ZM44.769 54.1482L44.9677 54.284L45.5104 55.0842L45.4999 55.1624C45.4877 55.3022 45.4035 55.501 45.329 55.674C45.254 55.8557 45.1619 56.0371 45.1067 56.1402L45.0602 56.2354L42.7687 56.1522C42.7073 56.1504 42.5667 56.147 42.4264 56.1348L42.2163 56.1034L42.1204 56.0746C42.0944 56.0567 42.0424 56.0292 42.0083 55.9846L41.4744 55.1849L41.4964 55.0018C41.5144 54.9848 41.5811 54.7764 41.5993 54.7506L41.8742 54.2945C41.9768 54.0524 42.6997 52.532 42.9498 52.0139C43.0706 51.746 43.1829 51.469 43.3213 51.2017C43.6459 50.5105 43.7384 50.3204 43.9075 50.2286C43.9255 50.2203 43.9523 50.2037 44.005 50.1963C44.0314 50.1967 44.0582 50.1888 44.0933 50.1897L44.8225 50.1904C44.8664 50.1912 44.9279 50.2017 44.9797 50.238L45.0985 50.407L45.5137 51.0377C45.5914 51.0835 45.6337 51.1543 45.6311 51.2504C45.629 51.3465 45.5913 51.4505 45.5633 51.5195L45.4615 51.7271C45.0901 52.5218 44.702 53.3073 44.3306 54.102C44.3921 54.1038 44.6816 54.1374 44.769 54.1482ZM42.2391 55.1777L44.4163 55.2579C44.5089 55.0766 44.7768 54.5414 44.7903 54.3496C44.7476 54.3046 44.5284 54.282 44.2912 54.2759C44.0189 54.269 43.729 54.2796 43.597 54.2761C43.5532 54.2753 43.1843 54.2657 43.1862 54.1871C43.1883 54.1002 43.3158 53.9197 43.3615 53.8507C43.4525 53.7218 43.5479 53.4186 43.622 53.2631C43.9932 52.4596 44.391 51.6566 44.7712 50.8531C44.8176 50.7496 44.9185 50.5687 44.9215 50.4463C44.9219 50.4289 44.9144 50.376 44.8885 50.3756L44.6162 50.3687C44.3614 50.3622 44.0275 50.354 43.992 50.3793C43.8849 50.4379 43.8022 50.5843 43.7643 50.697L43.4774 51.2842C43.339 51.5516 43.2357 51.8203 43.1061 52.0876C42.8648 52.6062 41.6528 55.0756 41.6175 55.0835C41.6594 55.163 42.1513 55.1755 42.2391 55.1777ZM43.4171 54.0883L43.472 54.0022C43.4538 54.028 43.4356 54.0538 43.4171 54.0883ZM47.1335 56.2606L47.0281 56.258C46.8084 56.2529 46.58 56.238 46.3608 56.2329L46.2466 56.2211C46.2031 56.2028 46.0726 56.1469 46.0764 55.9984L45.678 55.403L45.5425 55.1986C45.543 55.1812 45.5434 55.1549 45.5622 55.1117C45.5627 55.0942 45.5718 55.0684 46.4331 53.2894C46.4515 53.2636 46.4972 53.1946 46.534 53.126L46.5796 53.0482L46.58 53.0395L46.5712 53.0395L46.5307 52.8984L46.3657 52.4572C46.1943 51.9199 45.7364 50.5365 45.7113 50.4833L45.5859 50.2181L45.8758 50.2342L46.1477 50.2407C46.4113 50.2472 46.684 50.2454 46.9564 50.2348L47.0798 50.2291L47.6137 51.0288L47.6546 51.1437C47.6965 51.2319 47.7295 51.3289 47.7708 51.4263C47.8788 51.324 48.0136 51.2047 48.1483 51.0859C48.481 50.7796 48.8321 50.4475 48.9221 50.3623L48.9849 50.3028L49.0723 50.3137C49.0899 50.3142 49.0987 50.3229 49.1075 50.3233L49.1685 50.3334L49.2388 50.3438L49.8709 50.3598C49.9763 50.3624 50.0822 50.3563 50.1788 50.3584C50.2403 50.3602 50.3018 50.3619 50.3629 50.3719L50.5729 50.4121L51.1068 51.2122L51.0314 51.411L50.9766 51.4971C49.8662 52.693 50.2006 52.3168 48.5956 53.9812L48.3788 54.2207L48.3244 54.2893L48.3052 54.3495L48.2503 54.4444L47.8216 55.43C47.7378 55.6205 47.6633 55.7935 47.5808 55.9311L47.4707 56.1207C47.4347 56.1548 47.3711 56.2317 47.2741 56.2553L47.1335 56.2606ZM45.7182 55.203C45.717 55.2554 45.8048 55.2575 45.8312 55.2584C46.0504 55.2636 46.2788 55.278 46.4984 55.2836C46.5687 55.2853 46.639 55.287 46.7093 55.28C46.9314 55.1808 47.4499 53.7517 47.5885 53.4756C47.6161 53.4236 50.3025 50.6852 50.3323 50.5458C50.2796 50.5357 50.2273 50.5345 50.1746 50.5332C50.0779 50.531 49.9633 50.5367 49.8666 50.5346L49.2346 50.5186C49.1731 50.5173 49.1032 50.4981 49.0417 50.4876C48.9517 50.5728 47.6468 51.8164 47.5414 51.8138C47.4624 51.8117 47.4218 51.6798 47.3972 51.6177C47.2576 51.2124 47.1268 50.807 46.9609 50.4095C46.6882 50.4201 46.4158 50.4223 46.1435 50.4154L45.8716 50.4085C46.0555 50.789 46.7654 53.0005 46.7637 53.0704C46.7632 53.0966 46.6167 53.3199 46.5891 53.3719C46.4777 53.6227 45.7212 55.0719 45.7182 55.203ZM50.9313 56.3817L50.185 56.3544L50.0453 56.3247C49.9232 56.278 49.8814 56.1893 49.8835 56.1107L49.4851 55.5066L49.3496 55.311C49.35 55.2935 49.3509 55.2586 49.3693 55.2153C49.3785 55.1978 49.3881 55.1633 49.3978 55.1284C49.4258 55.0681 49.4631 54.9816 49.5008 54.8776C49.5845 54.6875 49.6963 54.4368 49.8165 54.1864C50.0397 53.6848 50.2901 53.1667 51.4289 50.8004C51.5034 50.6361 51.5586 50.533 51.6482 50.474C51.7373 50.415 51.852 50.4001 52.0452 50.4053L53.0112 50.4291L53.5451 51.2288L53.5772 51.3608C53.6325 51.2489 53.6886 51.1104 53.7623 50.9811C53.818 50.8601 53.882 50.7482 53.9369 50.6621C53.9645 50.6189 54.0005 50.576 54.0365 50.542C54.0637 50.5166 54.1265 50.4568 54.2231 50.4594C54.4866 50.4658 54.759 50.464 55.0225 50.4705C55.0489 50.4714 55.1104 50.4727 55.1631 50.4827C55.189 50.4923 55.233 50.5019 55.276 50.5294L55.3776 50.6805L55.8099 51.3291C55.8534 51.3567 55.9132 51.4191 55.9107 51.5152C55.9107 51.5239 55.9006 51.5672 55.8818 51.6279L55.8357 51.7144L55.7708 51.8437L55.1474 53.2527L54.2099 55.2835L54.0889 55.5513L54.0043 55.785L53.8569 56.0612L53.7648 56.225L53.7104 56.2936L53.6121 56.3609C53.5678 56.3858 53.497 56.3928 53.4531 56.4007L52.5219 56.3774C52.4169 56.3573 52.3039 56.311 52.2366 56.1957L51.7366 55.4401L51.7283 55.4314C51.5244 55.8455 51.3577 56.1911 51.3213 56.2427C51.2577 56.3283 51.1694 56.3524 51.1163 56.3598C51.0543 56.376 50.9841 56.383 50.9313 56.3817ZM49.5253 55.3153C49.5228 55.4114 50.0507 55.3894 50.1122 55.3912C50.1474 55.392 50.2436 55.4029 50.3402 55.4055C50.472 55.4085 50.613 55.395 50.6406 55.343C50.7516 55.1184 51.7137 53.1672 51.7254 53.0453L51.743 53.037C51.8045 53.0387 51.8157 53.3008 51.8097 53.5367C51.8055 53.7202 51.7924 53.8858 51.792 53.9032C51.7856 54.1654 51.8144 54.4283 51.8256 54.6821C51.8605 55.4082 51.6848 55.4126 52.4398 55.4316C52.5365 55.4338 52.9406 55.4441 53.0117 55.4022C53.0824 55.3952 53.2503 54.9884 53.3052 54.9111C53.3245 54.8416 53.3789 54.7643 53.3893 54.6948C53.6125 54.2112 53.8177 53.7179 54.0668 53.2434C54.0794 53.0953 54.864 51.5592 54.8661 51.4805C54.8937 51.4198 55.07 51.0484 55.0713 50.9873C55.0897 50.9615 55.2011 50.7199 55.201 50.7111C55.2028 50.6587 55.0886 50.647 55.0183 50.6452C54.7547 50.6388 54.4824 50.6406 54.2188 50.6341C54.1134 50.6315 53.8727 51.1409 53.8358 51.21C53.7714 51.331 53.7407 51.4874 53.6591 51.5901C53.6122 51.7203 53.1567 52.7225 53.0746 52.8518C53.0654 52.8601 53.0474 52.8859 53.0299 52.8855C53.0035 52.8846 52.9956 52.8409 52.9876 52.8147C52.9308 52.6295 52.926 52.1136 52.9311 51.9044L52.9409 51.5025C52.9485 51.1967 52.947 50.8909 52.8751 50.6004L51.8126 50.5653C51.5568 50.9699 49.5283 55.1842 49.5253 55.3153ZM58.9825 53.8638L60.4607 56.6452L58.6359 56.5208L58.102 55.7123L57.7923 55.0842C57.6575 55.2118 57.4864 55.3822 57.3152 55.5531C56.9816 55.8944 56.6297 56.2614 56.5213 56.3811L56.4673 56.4406L55.2725 56.4112L55.1499 56.3994C55.0537 56.3881 55.0019 56.3431 54.9764 56.3073L54.8572 56.1474L54.3233 55.3473L54.5015 55.2467C54.5551 55.2218 55.0326 54.7359 55.583 54.1552C56.0613 53.6514 56.5573 53.1305 56.7828 52.9003C56.6705 52.4604 56.0272 51.1072 55.8002 50.6997L55.666 50.4341L57.1678 50.4717L57.8559 51.7821C57.9731 51.6715 58.9909 50.6569 59.0808 50.5717L59.1261 50.5201L60.8739 50.5638L61.4078 51.3635L61.1018 51.6532C60.5883 52.1736 59.2269 53.564 58.9825 53.8638ZM54.5856 55.4062C54.5939 55.4241 54.6203 55.4245 54.6291 55.4249C54.7257 55.4359 54.8219 55.4384 54.9185 55.441L55.8585 55.4644C55.9218 55.3958 57.2752 53.9612 57.4171 53.9123L58.2117 55.5489L59.624 55.6455L58.2465 53.0506C58.2851 52.9204 60.16 51.0004 60.4479 50.7281L59.2009 50.697C59.1649 50.7311 57.8482 52.0966 57.7868 52.0949L57.0582 50.6434L55.9605 50.6162C56.1114 50.9084 56.9561 52.6337 56.9748 52.9574C56.6685 53.2559 54.683 55.3738 54.5856 55.4062Z" fill="#8F010A"/>
</g>
<g filter="url(#filter2_d_426_405)">
<path d="M42.8418 37.3869L39.3898 32.2729L40.6034 30.3692L46.6067 39.2598L42.8418 37.3869Z" fill="url(#paint0_linear_426_405)"/>
<path d="M34.8965 12.5906L27.9516 13.5006L24.8141 11.4113L31.448 10.4935L34.8965 12.5906Z" fill="url(#paint1_linear_426_405)"/>
<path d="M46.7484 11.4157L40.7542 21.0904L38.1306 17.08L43.1443 9.31468L49.5453 8.39112L53.0731 10.4128L46.7484 11.4157Z" fill="url(#paint2_linear_426_405)"/>
<path d="M27.0329 41.3258L23.4991 39.536L33.3672 24.1561L24.6566 11.4851L27.9535 13.4237L34.8188 12.589L40.8318 21.093L46.6705 11.4144L53.0693 10.5681L44.0772 25.1189L53.2408 38.3427L46.531 39.1812L40.6033 30.3699L34.1276 40.6515L27.2668 41.3035L27.0329 41.3258Z" fill="url(#paint3_linear_426_405)"/>
</g>
</g>
<path d="M61.504 34V17.2H64.864V34H61.504ZM77.0948 17.2H80.4548V34H77.0948V22.72L74.8628 25.624V27.304H71.5028V25.624L69.2708 22.72V34H65.9108V17.2H69.2708L73.1828 22.288L77.0948 17.2ZM92.7042 17.2H96.0642V34H92.7042V22.72L90.4722 25.624V27.304H87.1122V25.624L84.8802 22.72V34H81.5202V17.2H84.8802L88.7922 22.288L92.7042 17.2ZM109.442 20.56H100.49V23.92H107.21V27.28H100.49V30.64H109.442V34H97.1296V17.2H109.442V20.56ZM122.567 23.368L122.519 23.344C122.519 24.048 122.351 24.696 122.015 25.288C121.679 25.88 121.223 26.36 120.647 26.728L122.063 28.144C122.383 28.496 122.543 28.896 122.543 29.344V34H119.183V30.04L116.447 27.28H113.591V34H110.231V17.2H118.631C119.719 17.2 120.647 17.584 121.415 18.352C122.183 19.12 122.567 20.04 122.567 21.112V23.368ZM119.159 23.344L119.135 21.088C119.135 20.96 119.087 20.832 118.991 20.704C118.895 20.592 118.767 20.536 118.607 20.536H113.567V23.896H118.607C118.783 23.896 118.919 23.84 119.015 23.728C119.111 23.6 119.159 23.472 119.159 23.344ZM131.967 34L127.407 34.024C126.703 34.024 126.055 33.848 125.463 33.496C124.855 33.128 124.375 32.648 124.023 32.056C123.671 31.464 123.495 30.816 123.495 30.112V29.368H126.855V30.112C126.855 30.256 126.911 30.384 127.023 30.496C127.135 30.608 127.263 30.664 127.407 30.664H131.895C131.991 30.664 132.087 30.64 132.183 30.592C132.279 30.544 132.351 30.472 132.399 30.376C132.447 30.28 132.471 30.184 132.471 30.088V29.032C132.439 28.888 132.343 28.768 132.183 28.672L125.607 25.504L125.559 25.48C124.727 25.016 124.127 24.368 123.759 23.536C123.583 23.056 123.495 22.624 123.495 22.24V21.112C123.495 20.04 123.879 19.12 124.646 18.352C125.415 17.584 126.335 17.2 127.407 17.2H131.895C132.983 17.2 133.911 17.584 134.679 18.352C135.447 19.12 135.831 20.04 135.831 21.112V21.856H132.471V21.112C132.471 20.968 132.423 20.84 132.327 20.728C132.231 20.616 132.103 20.56 131.943 20.56H127.455C127.407 20.56 127.335 20.576 127.239 20.608C127.191 20.624 127.135 20.664 127.071 20.728C127.007 20.792 126.967 20.848 126.951 20.896C126.919 20.992 126.903 21.064 126.903 21.112V22.168C126.935 22.312 127.031 22.432 127.191 22.528L133.767 25.696L133.815 25.72C134.647 26.184 135.247 26.832 135.615 27.664C135.791 28.144 135.879 28.576 135.879 28.96V30.088C135.879 31.16 135.495 32.08 134.727 32.848C133.959 33.616 133.039 34 131.967 34ZM148.809 24.856L148.857 24.904C148.969 25.112 149.025 25.352 149.025 25.624V34.024H145.665V29.536H140.073V34.024H136.713V25.624C136.713 25.352 136.769 25.112 136.881 24.904L140.241 18.184C140.385 17.896 140.593 17.664 140.865 17.488C141.137 17.312 141.425 17.224 141.729 17.224H143.961C144.281 17.224 144.569 17.304 144.825 17.464C145.113 17.64 145.321 17.864 145.449 18.136L148.809 24.856ZM140.073 26.2H145.665V26.056L142.953 20.608H142.785L140.073 26.056V26.2ZM162.246 34H149.934V17.2H153.294V30.64H162.246V34ZM171.56 17.2H174.872V21.112C174.872 21.592 174.712 21.992 174.392 22.312L170.408 26.296V34H167.048V26.296L163.064 22.312C162.744 21.992 162.584 21.592 162.584 21.112V17.2H165.944V20.416L168.752 23.224L171.56 20.416V17.2ZM187.981 34H184.621L179.029 24.424V34H175.669V17.2H179.029L184.621 26.776V17.2H187.981V34ZM201.364 21.112C201.364 21.592 201.204 21.992 200.884 22.312L197.596 25.6L200.884 28.888C201.204 29.208 201.364 29.608 201.364 30.088V34H198.004V30.784L195.196 27.976L192.388 30.784V34H189.028V30.088C189.028 29.608 189.188 29.208 189.508 28.888L192.796 25.6L189.508 22.312C189.188 21.992 189.028 21.592 189.028 21.112V17.2H192.388V20.416L195.196 23.224L198.004 20.416V17.2H201.364V21.112Z" fill="#CC0D16"/>
<defs>
<filter id="filter0_d_426_405" x="0.865942" y="-1.21282" width="27.2605" height="55.797" filterUnits="userSpaceOnUse" color-interpolation-filters="sRGB">
<feFlood flood-opacity="0" result="BackgroundImageFix"/>
<feColorMatrix in="SourceAlpha" type="matrix" values="0 0 0 0 0 0 0 0 0 0 0 0 0 0 0 0 0 0 127 0" result="hardAlpha"/>
<feOffset dy="3"/>
<feGaussianBlur stdDeviation="3.55"/>
<feComposite in2="hardAlpha" operator="out"/>
<feColorMatrix type="matrix" values="0 0 0 0 1 0 0 0 0 0.823529 0 0 0 0 0.345098 0 0 0 0.25 0"/>
<feBlend mode="normal" in2="BackgroundImageFix" result="effect1_dropShadow_426_405"/>
<feBlend mode="normal" in="SourceGraphic" in2="effect1_dropShadow_426_405" result="shape"/>
</filter>
<filter id="filter1_d_426_405" x="-0.346069" y="45.2545" width="65.7538" height="15.3907" filterUnits="userSpaceOnUse" color-interpolation-filters="sRGB">
<feFlood flood-opacity="0" result="BackgroundImageFix"/>
<feColorMatrix in="SourceAlpha" type="matrix" values="0 0 0 0 0 0 0 0 0 0 0 0 0 0 0 0 0 0 127 0" result="hardAlpha"/>
<feOffset/>
<feGaussianBlur stdDeviation="2"/>
<feComposite in2="hardAlpha" operator="out"/>
<feColorMatrix type="matrix" values="0 0 0 0 0.992157 0 0 0 0 0.772549 0 0 0 0 0 0 0 0 0.3 0"/>
<feBlend mode="normal" in2="BackgroundImageFix" result="effect1_dropShadow_426_405"/>
<feBlend mode="normal" in="SourceGraphic" in2="effect1_dropShadow_426_405" result="shape"/>
</filter>
<filter id="filter2_d_426_405" x="14.7991" y="3.69111" width="47.1416" height="50.3347" filterUnits="userSpaceOnUse" color-interpolation-filters="sRGB">
<feFlood flood-opacity="0" result="BackgroundImageFix"/>
<feColorMatrix in="SourceAlpha" type="matrix" values="0 0 0 0 0 0 0 0 0 0 0 0 0 0 0 0 0 0 127 0" result="hardAlpha"/>
<feOffset dy="4"/>
<feGaussianBlur stdDeviation="4.35"/>
<feComposite in2="hardAlpha" operator="out"/>
<feColorMatrix type="matrix" values="0 0 0 0 1 0 0 0 0 0.823529 0 0 0 0 0.345098 0 0 0 0.25 0"/>
<feBlend mode="normal" in2="BackgroundImageFix" result="effect1_dropShadow_426_405"/>
<feBlend mode="normal" in="SourceGraphic" in2="effect1_dropShadow_426_405" result="shape"/>
</filter>
<linearGradient id="paint0_linear_426_405" x1="39.0122" y1="8.12882" x2="38.2421" y2="39.0515" gradientUnits="userSpaceOnUse">
<stop stop-color="#C0000D"/>
<stop offset="1" stop-color="#690102"/>
</linearGradient>
<linearGradient id="paint1_linear_426_405" x1="39.0121" y1="8.12917" x2="38.2421" y2="39.0518" gradientUnits="userSpaceOnUse">
<stop stop-color="#C0000D"/>
<stop offset="1" stop-color="#690102"/>
</linearGradient>
<linearGradient id="paint2_linear_426_405" x1="39.0122" y1="8.12882" x2="38.2422" y2="39.0515" gradientUnits="userSpaceOnUse">
<stop stop-color="#C0000D"/>
<stop offset="1" stop-color="#690102"/>
</linearGradient>
<linearGradient id="paint3_linear_426_405" x1="34.221" y1="17.9116" x2="39.6277" y2="48.0749" gradientUnits="userSpaceOnUse">
<stop stop-color="#FFD258"/>
<stop offset="0.262119" stop-color="#FFA700"/>
</linearGradient>
<clipPath id="clip0_426_405">
<rect width="47.2544" height="46.0229" fill="white" transform="translate(8.84625 0.361328) rotate(2.83396)"/>
</clipPath>
</defs>
</svg>
