<svg width="190" height="24" viewBox="0 0 204 34" fill="none" xmlns="http://www.w3.org/2000/svg">
<path d="M10.7693 29.853C16.7171 29.853 21.5387 24.9979 21.5387 19.0088C21.5387 13.0197 16.7171 8.16458 10.7693 8.16458C4.8216 8.16458 0 13.0197 0 19.0088C0 24.9979 4.8216 29.853 10.7693 29.853Z" fill="#FDC500"/>
<path d="M40.5813 29.853C46.529 29.853 51.3506 24.9979 51.3506 19.0088C51.3506 13.0197 46.529 8.16458 40.5813 8.16458C34.6336 8.16458 29.812 13.0197 29.812 19.0088C29.812 24.9979 34.6336 29.853 40.5813 29.853Z" fill="#FDC500"/>
<path d="M38.9363 8.33755H10.7648V28.9434H38.9363V8.33755Z" fill="#FDC500"/>
<path d="M11.1562 29.2259C16.9601 29.2259 21.6651 24.6496 21.6651 19.0044C21.6651 13.3593 16.9601 8.78299 11.1562 8.78299C5.35233 8.78299 0.647339 13.3593 0.647339 19.0044C0.647339 24.6496 5.35233 29.2259 11.1562 29.2259Z" fill="#8F010A"/>
<path d="M40.2473 29.2259C46.0512 29.2259 50.7562 24.6496 50.7562 19.0044C50.7562 13.3593 46.0512 8.78299 40.2473 8.78299C34.4434 8.78299 29.7384 13.3593 29.7384 19.0044C29.7384 24.6496 34.4434 29.2259 40.2473 29.2259Z" fill="#8F010A"/>
<path d="M38.6425 8.94748H11.1523V28.3699H38.6425V8.94748Z" fill="#8F010A"/>
<path d="M34.5479 19.5033C35.5166 19.5033 36.3019 18.7334 36.3019 17.7837C36.3019 16.834 35.5166 16.0641 34.5479 16.0641C33.5791 16.0641 32.7938 16.834 32.7938 17.7837C32.7938 18.7334 33.5791 19.5033 34.5479 19.5033Z" fill="#FDC500"/>
<path d="M41.6542 19.5033C42.623 19.5033 43.4083 18.7334 43.4083 17.7837C43.4083 16.834 42.623 16.0641 41.6542 16.0641C40.6855 16.0641 39.9002 16.834 39.9002 17.7837C39.9002 18.7334 40.6855 19.5033 41.6542 19.5033Z" fill="#FDC500"/>
<path d="M38.146 15.9272C39.1147 15.9272 39.9 15.1573 39.9 14.2076C39.9 13.2579 39.1147 12.4879 38.146 12.4879C37.1773 12.4879 36.392 13.2579 36.392 14.2076C36.392 15.1573 37.1773 15.9272 38.146 15.9272Z" fill="#FDC500"/>
<path d="M38.146 23.0875C39.1147 23.0875 39.9 22.3176 39.9 21.3679C39.9 20.4181 39.1147 19.6482 38.146 19.6482C37.1773 19.6482 36.392 20.4181 36.392 21.3679C36.392 22.3176 37.1773 23.0875 38.146 23.0875Z" fill="#FDC500"/>
<path d="M14.3356 16.1687H6.39325V18.8125H14.3356V16.1687Z" fill="#FDC500"/>
<path d="M9.01605 13.5971V21.3837H11.7127V13.5971H9.01605Z" fill="#FDC500"/>
<path d="M31.9146 16.2077L19.4585 33.8626C19.2483 34.1605 18.7757 33.9305 18.8907 33.5863L22.7333 22.0811C22.8323 21.7848 22.607 21.4801 22.2889 21.4801H17.6661C17.3209 21.4801 17.0798 21.1451 17.1953 20.8262L22.0081 7.54869C22.235 6.92264 22.8394 6.50439 23.517 6.50439H26.7483L28.598 6.52663C28.8897 6.53008 29.0902 6.81532 28.9897 7.08385L26.2416 14.426C26.1327 14.7169 26.3524 15.0254 26.6686 15.0254H31.2824C31.9023 15.0254 32.2672 15.7079 31.9146 16.2077Z" fill="#FDC500"/>
<path d="M30.2622 0.497078L29.2729 5.27299C29.2589 5.34031 29.1986 5.38868 29.1285 5.38868H23.5192C23.2032 5.38868 22.9732 5.09467 23.0553 4.79545L24.0691 1.09685C24.1309 0.871125 24.3254 0.704191 24.5618 0.673903L29.7932 0.00360279C30.0808 -0.0332529 30.3199 0.218367 30.2622 0.497078Z" fill="#8F010A"/>
<path d="M66.1584 16.7203L66.5657 13.3395H69.2809L69.1904 14.1671L66.1584 16.7203ZM66.0679 17.4951L69.0848 14.9418L67.8026 25.6654H65.0873L66.0679 17.4951Z" fill="#FDC500"/>
<path d="M71.9696 13.3397H74.662L77.6535 19.2737L82.051 13.3397H84.7434L83.2775 25.6656H80.5852L81.5574 17.4953L77.1599 23.4293L74.1684 17.4953L73.1962 25.6656H70.5038L71.9696 13.3397ZM88.798 13.3397H91.4903L94.4818 19.2737L98.8793 13.3397H101.572L100.106 25.6656H97.4135L98.3857 17.4953L93.9882 23.4293L90.9967 17.4953L90.0245 25.6656H87.3321L88.798 13.3397ZM105.626 13.3397H113.853L113.569 15.8048H108.02L107.735 18.27H112.821L110.084 20.7352H107.436L107.152 23.2004H112.821L112.537 25.6656H104.161L105.626 13.3397ZM117.605 13.3397H123.708C124.665 13.3397 125.383 13.6097 125.862 14.1496C126.35 14.6779 126.595 15.4234 126.595 16.3859C126.595 17.1255 126.485 17.7946 126.266 18.3933C126.046 18.9803 125.742 19.485 125.353 19.9076C124.964 20.3302 124.506 20.6531 123.977 20.8761C123.449 21.0992 122.875 21.2106 122.257 21.2106H119.355L118.832 25.6656H116.139L117.605 13.3397ZM119.654 18.7455H122.436C122.885 18.7455 123.219 18.5929 123.439 18.2876C123.658 17.9825 123.793 17.6303 123.842 17.2311C123.862 17.0786 123.867 16.9201 123.857 16.7557C123.847 16.5914 123.808 16.4387 123.738 16.2979C123.678 16.157 123.583 16.0397 123.454 15.9457C123.334 15.8518 123.164 15.8048 122.945 15.8048H119.998L119.654 18.7455ZM123.842 21.6509L126.131 25.6656H123.005L120.746 21.6509H123.842ZM134.974 18.3052C135.742 18.3052 136.39 18.3757 136.919 18.5165C137.447 18.6458 137.871 18.8394 138.19 19.0976C138.519 19.3441 138.753 19.6553 138.893 20.0309C139.033 20.4066 139.102 20.835 139.102 21.3163C139.102 21.8445 139.033 22.3728 138.893 22.9011C138.763 23.4176 138.564 23.8813 138.295 24.2921C138.035 24.7031 137.711 25.0376 137.322 25.2958C136.944 25.5423 136.505 25.6656 136.006 25.6656H128.827L130.307 23.2004H135.243C135.622 23.2004 135.896 23.0713 136.066 22.813C136.245 22.5548 136.355 22.2613 136.395 21.9326C136.445 21.5218 136.32 21.2283 136.021 21.0522C135.722 20.8644 135.273 20.7704 134.675 20.7704H133.284C132.177 20.7704 131.369 20.5122 130.861 19.9957C130.352 19.4674 130.098 18.722 130.098 17.7594C130.098 17.2547 130.163 16.744 130.292 16.2274C130.422 15.6992 130.611 15.2238 130.861 14.8012C131.11 14.3669 131.419 14.0147 131.788 13.7447C132.157 13.4747 132.581 13.3397 133.06 13.3397H139.82L138.34 15.8048H134.241C134.052 15.8048 133.872 15.8401 133.703 15.9105C133.543 15.9809 133.399 16.0807 133.269 16.2098C133.149 16.3273 133.05 16.4681 132.97 16.6324C132.89 16.7851 132.84 16.9436 132.82 17.1079C132.77 17.5305 132.895 17.8358 133.194 18.0235C133.493 18.2114 133.942 18.3052 134.54 18.3052H134.974ZM148.807 19.5026L148.298 17.284L146.175 21.5804L152.546 17.8474L149.525 22.4961L144.17 25.6656H141.328L147.401 13.3397H150.243L151.35 18.0587L148.807 19.5026ZM150.243 25.6656L149.615 23.218L151.769 19.9428L153.085 25.6656H150.243ZM157.559 13.3397H160.251L159.084 23.2004H164.155L163.871 25.6656H156.093L157.559 13.3397ZM170.715 16.3155L172.899 13.3397H176.369L171.911 18.6574L170.715 16.3155ZM168.097 25.6656L168.785 19.8724L165.569 13.3397H168.815L171.567 19.08L170.79 25.6656H168.097ZM179.369 13.3397H182.062L186.235 21.5276L187.207 13.3397H189.9L188.434 25.6656H185.741L181.568 17.4777L180.596 25.6656H177.904L179.369 13.3397ZM191.735 25.6656L196.252 19.5026L193.201 13.3397H196.446L198.181 16.8614L200.754 13.3397H204L194.98 25.6656H191.735ZM199.737 20.0133L202.534 25.6656H199.288L197.807 22.6545L199.737 20.0133Z" fill="#8F010A"/>
<path d="M69.1935 14.1956L66.1357 16.7635L66.5725 13.3397H69.2809L69.1935 14.1956Z" fill="#8F010A"/>
<path d="M199.282 25.6656L197.797 22.6697L199.719 20.0162L202.515 25.6656H199.282Z" fill="#FDC500"/>
</svg>
