<svg width="207" height="49" viewBox="0 0 207 49" fill="none" xmlns="http://www.w3.org/2000/svg">
<g clip-path="url(#clip0_426_405)">
<g filter="url(#filter0_d_426_405)">
<path d="M13.2446 44.4513C16.2068 44.525 18.6465 43.0273 18.6939 41.106C18.7412 39.1847 16.3782 37.5674 13.4159 37.4936C10.4537 37.4198 8.01395 38.9176 7.96663 40.8389C7.91931 42.7602 10.2823 44.3775 13.2446 44.4513Z" fill="#060302"/>
<path d="M14.4106 44.4803C18.0168 44.5701 20.9786 43.0854 21.0259 41.1641C21.0732 39.2428 18.1881 37.6124 14.5819 37.5226C10.9757 37.4328 8.01395 38.9176 7.96663 40.8389C7.91931 42.7602 10.8044 44.3905 14.4106 44.4803Z" fill="#181310"/>
<path d="M20.2044 41.0146C15.2447 43.9412 10.8035 42.2821 8.69467 40.7256C8.35676 40.4762 8.29673 40.0142 8.48771 39.6415C10.1029 36.4889 12.332 28.4679 10.7789 16.5051C10.7262 16.0988 11.2561 15.7884 11.6216 15.9774C13.2062 16.7975 15.992 17.39 19.4808 15.9218C19.819 15.7794 20.1965 16.0727 20.1265 16.4313C17.7123 28.7878 19.2176 36.7415 20.5402 39.8689C20.7166 40.2859 20.5954 40.7838 20.2044 41.0146Z" fill="#890008"/>
<path d="M15.4353 17.6246C18.0588 17.6899 20.2054 16.9382 20.2298 15.9457C20.2543 14.9531 18.1473 14.0955 15.5238 14.0302C12.9003 13.9649 10.7537 14.7165 10.7292 15.7091C10.7048 16.7017 12.8117 17.5593 15.4353 17.6246Z" fill="#FFBC2B"/>
<path d="M14.3001 16.7661C15.86 16.8049 17.1368 16.3413 17.1518 15.7305C17.1669 15.1197 15.9145 14.593 14.3546 14.5542C12.7947 14.5153 11.5179 14.979 11.5029 15.5898C11.4878 16.2006 12.7402 16.7273 14.3001 16.7661Z" fill="#FFD258"/>
<path d="M17.8555 41.3704L10.2671 36.9954C9.97843 36.8289 9.58038 37.0321 9.44014 37.3331C9.19326 37.863 8.72084 38.5289 8.14395 39.954C8.09861 41.7959 14.1028 43.5412 17.8261 42.0816C18.1427 41.9575 18.1499 41.5402 17.8555 41.3704Z" fill="#710007"/>
<path d="M14.5483 32.5709C15.0635 32.5838 15.4905 32.2134 15.5021 31.7438C15.5136 31.2741 15.1054 30.883 14.5902 30.8702C14.075 30.8574 13.648 31.2277 13.6365 31.6973C13.6249 32.167 14.0331 32.5581 14.5483 32.5709Z" fill="#FFA700"/>
<path d="M15.1239 23.1501L14.6827 23.1391C14.4401 23.1331 14.2387 23.3237 14.2328 23.5649L14.1453 27.1154C14.1394 27.3565 14.3312 27.557 14.5737 27.563L15.015 27.574C15.2575 27.58 15.4589 27.3894 15.4649 27.1482L15.5523 23.5978C15.5582 23.3566 15.3665 23.1562 15.1239 23.1501Z" fill="#D9D9D9"/>
<path d="M12.6153 24.9078L12.6027 25.4169C12.5968 25.6581 12.7886 25.8585 13.0311 25.8645L16.3753 25.9478C16.6179 25.9538 16.8193 25.7632 16.8252 25.522L16.8378 25.013C16.8437 24.7718 16.6519 24.5714 16.4094 24.5653L13.0652 24.4821C12.8226 24.476 12.6212 24.6666 12.6153 24.9078Z" fill="#D9D9D9"/>
<path d="M15.1836 13.0933C18.0171 13.1639 20.3703 10.9367 20.4397 8.11882C20.5091 5.30092 18.2684 2.95936 15.435 2.8888C12.6015 2.81825 10.2483 5.04541 10.1789 7.86331C10.1095 10.6812 12.3502 13.0228 15.1836 13.0933Z" fill="#890008"/>
<path d="M18.068 8.78654C19.1271 8.4327 19.6391 7.12096 19.2114 5.85668C18.7838 4.59241 17.5785 3.85435 16.5193 4.20819C15.4602 4.56203 14.9482 5.87377 15.3759 7.13805C15.8035 8.40232 17.0088 9.14038 18.068 8.78654Z" fill="#710007"/>
</g>
<g filter="url(#filter1_d_426_405)">
<path d="M42.8418 37.3869L39.3898 32.2729L40.6034 30.3692L46.6067 39.2598L42.8418 37.3869Z" fill="url(#paint0_linear_426_405)"/>
<path d="M34.8965 12.5906L27.9516 13.5006L24.8141 11.4113L31.448 10.4935L34.8965 12.5906Z" fill="url(#paint1_linear_426_405)"/>
<path d="M46.7484 11.4157L40.7542 21.0904L38.1306 17.08L43.1443 9.31468L49.5453 8.39112L53.0731 10.4128L46.7484 11.4157Z" fill="url(#paint2_linear_426_405)"/>
<path d="M27.0329 41.3258L23.4991 39.536L33.3672 24.1561L24.6566 11.4851L27.9535 13.4237L34.8188 12.589L40.8318 21.093L46.6705 11.4144L53.0693 10.5681L44.0772 25.1189L53.2408 38.3427L46.531 39.1812L40.6033 30.3699L34.1276 40.6515L27.2668 41.3035L27.0329 41.3258Z" fill="url(#paint3_linear_426_405)"/>
</g>
<path d="M38.2935 39.9093C37.1769 39.7236 36.0205 38.424 35.1008 36.2871L30.1238 35.4596C28.2816 37.4566 26.5179 38.2855 25.3871 37.6774C25.1649 37.5462 24.9723 37.3726 24.821 37.167C24.6697 36.9614 24.5629 36.7281 24.507 36.4814C24.0147 34.8037 24.7334 31.7965 26.2569 29.1686C26.528 28.7102 26.9055 28.3198 27.3593 28.0287C27.8132 27.7375 28.3309 27.5536 28.8713 27.4915C29.4117 27.4293 29.9599 27.4908 30.4723 27.6709C30.9847 27.851 31.4471 28.1448 31.8229 28.5289L35.8273 29.1947C36.3112 28.9536 36.8466 28.8257 37.3909 28.8213C37.9353 28.8169 38.4734 28.9362 38.9627 29.1695C39.452 29.4028 39.8789 29.7438 40.2095 30.1654C40.5401 30.587 40.7652 31.0775 40.8669 31.598C41.4209 34.5712 41.0888 37.6428 40.0599 39.0675C39.9242 39.2824 39.7449 39.4681 39.5329 39.6133C39.3209 39.7585 39.0807 39.8601 38.8269 39.9121C38.6503 39.9405 38.47 39.9395 38.2935 39.9093Z" fill="#9F0008"/>
<path d="M39.4213 38.9762C39.2336 39.0062 39.042 39.0051 38.8545 38.973C37.6681 38.7757 36.4396 37.395 35.4622 35.1235L30.1742 34.2442C28.2175 36.3662 26.3425 37.248 25.1409 36.6017C24.8024 36.4124 24.5348 36.123 24.377 35.7757C24.3975 36.0152 24.4409 36.2524 24.5067 36.4842C24.5628 36.7306 24.6698 36.9635 24.8212 37.1688C24.9725 37.374 25.1651 37.5474 25.3871 37.6783C26.5183 38.2864 28.2817 37.4575 30.1239 35.4604L35.1008 36.2879C36.0204 38.4255 37.1769 39.7245 38.2936 39.9102C38.47 39.9402 38.6504 39.9409 38.8269 39.9123C39.0808 39.8603 39.321 39.7587 39.533 39.6134C39.745 39.4682 39.9243 39.2825 40.06 39.0677C40.2 38.8701 40.3208 38.6601 40.4207 38.4407C40.1552 38.7186 39.805 38.9063 39.4213 38.9762ZM33.6456 33.9851L32.272 33.7567C32.181 33.7415 32.0998 33.6918 32.0462 33.6185C31.9926 33.5452 31.9711 33.4543 31.9864 33.3657C32.0017 33.2772 32.0526 33.1982 32.1279 33.1463C32.2031 33.0944 32.2965 33.0738 32.3876 33.0889L33.7611 33.3173C33.8522 33.3324 33.9334 33.3821 33.987 33.4555C34.0405 33.5288 34.062 33.6197 34.0467 33.7083C34.0314 33.7968 33.9805 33.8757 33.9053 33.9277C33.8301 33.9796 33.7366 34.0002 33.6456 33.9851Z" fill="#FFCF53"/>
<path d="M36.9926 35.0571C38.4149 35.2936 39.7618 34.3642 40.001 32.9813C40.2403 31.5983 39.2812 30.2854 37.8589 30.0489C36.4365 29.8124 35.0896 30.7418 34.8504 32.1248C34.6112 33.5077 35.5703 34.8206 36.9926 35.0571Z" fill="#FFCF53"/>
<path d="M28.7804 33.519C30.1079 33.7398 31.365 32.8723 31.5883 31.5815C31.8115 30.2908 30.9164 29.0654 29.5889 28.8447C28.2614 28.624 27.0043 29.4914 26.781 30.7822C26.5578 32.073 27.4529 33.2983 28.7804 33.519Z" fill="#FFCF53"/>
<path d="M37.5414 31.885C37.8259 31.9323 38.0952 31.7465 38.1431 31.4699C38.191 31.1933 37.9991 30.9307 37.7147 30.8834C37.4302 30.8361 37.1608 31.022 37.113 31.2986C37.0651 31.5752 37.257 31.8377 37.5414 31.885Z" fill="#BF1C0E"/>
<path d="M37.1371 34.2225C37.4215 34.2698 37.6909 34.0839 37.7388 33.8074C37.7866 33.5308 37.5948 33.2682 37.3103 33.2209C37.0259 33.1736 36.7565 33.3595 36.7086 33.6361C36.6608 33.9127 36.8526 34.1753 37.1371 34.2225Z" fill="#BF1C0E"/>
<path d="M38.5411 33.2532C38.8255 33.3004 39.0949 33.1146 39.1428 32.838C39.1906 32.5614 38.9988 32.2988 38.7143 32.2515C38.4299 32.2042 38.1605 32.3901 38.1127 32.6667C38.0648 32.9433 38.2566 33.2058 38.5411 33.2532Z" fill="#BF1C0E"/>
<path d="M36.1374 32.8535C36.4218 32.9008 36.6912 32.7149 36.739 32.4383C36.7869 32.1617 36.5951 31.8991 36.3106 31.8518C36.0262 31.8045 35.7567 31.9904 35.7089 32.267C35.6611 32.5436 35.8529 32.8062 36.1374 32.8535Z" fill="#BF1C0E"/>
<path d="M30.4734 30.8815L29.7866 30.7672L29.9021 30.0995C29.9251 29.9667 29.8928 29.8303 29.8125 29.7203C29.7322 29.6103 29.6103 29.5357 29.4737 29.513C29.3371 29.4903 29.1969 29.5213 29.0841 29.5992C28.9712 29.677 28.8949 29.7954 28.872 29.9282L28.7565 30.596L28.0697 30.4818C27.9331 30.4591 27.793 30.49 27.6801 30.5679C27.5673 30.6458 27.491 30.7641 27.468 30.8969C27.4451 31.0298 27.4773 31.1662 27.5576 31.2762C27.638 31.3862 27.7599 31.4607 27.8965 31.4834L28.5832 31.5976L28.4677 32.2654C28.4447 32.3982 28.477 32.5346 28.5573 32.6446C28.6376 32.7546 28.7596 32.8291 28.8962 32.8518C29.0328 32.8745 29.1729 32.8436 29.2857 32.7657C29.3986 32.6879 29.4749 32.5695 29.4978 32.4366L29.6133 31.7689L30.3001 31.8831C30.4367 31.9058 30.5768 31.8748 30.6897 31.797C30.8025 31.7191 30.8788 31.6008 30.9018 31.4679C30.9248 31.3351 30.8925 31.1987 30.8122 31.0887C30.7318 30.9787 30.61 30.9041 30.4734 30.8815Z" fill="#BF1C0E"/>
</g>
<path d="M61.504 34V17.2H64.864V34H61.504ZM77.0948 17.2H80.4548V34H77.0948V22.72L74.8628 25.624V27.304H71.5028V25.624L69.2708 22.72V34H65.9108V17.2H69.2708L73.1828 22.288L77.0948 17.2ZM92.7042 17.2H96.0642V34H92.7042V22.72L90.4722 25.624V27.304H87.1122V25.624L84.8802 22.72V34H81.5202V17.2H84.8802L88.7922 22.288L92.7042 17.2ZM109.442 20.56H100.49V23.92H107.21V27.28H100.49V30.64H109.442V34H97.1296V17.2H109.442V20.56ZM122.567 23.368L122.519 23.344C122.519 24.048 122.351 24.696 122.015 25.288C121.679 25.88 121.223 26.36 120.647 26.728L122.063 28.144C122.383 28.496 122.543 28.896 122.543 29.344V34H119.183V30.04L116.447 27.28H113.591V34H110.231V17.2H118.631C119.719 17.2 120.647 17.584 121.415 18.352C122.183 19.12 122.567 20.04 122.567 21.112V23.368ZM119.159 23.344L119.135 21.088C119.135 20.96 119.087 20.832 118.991 20.704C118.895 20.592 118.767 20.536 118.607 20.536H113.567V23.896H118.607C118.783 23.896 118.919 23.84 119.015 23.728C119.111 23.6 119.159 23.472 119.159 23.344ZM131.967 34L127.407 34.024C126.703 34.024 126.055 33.848 125.463 33.496C124.855 33.128 124.375 32.648 124.023 32.056C123.671 31.464 123.495 30.816 123.495 30.112V29.368H126.855V30.112C126.855 30.256 126.911 30.384 127.023 30.496C127.135 30.608 127.263 30.664 127.407 30.664H131.895C131.991 30.664 132.087 30.64 132.183 30.592C132.279 30.544 132.351 30.472 132.399 30.376C132.447 30.28 132.471 30.184 132.471 30.088V29.032C132.439 28.888 132.343 28.768 132.183 28.672L125.607 25.504L125.559 25.48C124.727 25.016 124.127 24.368 123.759 23.536C123.583 23.056 123.495 22.624 123.495 22.24V21.112C123.495 20.04 123.879 19.12 124.646 18.352C125.415 17.584 126.335 17.2 127.407 17.2H131.895C132.983 17.2 133.911 17.584 134.679 18.352C135.447 19.12 135.831 20.04 135.831 21.112V21.856H132.471V21.112C132.471 20.968 132.423 20.84 132.327 20.728C132.231 20.616 132.103 20.56 131.943 20.56H127.455C127.407 20.56 127.335 20.576 127.239 20.608C127.191 20.624 127.135 20.664 127.071 20.728C127.007 20.792 126.967 20.848 126.951 20.896C126.919 20.992 126.903 21.064 126.903 21.112V22.168C126.935 22.312 127.031 22.432 127.191 22.528L133.767 25.696L133.815 25.72C134.647 26.184 135.247 26.832 135.615 27.664C135.791 28.144 135.879 28.576 135.879 28.96V30.088C135.879 31.16 135.495 32.08 134.727 32.848C133.959 33.616 133.039 34 131.967 34ZM148.809 24.856L148.857 24.904C148.969 25.112 149.025 25.352 149.025 25.624V34.024H145.665V29.536H140.073V34.024H136.713V25.624C136.713 25.352 136.769 25.112 136.881 24.904L140.241 18.184C140.385 17.896 140.593 17.664 140.865 17.488C141.137 17.312 141.425 17.224 141.729 17.224H143.961C144.281 17.224 144.569 17.304 144.825 17.464C145.113 17.64 145.321 17.864 145.449 18.136L148.809 24.856ZM140.073 26.2H145.665V26.056L142.953 20.608H142.785L140.073 26.056V26.2ZM162.246 34H149.934V17.2H153.294V30.64H162.246V34ZM171.56 17.2H174.872V21.112C174.872 21.592 174.712 21.992 174.392 22.312L170.408 26.296V34H167.048V26.296L163.064 22.312C162.744 21.992 162.584 21.592 162.584 21.112V17.2H165.944V20.416L168.752 23.224L171.56 20.416V17.2ZM187.981 34H184.621L179.029 24.424V34H175.669V17.2H179.029L184.621 26.776V17.2H187.981V34ZM201.364 21.112C201.364 21.592 201.204 21.992 200.884 22.312L197.596 25.6L200.884 28.888C201.204 29.208 201.364 29.608 201.364 30.088V34H198.004V30.784L195.196 27.976L192.388 30.784V34H189.028V30.088C189.028 29.608 189.188 29.208 189.508 28.888L192.796 25.6L189.508 22.312C189.188 21.992 189.028 21.592 189.028 21.112V17.2H192.388V20.416L195.196 23.224L198.004 20.416V17.2H201.364V21.112Z" fill="#CC0D16"/>
<defs>
<filter id="filter0_d_426_405" x="0.865942" y="-1.21282" width="27.2605" height="55.797" filterUnits="userSpaceOnUse" color-interpolation-filters="sRGB">
<feFlood flood-opacity="0" result="BackgroundImageFix"/>
<feColorMatrix in="SourceAlpha" type="matrix" values="0 0 0 0 0 0 0 0 0 0 0 0 0 0 0 0 0 0 127 0" result="hardAlpha"/>
<feOffset dy="3"/>
<feGaussianBlur stdDeviation="3.55"/>
<feComposite in2="hardAlpha" operator="out"/>
<feColorMatrix type="matrix" values="0 0 0 0 1 0 0 0 0 0.823529 0 0 0 0 0.345098 0 0 0 0.25 0"/>
<feBlend mode="normal" in2="BackgroundImageFix" result="effect1_dropShadow_426_405"/>
<feBlend mode="normal" in="SourceGraphic" in2="effect1_dropShadow_426_405" result="shape"/>
</filter>
<filter id="filter1_d_426_405" x="14.7991" y="3.69111" width="47.1416" height="50.3347" filterUnits="userSpaceOnUse" color-interpolation-filters="sRGB">
<feFlood flood-opacity="0" result="BackgroundImageFix"/>
<feColorMatrix in="SourceAlpha" type="matrix" values="0 0 0 0 0 0 0 0 0 0 0 0 0 0 0 0 0 0 127 0" result="hardAlpha"/>
<feOffset dy="4"/>
<feGaussianBlur stdDeviation="4.35"/>
<feComposite in2="hardAlpha" operator="out"/>
<feColorMatrix type="matrix" values="0 0 0 0 1 0 0 0 0 0.823529 0 0 0 0 0.345098 0 0 0 0.25 0"/>
<feBlend mode="normal" in2="BackgroundImageFix" result="effect1_dropShadow_426_405"/>
<feBlend mode="normal" in="SourceGraphic" in2="effect1_dropShadow_426_405" result="shape"/>
</filter>
<linearGradient id="paint0_linear_426_405" x1="39.0122" y1="8.12882" x2="38.2421" y2="39.0515" gradientUnits="userSpaceOnUse">
<stop stop-color="#C0000D"/>
<stop offset="1" stop-color="#690102"/>
</linearGradient>
<linearGradient id="paint1_linear_426_405" x1="39.0121" y1="8.12917" x2="38.2421" y2="39.0518" gradientUnits="userSpaceOnUse">
<stop stop-color="#C0000D"/>
<stop offset="1" stop-color="#690102"/>
</linearGradient>
<linearGradient id="paint2_linear_426_405" x1="39.0122" y1="8.12882" x2="38.2422" y2="39.0515" gradientUnits="userSpaceOnUse">
<stop stop-color="#C0000D"/>
<stop offset="1" stop-color="#690102"/>
</linearGradient>
<linearGradient id="paint3_linear_426_405" x1="34.221" y1="17.9116" x2="39.6277" y2="48.0749" gradientUnits="userSpaceOnUse">
<stop stop-color="#FFD258"/>
<stop offset="0.262119" stop-color="#FFA700"/>
</linearGradient>
<clipPath id="clip0_426_405">
<rect width="47.2544" height="46.0229" fill="white" transform="translate(8.84625 0.361328) rotate(2.83396)"/>
</clipPath>
</defs>
</svg>
