<svg width="264" height="147" viewBox="0 0 264 147" fill="none" xmlns="http://www.w3.org/2000/svg">
<rect x="0.5" y="0.653809" width="262" height="145.077" rx="19.5" fill="#5B4A3B" stroke="#766F6F"/>
<g clip-path="url(#clip0_1483_452)">
<path d="M110.539 67.2007C108.204 67.2007 105.598 68.104 105.052 71.0776C104.993 71.3934 105.202 71.5442 105.403 71.5903L107.796 71.8784C108.017 71.8671 108.167 71.6252 108.21 71.3975C108.414 70.3742 109.253 69.8913 110.189 69.8913C110.694 69.8913 111.262 70.0656 111.561 70.5321C111.904 71.052 111.879 71.7585 111.879 72.3583V72.711C110.457 72.8751 108.585 72.9745 107.254 73.5764C105.717 74.2624 104.638 75.6579 104.638 77.7097C104.638 80.3387 106.242 81.6512 108.307 81.6512C110.051 81.6512 111.015 81.24 112.359 79.825C112.805 80.4915 112.948 80.794 113.763 81.4913C113.853 81.5429 113.957 81.5645 114.06 81.5531C114.163 81.5417 114.26 81.4978 114.337 81.4277V81.4595C114.827 81.0104 115.718 80.1942 116.219 79.7615C116.419 79.5933 116.375 79.3165 116.219 79.0888C115.771 78.451 115.294 77.9363 115.294 76.75V72.8084C115.294 71.1391 115.435 69.6 114.242 68.4506C113.299 67.5206 111.731 67.2007 110.539 67.2007ZM142.697 67.2007C140.361 67.2007 137.757 68.104 137.21 71.0776C137.152 71.3934 137.359 71.5442 137.561 71.5903L139.954 71.8784C140.176 71.8671 140.327 71.6252 140.369 71.3975C140.574 70.3742 141.411 69.8913 142.347 69.8913C142.853 69.8913 143.42 70.0656 143.719 70.5321C144.061 71.052 144.006 71.7585 144.006 72.3583V72.711C142.584 72.8751 140.744 72.9745 139.412 73.5764C137.875 74.2624 136.796 75.6579 136.796 77.7097C136.796 80.3387 138.401 81.6512 140.466 81.6512C142.207 81.6512 143.171 81.24 144.517 79.825C144.963 80.4915 145.107 80.794 145.921 81.4913C146.105 81.5897 146.333 81.5794 146.495 81.4277V81.4595C146.985 81.0104 147.876 80.1942 148.377 79.7615C148.577 79.5933 148.531 79.3165 148.377 79.0888C147.929 78.451 147.453 77.9363 147.453 76.75V72.8084C147.453 71.1391 147.56 69.6 146.368 68.4506C145.425 67.5206 143.89 67.2007 142.697 67.2007ZM124.608 67.3289C123.099 67.3289 121.98 68.0938 121.386 69.7323H121.354V68.0343C121.346 67.9179 121.297 67.8083 121.214 67.7258C121.132 67.6432 121.023 67.5933 120.907 67.5852H118.61C118.484 67.5871 118.363 67.6383 118.274 67.7281C118.184 67.8179 118.133 67.9391 118.131 68.0661V81.0432C118.142 81.1586 118.193 81.2666 118.274 81.3486C118.356 81.4305 118.464 81.4814 118.579 81.4923H121.035C121.161 81.491 121.282 81.4399 121.372 81.35C121.461 81.2601 121.512 81.1385 121.514 81.0114V74.1219C121.514 72.6198 121.441 70.5649 123.204 70.5649C124.945 70.5649 124.704 72.6762 124.704 74.1219V81.0114C124.704 81.2565 124.903 81.4759 125.151 81.4923H127.607C127.734 81.491 127.855 81.4399 127.944 81.35C128.034 81.2601 128.085 81.1385 128.086 81.0114V74.1219C128.086 73.3847 128.057 72.3111 128.31 71.6549C128.562 70.9987 129.182 70.5659 129.778 70.5659C130.488 70.5659 131.03 70.8151 131.213 71.6877C131.327 72.2065 131.276 73.5775 131.276 74.123V81.0124C131.276 81.2575 131.476 81.4769 131.724 81.4933H134.18C134.306 81.492 134.427 81.4409 134.517 81.351C134.606 81.2611 134.657 81.1395 134.659 81.0124V72.8095C134.659 71.416 134.799 69.8338 134.021 68.7398C133.334 67.7575 132.211 67.3299 131.182 67.3299C129.738 67.3299 128.395 68.0948 127.8 69.7333C127.112 68.0948 126.142 67.3289 124.608 67.3289ZM166.37 67.3289C162.82 67.3289 160.851 70.4634 160.851 74.5064C160.851 78.5218 162.799 81.7476 166.37 81.7476C169.805 81.7476 171.985 78.5956 171.985 74.6336C171.985 70.5393 170.01 67.3289 166.37 67.3289ZM180.374 67.3289C178.679 67.3289 177.71 68.1809 177.025 69.9559H176.993V67.9687C176.949 67.7677 176.76 67.6283 176.546 67.616H174.281C174.164 67.6133 174.05 67.6545 173.961 67.7314C173.873 67.8083 173.816 67.9156 173.802 68.0323V81.0093C173.804 81.1308 173.851 81.2471 173.934 81.3359C174.016 81.4246 174.129 81.4796 174.249 81.4902H176.674C176.8 81.4884 176.921 81.4371 177.01 81.3473C177.1 81.2575 177.151 81.1363 177.153 81.0093V74.0245C177.153 73.1489 177.226 72.3501 177.567 71.5575C177.843 70.9289 178.375 70.5321 178.971 70.5321C180.663 70.5321 180.502 72.6044 180.502 74.0245V81.0739C180.518 81.1843 180.571 81.2859 180.652 81.3617C180.734 81.4375 180.838 81.4829 180.949 81.4902H183.406C183.646 81.4902 183.856 81.3057 183.884 81.0739V72.9028C183.884 71.6467 183.887 69.9015 183.246 68.8649C182.559 67.7462 181.472 67.3289 180.374 67.3289ZM150.896 67.5534C150.647 67.5534 150.45 67.7523 150.449 68.0343V69.8923C150.45 70.1702 150.641 70.3711 150.896 70.3732H155.107L150.29 77.519C149.996 77.9794 149.971 78.5013 149.971 78.8007V80.6915C149.971 80.9642 150.266 81.2606 150.545 81.1078C153.29 79.6025 156.58 79.7358 159.063 81.076C159.364 81.2411 159.67 80.9314 159.67 80.6597V78.6725C159.663 78.526 159.618 78.3839 159.539 78.2602C159.461 78.1364 159.352 78.0354 159.222 77.9671C157.814 77.1529 156.178 76.9038 154.628 76.9417L158.808 70.7895C159.195 70.2368 159.411 69.9036 159.414 69.6359V68.0343C159.414 67.7585 159.227 67.5534 158.967 67.5534H150.896ZM166.37 69.9887C167.148 69.9887 167.721 70.3373 167.997 71.2386C168.316 72.2773 168.348 73.5744 168.348 74.6674C168.348 76.3326 168.271 79.0888 166.37 79.0888C164.447 79.0888 164.456 75.6764 164.456 74.0901C164.456 72.508 164.561 69.9887 166.37 69.9887ZM111.847 74.731V75.2755C111.847 76.2609 111.882 77.0904 111.4 77.9671C111.01 78.6797 110.397 79.1206 109.709 79.1206C108.77 79.1206 108.209 78.3557 108.209 77.2626C108.21 75.1073 110.074 74.731 111.847 74.731ZM144.005 74.731V75.2755C144.005 76.2609 144.041 77.0904 143.558 77.9671C143.168 78.6797 142.558 79.1206 141.867 79.1206C140.927 79.1206 140.368 78.3557 140.368 77.2626C140.369 75.1073 142.231 74.731 144.005 74.731Z" fill="white"/>
<path d="M159.925 81.9084V83.7664H161.169V81.9084H159.925ZM123.842 82.2284V95.4618H124.991V94.2765C125.236 94.7461 125.515 95.0978 125.852 95.3336C126.189 95.5694 126.576 95.6863 127.001 95.6863C127.844 95.6863 128.572 95.2536 129.202 94.3728C129.832 93.492 130.16 92.2155 130.16 90.5913C130.16 89.528 130.024 88.6472 129.745 87.8997C129.466 87.1542 129.094 86.5995 128.628 86.2335C128.163 85.8674 127.634 85.6572 127.065 85.6572C126.67 85.653 126.282 85.7641 125.948 85.9771C125.617 86.1904 125.348 86.538 125.087 86.9707V82.2284H123.842ZM135.647 85.3373C134.781 85.3373 134.094 85.5947 133.605 86.1063C133.116 86.6169 132.871 87.2763 132.871 88.0935C132.871 88.5682 132.977 88.9691 133.158 89.3434C133.339 89.7177 133.599 90.0181 133.924 90.2406C134.25 90.4631 134.902 90.7553 135.869 91.0732C136.539 91.2896 136.939 91.4741 137.114 91.6177C137.367 91.8279 137.497 92.1037 137.497 92.4831C137.497 92.9219 137.346 93.288 137.05 93.572C136.755 93.8581 136.344 93.9883 135.805 93.9883C135.266 93.9883 134.822 93.8366 134.497 93.5074C134.173 93.1783 133.997 92.6779 133.924 92.0012L132.679 92.2575C132.96 94.3134 133.981 95.3346 135.742 95.3336C136.681 95.3336 137.4 95.066 137.943 94.501C138.486 93.936 138.772 93.1732 138.772 92.2575C138.772 91.7633 138.685 91.3347 138.517 90.9758C138.348 90.6169 138.116 90.3513 137.814 90.1432C137.511 89.9361 136.835 89.6592 135.804 89.3106C135.055 89.0471 134.616 88.8543 134.465 88.7343C134.211 88.5313 134.082 88.2545 134.082 87.9017C134.082 87.5408 134.2 87.2352 134.465 87.0045C134.729 86.7738 135.136 86.6518 135.678 86.6518C136.629 86.6518 137.161 87.1768 137.272 88.2217L138.485 88.0289C138.401 87.3675 138.257 86.8456 138.038 86.4908C137.818 86.136 137.494 85.8366 137.08 85.6254C136.668 85.4152 136.193 85.3373 135.647 85.3373ZM143.272 85.3373C142.275 85.3373 141.433 85.7495 140.783 86.619C140.133 87.4885 139.825 88.7477 139.825 90.4006C139.825 91.993 140.139 93.2408 140.783 94.0857C141.427 94.9296 142.262 95.3357 143.304 95.3357C144.132 95.3357 144.818 95.0865 145.377 94.5666C145.938 94.0468 146.344 93.2818 146.557 92.2596L145.281 92.035C144.915 93.3444 144.239 93.9873 143.303 93.9894C142.706 93.9894 142.219 93.7351 141.803 93.1885C141.386 92.641 141.151 91.8289 141.101 90.7533H146.588V90.3042C146.588 88.6872 146.267 87.4731 145.63 86.619C144.995 85.7649 144.222 85.3373 143.272 85.3373ZM150.833 85.3373C150.535 85.3373 150.274 85.4388 150.035 85.6572C149.797 85.8756 149.525 86.3288 149.238 87.0025V85.528H148.121V95.1091H149.366V90.1114C149.366 89.4142 149.431 88.7436 149.589 88.1242C149.679 87.7695 149.849 87.4895 150.068 87.2916C150.288 87.0937 150.538 87.0035 150.802 87.0035C151.095 87.0035 151.386 87.1214 151.695 87.3562L152.11 85.85C151.675 85.5013 151.249 85.3373 150.833 85.3373ZM166.082 85.3373C165.097 85.3373 164.285 85.7536 163.657 86.5872C163.031 87.4198 162.7 88.6708 162.7 90.336C162.7 91.9878 163.035 93.2398 163.657 94.0847C164.279 94.9286 165.057 95.3346 166.018 95.3346C166.811 95.3346 167.493 95.0383 168.059 94.4374C168.626 93.8366 168.971 92.9527 169.112 91.8104L167.899 91.6177C167.809 92.4349 167.597 93.0224 167.261 93.4121C166.925 93.7997 166.521 93.9883 166.048 93.9883C165.446 93.9883 164.933 93.7064 164.549 93.1229C164.164 92.5395 163.975 91.6064 163.975 90.3031C163.975 89.0399 164.178 88.1283 164.581 87.547C164.984 86.9656 165.498 86.6498 166.113 86.6498C166.523 86.6498 166.873 86.8097 167.165 87.1307C167.459 87.4506 167.654 87.9592 167.772 88.6051L168.984 88.3488C168.838 87.3398 168.516 86.578 167.995 86.0735C167.474 85.568 166.842 85.3373 166.082 85.3373ZM173.197 85.3373C172.199 85.3373 171.358 85.7495 170.708 86.619C170.057 87.4885 169.75 88.7477 169.75 90.4006C169.75 91.993 170.063 93.2408 170.708 94.0857C171.353 94.9296 172.187 95.3357 173.228 95.3357C174.054 95.3357 174.741 95.0865 175.302 94.5666C175.861 94.0468 176.267 93.2818 176.482 92.2596L175.206 92.035C174.839 93.3444 174.193 93.9873 173.26 93.9894C172.664 93.9894 172.145 93.7351 171.729 93.1885C171.312 92.641 171.077 91.8289 171.026 90.7533H176.513V90.3042C176.513 88.6872 176.193 87.4731 175.556 86.619C174.923 85.7649 174.148 85.3373 173.197 85.3373ZM180.566 85.3373C179.699 85.3373 179.014 85.5947 178.525 86.1063C178.035 86.6169 177.791 87.2763 177.791 88.0935C177.791 88.5682 177.865 88.9691 178.046 89.3434C178.225 89.7166 178.485 90.0181 178.811 90.2406C179.136 90.4631 179.791 90.7553 180.757 91.0732C181.425 91.2896 181.859 91.4741 182.033 91.6177C182.287 91.8279 182.416 92.1037 182.416 92.4831C182.416 92.9219 182.265 93.288 181.969 93.572C181.675 93.8581 181.264 93.9883 180.725 93.9883C180.185 93.9883 179.742 93.8366 179.417 93.5074C179.092 93.1783 178.883 92.6779 178.81 92.0012L177.566 92.2575C177.847 94.3134 178.866 95.3346 180.629 95.3336C181.569 95.3336 182.318 95.066 182.862 94.501C183.407 93.936 183.691 93.1732 183.691 92.2575C183.691 91.7633 183.605 91.3347 183.436 90.9758C183.268 90.6169 183.005 90.3513 182.702 90.1432C182.4 89.9361 181.755 89.6592 180.724 89.3106C179.974 89.0471 179.504 88.8543 179.352 88.7343C179.097 88.5313 178.969 88.2545 178.969 87.9017C178.969 87.5408 179.119 87.2352 179.383 87.0045C179.648 86.7738 180.057 86.6518 180.596 86.6518C181.547 86.6518 182.079 87.1768 182.191 88.2217L183.403 88.0289C183.319 87.3675 183.177 86.8456 182.956 86.4908C182.722 86.1197 182.391 85.8203 181.999 85.6254C181.589 85.4152 181.112 85.3373 180.566 85.3373ZM152.109 85.529L154.885 95.1101H156.065L158.841 85.529H157.565L155.937 91.3931C155.74 92.1016 155.567 92.7138 155.458 93.2193C155.323 92.5825 155.193 91.914 155.011 91.2649L153.417 85.529H152.109ZM159.925 85.529V95.1101H161.169V85.529H159.925ZM119.026 85.6572C118.038 85.6572 117.244 86.1022 116.601 86.9707C115.957 87.8402 115.612 89.0994 115.612 90.7523C115.612 92.3447 115.93 93.5607 116.569 94.4046C117.209 95.2485 118.059 95.6863 119.09 95.6863C119.909 95.6863 120.577 95.4054 121.132 94.8855C121.685 94.3657 122.068 93.6007 122.28 92.5784L121.036 92.3857C120.673 93.6951 120.015 94.338 119.09 94.34C118.499 94.34 118.003 94.0857 117.59 93.5392C117.178 92.9917 116.938 92.1796 116.888 91.104H122.311L122.343 90.6549C122.343 89.0378 122.016 87.792 121.385 86.9379C120.754 86.0838 119.966 85.6572 119.026 85.6572ZM105.02 85.8818L107.254 95.4628H108.562L110.03 88.0925L110.285 89.7269L111.465 95.4628H112.741L115.006 85.8818H113.826L112.582 91.4249L112.167 93.2829L111.784 91.4249L110.7 85.8818H109.424L108.276 91.4895L107.893 93.4767L107.446 91.4259L106.297 85.8828L105.02 85.8818ZM184.426 85.9781V86.4273H185.639V89.6315H186.118V86.4273H187.331V85.9781H184.426ZM187.809 85.9781V89.6305H188.256V86.5226L189.308 89.6305H189.755L190.808 86.5862V89.6305H191.287V85.9781H190.617L189.755 88.5416C189.669 88.7979 189.606 88.9835 189.564 89.1178L189.372 88.5734L188.51 85.9781H187.809ZM143.239 86.6508C143.859 86.6508 144.369 86.9522 144.771 87.548C145.046 87.9561 145.225 88.5775 145.281 89.406H141.166C141.205 88.5651 141.442 87.9161 141.836 87.4188C142.23 86.9215 142.683 86.6508 143.239 86.6508ZM173.165 86.6508C173.783 86.6508 174.295 86.9522 174.696 87.548C174.972 87.9561 175.151 88.5775 175.207 89.406H171.091C171.13 88.5651 171.367 87.9161 171.761 87.4188C172.154 86.9235 172.607 86.6508 173.165 86.6508ZM119.026 87.0035C119.638 87.0035 120.13 87.305 120.525 87.9007C120.798 88.3088 120.98 88.9302 121.036 89.7587H116.984C117.023 88.9179 117.23 88.237 117.622 87.7397C118.011 87.2434 118.473 87.0035 119.026 87.0035ZM126.938 87.0035C127.491 87.0035 127.962 87.3121 128.341 87.9007C128.721 88.4903 128.883 89.3988 128.883 90.6569C128.883 91.8822 128.704 92.7958 128.31 93.4131C127.916 94.0304 127.446 94.3421 126.938 94.3421C126.564 94.3421 126.224 94.216 125.917 93.9576C125.608 93.6992 125.383 93.329 125.214 92.8358C125.046 92.3426 124.959 91.5838 124.959 90.5923C124.959 89.4244 125.166 88.5498 125.566 87.9325C125.965 87.3152 126.429 87.0035 126.938 87.0035Z" fill="white"/>
<path d="M87.1379 76.8454L82.3846 78.8962L86.7867 80.7869L91.8912 78.8962L87.1379 76.8454ZM79.9916 79.4088L79.8323 88.6372L86.7867 91.7133V82.1322L79.9916 79.4088ZM94.2841 79.4088L87.9995 81.8123V90.8479L94.2841 88.2844V79.4088ZM101.782 50.6985L96.9956 52.7492L101.43 54.64L106.535 52.7492L101.782 50.6985ZM95.1458 53.4229V62.6512L101.079 64.382L101.271 55.9863L95.1458 53.4229ZM108.417 53.9356L102.803 56.339V65.4074L108.417 62.844V53.9356ZM79.3055 63.6868L74.5522 65.7376L78.9544 67.6284L84.0588 65.7376L79.3055 63.6868ZM72.1593 66.2503L72 75.4786L78.9544 78.5547V68.9737L72.1593 66.2503ZM86.4518 66.2503L80.1672 68.6537V77.6893L86.4518 75.1259V66.2503ZM94.619 63.3464L89.8657 65.3972L94.2678 67.2879L99.3723 65.3972L94.619 63.3464ZM87.4727 65.9098L87.3135 75.1382L94.2678 78.2143V68.6343L87.4727 65.9098ZM101.765 65.9098L95.4806 68.3133V77.3489L101.765 74.7854V65.9098ZM116.739 50.6985L111.985 52.7492L116.388 54.64L121.492 52.7492L116.739 50.6985ZM109.592 53.2619L109.433 62.4902L116.388 65.5663V55.9863L109.592 53.2619ZM123.885 53.2619L117.6 55.6654V64.7009L123.885 62.1375V53.2619Z" fill="white"/>
</g>
<defs>
<clipPath id="clip0_1483_452">
<rect width="119.286" height="45" fill="white" transform="translate(72 50.6924)"/>
</clipPath>
</defs>
</svg>
