<svg width="264" height="147" viewBox="0 0 264 147" fill="none" xmlns="http://www.w3.org/2000/svg">
<rect x="0.5" y="0.5" width="262" height="145.077" rx="19.5" fill="#5B4A3B" stroke="#766F6F"/>
<g clip-path="url(#clip0_1483_392)">
<path d="M178.323 70.9003C177.918 70.8073 177.513 70.7762 177.108 70.8383C176.889 70.8693 176.702 70.9003 176.515 70.9623C176.36 71.0243 176.235 71.0864 176.11 71.1794C175.923 71.3344 175.799 71.5205 175.767 71.7376C175.736 71.9237 175.799 72.1097 175.923 72.2648C176.079 72.4509 176.297 72.5749 176.484 72.6679C176.671 72.761 176.889 72.823 177.076 72.854C177.326 72.916 177.544 72.9781 177.793 73.0091C178.354 73.1331 178.884 73.2572 179.414 73.4742C180.349 73.8464 181.221 74.4356 181.595 75.459C181.751 75.8931 181.782 76.3583 181.72 76.8235C181.658 77.3817 181.408 77.9089 181.097 78.343C180.847 78.6842 180.504 78.9633 180.131 79.1803C179.632 79.4905 179.071 79.6765 178.479 79.7696C178.042 79.8626 177.575 79.8626 177.139 79.8626C176.578 79.8316 176.017 79.7696 175.487 79.6145C174.49 79.3354 173.617 78.8702 172.807 78.219C173.243 77.6298 173.679 77.0406 174.116 76.4513C174.614 76.8235 175.113 77.1336 175.705 77.3507C176.079 77.5057 176.484 77.5988 176.889 77.6298C177.263 77.6608 177.637 77.6918 177.98 77.6298C178.229 77.5988 178.51 77.5367 178.728 77.4127C178.915 77.3197 179.071 77.1956 179.196 77.0406C179.289 76.9165 179.383 76.7304 179.383 76.5754C179.414 76.3893 179.351 76.2032 179.258 76.0482C179.133 75.8621 178.977 75.7071 178.79 75.614C178.541 75.459 178.292 75.3659 178.011 75.3039C177.7 75.2109 177.357 75.1489 177.045 75.0868C176.11 74.9008 175.051 74.6527 174.272 73.9704C173.898 73.6603 173.617 73.2572 173.492 72.792C173.337 72.2958 173.337 71.7376 173.461 71.2414C173.586 70.8383 173.773 70.4351 174.053 70.125C174.427 69.6598 174.926 69.3497 175.456 69.1016C175.861 68.9156 176.297 68.8225 176.734 68.7605C177.295 68.6985 177.887 68.6985 178.448 68.7915C179.445 68.9466 180.411 69.3187 181.221 69.9079C180.816 70.4661 180.38 71.0243 179.975 71.6136C179.476 71.2414 178.915 71.0243 178.323 70.9003ZM157.941 63.5506H155.448V79.5215H157.941V63.5506ZM170.75 79.5525C170.75 76.1102 170.75 72.6369 170.75 69.1947C169.908 69.1947 169.098 69.1947 168.257 69.1947C168.257 69.8459 168.257 73.4122 168.257 74.0945C168.257 74.3736 168.257 74.6527 168.226 74.9628C168.226 75.1489 168.194 75.3349 168.163 75.521C168.101 75.8621 167.976 76.2032 167.789 76.4823C167.322 77.1956 166.512 77.5367 165.701 77.5677C164.86 77.5677 164.081 77.2266 163.613 76.4823C163.426 76.1722 163.333 75.8621 163.27 75.521C163.177 75.0558 163.146 74.5907 163.146 74.1255C163.146 73.8154 163.146 73.5363 163.146 73.2261C163.146 72.699 163.146 72.2028 163.146 71.6756C163.146 70.8693 163.146 70.032 163.146 69.2257C162.304 69.2257 161.494 69.2257 160.653 69.2257C160.653 70.063 160.653 72.5749 160.653 73.4122C160.653 73.8154 160.653 74.2185 160.684 74.6217C160.684 74.9318 160.715 75.2109 160.746 75.521C160.808 76.2343 160.933 76.8855 161.245 77.5367C161.899 78.8392 163.177 79.6145 164.61 79.7696C165.296 79.8626 166.013 79.8006 166.699 79.5835C167.353 79.3974 168.039 79.0563 168.506 78.5601C168.537 78.9012 168.537 79.2114 168.568 79.5525C169.316 79.5525 170.033 79.5525 170.75 79.5525ZM140.925 78.219C140.364 77.6298 139.803 77.0406 139.211 76.4823C138.775 76.8855 138.245 77.1646 137.653 77.2886C137.061 77.4127 136.469 77.4127 135.877 77.2266C135.316 77.0406 134.817 76.6994 134.474 76.2032C134.131 75.7071 133.944 75.1178 133.913 74.5286C133.882 73.9394 134.007 73.3192 134.256 72.823C134.537 72.2648 134.973 71.8927 135.534 71.6446C135.783 71.5515 136.032 71.4585 136.282 71.4275C136.625 71.3655 136.936 71.3655 137.279 71.3965C137.871 71.4585 138.432 71.6756 138.931 72.0167C139.429 71.3965 139.928 70.7452 140.427 70.125C139.554 69.4427 138.588 69.0706 137.497 68.9466C136.438 68.8225 135.347 69.0086 134.381 69.4427C133.383 69.9079 132.604 70.6522 132.106 71.6136C131.607 72.5439 131.389 73.6293 131.451 74.6837C131.514 75.7381 131.825 76.7925 132.449 77.6608C133.072 78.5601 133.944 79.1803 134.973 79.5215C135.97 79.8626 137.092 79.9246 138.152 79.7075C139.211 79.4905 140.177 78.9943 140.925 78.219ZM152.519 79.5525C152.519 76.1102 152.519 72.6369 152.519 69.1947C151.677 69.1947 150.867 69.1947 150.025 69.1947C150.025 69.8459 150.025 73.4122 150.025 74.0945C150.025 74.3736 150.025 74.6527 149.994 74.9628C149.994 75.1489 149.963 75.3349 149.932 75.521C149.87 75.8621 149.745 76.2032 149.558 76.4823C149.09 77.1956 148.28 77.5367 147.47 77.5677C146.628 77.5677 145.849 77.2266 145.382 76.4823C145.195 76.1722 145.101 75.8621 145.039 75.521C144.946 75.0558 144.914 74.5907 144.914 74.1255C144.914 73.8154 144.914 73.5363 144.914 73.2261C144.914 72.699 144.914 72.2028 144.914 71.6756C144.914 70.8693 144.914 70.032 144.914 69.2257C144.073 69.2257 143.263 69.2257 142.421 69.2257C142.421 70.063 142.421 72.5749 142.421 73.4122C142.421 73.8154 142.421 74.2185 142.452 74.6217C142.452 74.9318 142.484 75.2109 142.515 75.521C142.577 76.2343 142.702 76.8855 143.013 77.5367C143.668 78.8392 144.946 79.6145 146.379 79.7696C147.065 79.8626 147.782 79.8006 148.467 79.5835C149.122 79.3974 149.807 79.0563 150.275 78.5601C150.306 78.9012 150.306 79.2114 150.337 79.5525C151.085 79.5525 151.802 79.5525 152.519 79.5525ZM129.613 74.3736C129.613 75.8001 129.083 77.1956 128.054 78.219C127.026 79.2424 125.623 79.7696 124.19 79.7696C122.756 79.7696 121.354 79.2114 120.325 78.188C119.297 77.1646 118.798 75.7381 118.798 74.3115C118.798 72.885 119.328 71.4895 120.357 70.4661C121.385 69.4427 122.787 68.9156 124.221 68.9156C125.655 68.9156 127.057 69.4738 128.085 70.4971C129.114 71.5515 129.613 72.947 129.613 74.3736ZM127.182 74.3736C127.182 74.1565 127.151 73.9394 127.119 73.7533C127.088 73.5673 127.026 73.3502 126.964 73.1641C126.901 72.9781 126.808 72.823 126.714 72.6369C126.621 72.4819 126.496 72.3268 126.371 72.2028C126.247 72.0787 126.091 71.9547 125.935 71.8616C125.779 71.7686 125.592 71.6756 125.436 71.5825C125.25 71.5205 125.063 71.4585 124.876 71.4275C124.689 71.3965 124.47 71.3655 124.252 71.3655C124.034 71.3655 123.847 71.3965 123.629 71.4275C123.442 71.4585 123.255 71.5205 123.068 71.5825C122.881 71.6446 122.725 71.7376 122.569 71.8616C122.414 71.9547 122.258 72.0787 122.133 72.2028C122.008 72.3268 121.884 72.4819 121.79 72.6369C121.697 72.792 121.603 72.9781 121.51 73.1641C121.447 73.3502 121.385 73.5363 121.354 73.7533C121.323 73.9704 121.292 74.1565 121.292 74.3736C121.292 74.5907 121.323 74.8077 121.354 74.9938C121.385 75.1799 121.447 75.3969 121.51 75.583C121.572 75.7691 121.666 75.9241 121.759 76.1102C121.853 76.2653 121.977 76.4203 122.102 76.5444C122.227 76.6684 122.382 76.7925 122.538 76.8855C122.694 76.9785 122.881 77.0716 123.037 77.1646C123.224 77.2266 123.411 77.2886 123.598 77.3197C123.785 77.3507 124.003 77.3817 124.221 77.3817C124.439 77.3817 124.626 77.3507 124.844 77.3197C125.031 77.2886 125.218 77.2266 125.405 77.1646C125.592 77.1026 125.748 77.0095 125.904 76.8855C126.06 76.7925 126.216 76.6684 126.34 76.5444C126.465 76.4203 126.59 76.2653 126.683 76.1102C126.777 75.9552 126.87 75.7691 126.964 75.583C127.026 75.3969 127.088 75.2109 127.119 74.9938C127.151 74.8077 127.182 74.5907 127.182 74.3736ZM108.545 74.1875C108.545 77.8469 106.862 81.3201 103.995 83.615C102.562 84.7624 100.941 85.5377 99.1647 85.9719C98.1362 86.2199 97.139 86.313 96.0794 86.344C95.3003 86.375 94.5211 86.375 93.7732 86.375C90.0958 86.375 86.4495 86.375 82.7721 86.375C81.9929 86.375 81.2138 86.375 80.4659 86.344C79.4374 86.313 78.409 86.1889 77.3806 85.9719C75.6042 85.5377 73.9836 84.7624 72.55 83.615C69.6829 81.3201 68 77.8469 68 74.1875C68 70.5282 69.6829 67.0549 72.55 64.76C73.9836 63.6126 75.6042 62.8373 77.3806 62.4031C78.409 62.1551 79.4063 62.062 80.4659 62.031C81.245 62 82.0241 62 82.7721 62C86.4495 62 90.0958 62 93.7732 62C94.5523 62 95.3314 62 96.0794 62.031C97.1078 62.062 98.1362 62.1861 99.1647 62.4031C100.941 62.8373 102.562 63.6126 103.995 64.76C106.894 67.0549 108.545 70.5282 108.545 74.1875ZM100.38 74.1875C100.38 72.885 99.7256 71.6446 98.6349 70.9003C98.1051 70.5281 97.4818 70.3111 96.8585 70.187C96.204 70.094 95.5807 70.094 94.9263 70.094C90.5009 70.094 86.0443 70.094 81.619 70.094C80.9645 70.094 80.3412 70.063 79.6868 70.187C79.0323 70.2801 78.4402 70.5281 77.9104 70.9003C76.8196 71.6446 76.1651 72.854 76.1651 74.1875C76.1651 75.49 76.8196 76.7304 77.9104 77.4747C78.4402 77.8469 79.0635 78.0639 79.6868 78.188C80.3412 78.281 80.9645 78.281 81.619 78.281C86.0443 78.281 90.5009 78.281 94.9263 78.281C95.5807 78.281 96.204 78.312 96.8585 78.188C97.5129 78.0949 98.1051 77.8469 98.6349 77.4747C99.7256 76.7304 100.38 75.49 100.38 74.1875Z" fill="white"/>
</g>
<defs>
<clipPath id="clip0_1483_392">
<rect width="113.75" height="25" fill="white" transform="translate(68 62)"/>
</clipPath>
</defs>
</svg>
