<svg width="264" height="147" viewBox="0 0 264 147" fill="none" xmlns="http://www.w3.org/2000/svg">
<rect x="0.5" y="0.5" width="262" height="145.077" rx="19.5" fill="#5B4A3B" stroke="#766F6F"/>
<g clip-path="url(#clip0_1483_384)">
<path d="M108.565 80.8493L106.697 83.9943C106.367 84.5906 105.762 84.9156 105.103 84.9156H83.8333C83.1735 84.9156 82.5695 84.5906 82.2396 83.9943L80.3707 80.8493C80.0408 80.3081 80.0408 79.6031 80.3707 79.0068L91.0883 60.8443C91.4181 60.2481 92.0221 59.9231 92.6819 59.9231H96.3639C97.0237 59.9231 97.6289 60.2481 97.9575 60.8443L108.621 79.0068C108.95 79.5493 108.95 80.2531 108.565 80.8493ZM102.245 76.4043C101.476 72.9343 99.6615 69.8443 97.1341 67.5668C95.6496 66.2118 93.3962 66.2118 91.913 67.5668C89.3297 69.8981 87.5153 72.9343 86.801 76.4043C86.4165 78.3018 87.5711 80.1456 89.4388 80.7418C91.0337 81.2293 92.7364 81.5006 94.4963 81.5006C96.2548 81.5006 97.9575 81.2293 99.5524 80.7418C101.476 80.1993 102.575 78.3018 102.245 76.4043Z" fill="white"/>
<path d="M131.318 67.1881L124.888 79.6568C124.779 79.8743 124.559 79.9831 124.338 79.9831H122.195C121.976 79.9831 121.755 79.8743 121.646 79.6568L115.216 67.1881C115.105 66.9706 115.105 66.7543 115.216 66.5368L115.93 65.3443C116.039 65.1281 116.314 64.9656 116.59 64.9656H117.194C117.359 64.9656 117.524 65.0731 117.578 65.1818L122.964 75.7543C123.075 75.9706 123.404 75.9706 123.514 75.7543L128.9 65.1818C128.955 65.0193 129.12 64.9656 129.285 64.9656H129.889C130.165 64.9656 130.384 65.1281 130.549 65.3443L131.263 66.5368C131.374 66.6993 131.374 66.9706 131.318 67.1881ZM140.552 65.1281C140.442 65.0193 140.277 64.9656 140.112 64.9656H139.122C138.848 64.9656 138.627 65.1281 138.463 65.3443L137.804 66.5368C137.748 66.6456 137.694 66.7543 137.694 66.8631V79.3856C137.694 79.7118 137.969 79.9831 138.299 79.9831H140.057C140.387 79.9831 140.661 79.7118 140.661 79.3856V65.5618C140.661 65.3993 140.661 65.2356 140.552 65.1281ZM163.085 67.1881L156.655 79.6568C156.545 79.8743 156.325 79.9831 156.105 79.9831H153.962C153.741 79.9831 153.522 79.8743 153.413 79.6568L146.983 67.1881C146.872 66.9706 146.872 66.7543 146.983 66.5368L147.641 65.3443C147.751 65.1281 148.027 64.9656 148.301 64.9656H148.906C149.071 64.9656 149.235 65.0731 149.29 65.1818L154.677 75.7543C154.786 75.9706 155.116 75.9706 155.226 75.7543L160.612 65.1818C160.667 65.0193 160.831 64.9656 160.996 64.9656H161.602C161.876 64.9656 162.095 65.1281 162.26 65.3443L162.976 66.5368C163.195 66.6993 163.195 66.9706 163.085 67.1881ZM170.34 65.3443C170.45 65.1281 170.724 64.9656 171 64.9656H180.177C180.452 64.9656 180.672 65.1281 180.782 65.3443L181.442 66.4293C181.551 66.5918 181.607 66.7543 181.607 66.9706V67.2418C181.607 67.4593 181.442 67.6756 181.167 67.6756H172.758C172.593 67.6756 172.428 67.8381 172.428 68.0006V70.8206C172.428 70.9831 172.539 71.1456 172.758 71.1456H178.418C178.694 71.1456 178.913 71.3618 178.913 71.6331V73.2593C178.913 73.5306 178.694 73.7481 178.418 73.7481H172.758C172.593 73.7481 172.428 73.8568 172.428 74.0731V77.0006C172.428 77.1631 172.539 77.3256 172.758 77.3256H181.167C181.386 77.3256 181.607 77.4881 181.607 77.7593V78.0306C181.607 78.1931 181.551 78.4106 181.442 78.5731L180.782 79.6568C180.672 79.8743 180.398 80.0368 180.177 80.0368H171C170.724 80.0368 170.505 79.8743 170.34 79.6568L169.68 78.5731C169.57 78.4106 169.515 78.2481 169.515 78.0306V66.9706C169.515 66.8081 169.57 66.5918 169.68 66.4293L170.34 65.3443Z" fill="white"/>
</g>
<defs>
<clipPath id="clip0_1483_384">
<rect width="101.667" height="25" fill="white" transform="translate(80 59.9231)"/>
</clipPath>
</defs>
</svg>
