<svg width="263" height="147" viewBox="0 0 263 147" fill="none" xmlns="http://www.w3.org/2000/svg">
<rect x="0.5" y="0.653809" width="262" height="145.077" rx="19.5" fill="#5B4A3B" stroke="#766F6F"/>
<path d="M121.277 103.423C120.272 103.184 119.431 102.627 118.255 101.42C116.289 99.4037 114.694 98.5643 111.922 98.0869C109.045 97.5918 107.768 96.5229 106.999 93.9696C106.051 90.8181 105.06 89.3089 102.882 87.7001C100.411 85.875 99.7768 84.2653 100.38 81.3489C100.938 78.6479 100.724 76.7273 99.59 74.2578C98.2361 71.312 98.4032 69.7378 100.326 67.3236C102.088 65.1111 102.641 63.6481 102.905 60.5032C103.172 57.3289 104.055 56.0268 106.656 54.9731C108.826 54.0936 110.683 52.5666 111.712 50.8152C112.903 48.7895 113.076 48.5574 113.814 48.007C115.005 47.1188 115.967 46.873 117.8 46.9878C120.984 47.1874 122.69 46.805 124.828 45.4131C127.615 43.5986 129.306 43.5986 132.093 45.4131C134.231 46.805 135.938 47.1874 139.121 46.9878C142.132 46.7989 143.385 47.589 145.22 50.8355C146.129 52.4437 147.988 54.0093 150.023 54.8802C152.92 56.1203 153.762 57.2522 153.976 60.1934C154.208 63.379 154.861 65.1599 156.591 67.3236C158.518 69.7332 158.686 71.309 157.331 74.2578C156.197 76.7273 155.983 78.6479 156.541 81.3489C157.144 84.2653 156.51 85.875 154.04 87.7001C151.862 89.3089 150.87 90.8181 149.922 93.9696C149.153 96.5229 147.875 97.5918 145 98.0869C142.221 98.5653 140.624 99.4072 138.666 101.427C136.496 103.665 134.94 104.034 131.906 103.031C129.424 102.211 127.513 102.207 125.042 103.019C123.31 103.587 122.387 103.686 121.277 103.423Z" fill="black" fill-opacity="0.2"/>
<path d="M121.277 102.828C120.272 102.589 119.431 102.032 118.255 100.825C116.289 98.809 114.694 97.9691 111.922 97.4922C109.045 96.9971 107.768 95.9276 106.999 93.3749C106.051 90.2229 105.06 88.7137 102.882 87.1049C100.411 85.2798 99.7768 83.6706 100.38 80.7537C100.938 78.0526 100.724 76.1321 99.59 73.6626C98.2361 70.7168 98.4032 69.1426 100.326 66.7289C102.088 64.5159 102.641 63.0534 102.905 59.908C103.172 56.7337 104.055 55.4316 106.656 54.3779C108.826 53.4984 110.683 51.9714 111.712 50.22C112.903 48.1943 113.076 47.9622 113.814 47.4117C115.005 46.5236 115.967 46.2778 117.8 46.3926C120.984 46.5921 122.69 46.2098 124.828 44.8178C127.615 43.0034 129.306 43.0034 132.093 44.8178C134.231 46.2098 135.938 46.5921 139.121 46.3926C142.132 46.2037 143.385 46.9938 145.22 50.2403C146.129 51.8485 147.988 53.4141 150.023 54.285C152.92 55.5251 153.762 56.657 153.976 59.5982C154.208 62.7837 154.861 64.5646 156.591 66.7289C158.518 69.138 158.686 70.7137 157.331 73.6626C156.197 76.1321 155.983 78.0526 156.541 80.7537C157.144 83.6706 156.51 85.2798 154.04 87.1049C151.862 88.7137 150.87 90.2229 149.922 93.3749C149.153 95.9276 147.875 96.9971 145 97.4922C142.221 97.9701 140.624 98.8125 138.666 100.832C136.496 103.07 134.94 103.439 131.906 102.436C129.424 101.616 127.513 101.612 125.042 102.424C123.31 102.992 122.387 103.091 121.277 102.828Z" fill="white"/>
<path d="M139.127 70.6878C138.94 70.3049 139.1 69.8463 139.483 69.659C139.865 69.4716 140.324 69.632 140.511 70.0144C140.699 70.3968 140.538 70.8559 140.156 71.0433C139.774 71.2306 139.315 71.0702 139.127 70.6878ZM142.848 78.3354C142.661 77.9531 142.821 77.494 143.203 77.3066C143.586 77.1192 144.045 77.2802 144.232 77.6626C144.42 78.045 144.259 78.5035 143.877 78.6909C143.494 78.8783 143.035 78.7178 142.848 78.3354ZM143.173 68.4123C140.726 66.6649 137.533 66.2135 134.577 67.357L142.656 83.9717C145.379 82.3543 146.993 79.5593 147.131 76.5571L150.197 76.7754C150.239 76.7784 150.282 76.773 150.322 76.7596C150.361 76.7462 150.398 76.725 150.43 76.6972C150.462 76.6694 150.487 76.6356 150.506 76.5978C150.524 76.56 150.535 76.5189 150.538 76.4769C150.541 76.4349 150.535 76.3927 150.522 76.3528C150.509 76.3129 150.488 76.2761 150.46 76.2444C150.432 76.2128 150.398 76.1869 150.361 76.1684C150.323 76.1499 150.282 76.1391 150.24 76.1366L147.134 75.9147C147.104 74.6071 146.791 73.2726 146.167 71.9878C145.544 70.7066 144.687 69.6361 143.678 68.8023L145.422 66.2211C145.467 66.1511 145.484 66.0659 145.468 65.9838C145.451 65.9017 145.403 65.8294 145.334 65.7822C145.265 65.7351 145.18 65.717 145.098 65.7319C145.015 65.7467 144.942 65.7933 144.894 65.8615L143.173 68.4087" fill="#363636"/>
<path d="M135.724 74.668C133.445 75.7695 130.994 76.3275 128.439 76.3275C125.656 76.3296 122.916 75.6386 120.467 74.3168C118.017 72.995 115.936 71.0841 114.409 68.7566C114.169 68.3894 113.672 68.3016 113.316 68.5616L110.383 70.7218C110.05 70.9666 109.974 71.4332 110.207 71.7775C112.213 74.771 114.927 77.2238 118.107 78.9192C121.287 80.6145 124.836 81.5001 128.439 81.4976C131.778 81.4976 134.986 80.7673 137.972 79.3257L135.724 74.668ZM126.826 56.2867H130V52.7803C130 51.9043 129.288 51.1934 128.413 51.1934C127.537 51.1934 126.826 51.9043 126.826 52.7803V56.2867Z" fill="#010101"/>
<path d="M124.283 63.1315L113.373 85.5854C113.137 86.0697 113.009 86.5993 112.998 87.1378L112.933 90.0786C112.918 90.8398 113.798 91.2679 114.387 90.786L116.658 88.9197C117.075 88.5784 117.413 88.1506 117.648 87.666L128.401 65.5289L124.286 63.1351L124.283 63.1315ZM143.831 87.1343C143.819 86.595 143.689 86.0674 143.456 85.5819L132.547 63.1274L128.432 65.5289L139.185 87.6578C139.421 88.142 139.759 88.5697 140.175 88.9121L142.446 90.7783C143.035 91.2603 143.918 90.8317 143.9 90.071L143.835 87.1302L143.831 87.1343Z" fill="#010101"/>
<path d="M128.412 56.0076C125.785 56.0076 123.652 58.1455 123.652 60.7683C123.652 63.3917 125.79 65.5291 128.412 65.5291C131.036 65.5291 133.173 63.3917 133.173 60.7683C133.173 58.1455 131.036 56.0076 128.412 56.0076ZM128.412 63.3876C126.971 63.3876 125.793 62.2141 125.793 60.7683C125.793 59.3231 126.967 58.149 128.412 58.149C129.858 58.149 131.032 59.3231 131.032 60.7683C131.032 62.2141 129.858 63.3876 128.412 63.3876Z" fill="#073042"/>
</svg>
