<svg width="263" height="147" viewBox="0 0 263 147" fill="none" xmlns="http://www.w3.org/2000/svg">
<rect x="0.5" y="0.5" width="262" height="145.077" rx="19.5" fill="#5B4A3B" stroke="#766F6F"/>
<g clip-path="url(#clip0_1483_345)">
<path d="M120.666 101.538L107.626 79.2528L120.666 56.967H146.746L159.787 79.2528L146.746 101.538H120.666Z" fill="#5B4A3B"/>
<path d="M134.142 89.4254C128.537 89.4254 123.978 84.9262 123.978 79.396C123.978 73.8661 128.537 69.3672 134.142 69.3672C139.746 69.3672 144.306 73.8661 144.306 79.396C144.306 84.9262 139.746 89.4254 134.142 89.4254Z" fill="#FCF9F8"/>
<path d="M154.59 49.4956C153.791 48.1299 151.829 47.0127 150.231 47.0127H118.096C116.498 47.0127 114.536 48.1302 113.737 49.4956L104.347 65.5432C104.274 66.5799 104.466 67.6628 104.93 68.4541L111.286 79.1767L122.632 59.8357H158.495C159.344 59.8357 160.293 60.1527 161.118 60.652L154.59 49.4956Z" fill="white"/>
<path d="M104.756 64.8408L104.345 65.5432C104.271 66.5799 104.464 67.6628 104.927 68.4541L111.283 79.1767L114.665 73.4129L104.756 64.8408Z" fill="white"/>
<path d="M118.924 55.2566C118.404 55.256 117.906 55.0519 117.538 54.6892C117.171 54.3264 116.964 53.8346 116.963 53.3217C116.964 52.8087 117.171 52.3169 117.538 51.9541C117.906 51.5914 118.404 51.3873 118.924 51.3867C119.444 51.3872 119.943 51.5912 120.31 51.9539C120.678 52.3167 120.885 52.8086 120.885 53.3217C120.885 53.8347 120.678 54.3265 120.31 54.6893C119.943 55.052 119.444 55.2561 118.924 55.2566ZM151.059 53.3217C151.062 53.5588 151.017 53.7943 150.928 54.0143C150.838 54.2343 150.704 54.4345 150.535 54.6032C150.367 54.772 150.165 54.906 149.944 54.9975C149.722 55.089 149.484 55.1361 149.243 55.1361C149.003 55.1361 148.765 55.089 148.543 54.9975C148.321 54.906 148.12 54.772 147.951 54.6032C147.782 54.4345 147.649 54.2343 147.559 54.0143C147.469 53.7943 147.424 53.5588 147.428 53.3217C147.434 52.8504 147.628 52.4005 147.967 52.0693C148.307 51.7382 148.766 51.5525 149.243 51.5525C149.721 51.5525 150.179 51.7382 150.519 52.0693C150.859 52.4005 151.053 52.8504 151.059 53.3217Z" fill="#FCF9F8"/>
<path d="M170.658 76.9558L161.118 60.6517C160.293 60.1524 159.344 59.8357 158.495 59.8357H145.563L156.745 79.2835L139.041 110.147C138.651 110.812 137.985 111.418 137.22 111.865H150.231C151.83 111.865 153.791 110.747 154.59 109.382L170.658 81.9219C171.458 80.5562 171.458 78.3215 170.658 76.9558Z" fill="white"/>
<path d="M161.549 61.3832L161.121 60.6517C160.297 60.1524 159.347 59.8357 158.499 59.8357H145.566L148.932 65.69L161.549 61.3832Z" fill="white"/>
<path d="M149.243 107.122C148.723 107.121 148.225 106.917 147.857 106.554C147.49 106.191 147.283 105.699 147.282 105.186C147.283 104.673 147.49 104.182 147.857 103.819C148.225 103.456 148.723 103.252 149.243 103.252C149.763 103.252 150.262 103.456 150.629 103.819C150.997 104.182 151.204 104.673 151.205 105.186C151.204 105.7 150.997 106.191 150.63 106.554C150.262 106.917 149.763 107.121 149.243 107.122ZM164.505 81.3313C163.985 81.3308 163.487 81.1267 163.119 80.7639C162.752 80.4011 162.545 79.9092 162.544 79.3961C162.545 78.8831 162.752 78.3912 163.119 78.0285C163.487 77.6657 163.986 77.4617 164.505 77.4612C165.025 77.4618 165.524 77.6658 165.891 78.0286C166.259 78.3913 166.466 78.8831 166.467 79.3961C166.466 79.9092 166.259 80.4011 165.892 80.7639C165.524 81.1267 165.025 81.3308 164.505 81.3313Z" fill="#FCF9F8"/>
<path d="M122.879 98.7346L104.93 68.4537C104.467 67.6623 104.274 66.5795 104.347 65.5427L97.6694 76.9553C96.8703 78.3211 96.8703 80.5558 97.6694 81.9215L113.737 109.381C114.536 110.747 116.498 111.864 118.096 111.864H137.22C137.985 111.417 138.651 110.812 139.041 110.146L145.587 98.7343H122.879" fill="white"/>
<path d="M136.133 111.864H137.245C138.01 111.418 138.676 110.812 139.065 110.146L145.612 98.7346H138.641L136.133 111.864Z" fill="white"/>
<path d="M118.924 107.121C118.404 107.121 117.906 106.917 117.538 106.554C117.17 106.191 116.964 105.699 116.963 105.186C116.964 104.673 117.171 104.181 117.538 103.819C117.906 103.456 118.404 103.252 118.924 103.251C119.444 103.252 119.943 103.456 120.31 103.818C120.678 104.181 120.885 104.673 120.885 105.186C120.885 105.699 120.678 106.191 120.31 106.554C119.943 106.917 119.444 107.121 118.924 107.121ZM103.635 81.3311C103.115 81.3306 102.616 81.1265 102.249 80.7637C101.881 80.4009 101.674 79.909 101.674 79.3959C101.674 78.8828 101.881 78.391 102.249 78.0282C102.616 77.6655 103.115 77.4615 103.635 77.4609C104.155 77.4615 104.653 77.6656 105.021 78.0283C105.389 78.3911 105.595 78.8829 105.596 79.3959C105.595 79.9089 105.389 80.4008 105.021 80.7636C104.653 81.1264 104.155 81.3305 103.635 81.3311Z" fill="#FCF9F8"/>
</g>
<defs>
<clipPath id="clip0_1483_345">
<rect width="74.2857" height="65" fill="white" transform="translate(97 47)"/>
</clipPath>
</defs>
</svg>
