<svg width="263" height="147" viewBox="0 0 263 147" fill="none" xmlns="http://www.w3.org/2000/svg">
<rect x="0.5" y="0.576904" width="262" height="145.077" rx="19.5" fill="#5B4A3B" stroke="#766F6F"/>
<g clip-path="url(#clip0_1483_321)">
<path d="M182.346 79.8168H185.334V69.288C186.294 69.0548 187.28 68.9443 188.269 68.9591C189.922 68.9591 191.04 69.501 191.04 71.5147V79.8159H194V71.4304C194 67.6278 191.911 66.1343 188.321 66.1343C186.315 66.1343 183.816 66.4352 182.347 67.0016L182.346 79.8168ZM177.026 73.1151C177.026 75.6671 176.452 77.2993 173.793 77.2993C171.132 77.2993 170.562 75.668 170.562 73.1151C170.562 70.5631 171.156 68.9772 173.793 68.9772C176.427 68.9772 177.026 70.5767 177.026 73.1151ZM173.793 80.1204C177.998 80.1204 179.999 77.3527 179.999 73.1151C179.999 68.7153 178.155 66.1343 173.793 66.1343C169.609 66.1343 167.549 68.8775 167.549 73.1151C167.549 77.544 169.418 80.1204 173.793 80.1204ZM157.958 75.0445C157.958 78.8716 160.047 80.096 162.954 80.096C164.096 80.1148 165.231 79.9117 166.296 79.4978L165.836 76.6731C164.922 77.0756 163.934 77.2795 162.936 77.2712C161.739 77.2712 160.954 76.7292 160.954 75.0726V69.2318H165.789V66.4071H160.946V62.8772H157.958V75.0445ZM152.632 73.1151C152.632 75.6671 152.065 77.2993 149.399 77.2993C146.734 77.2993 146.167 75.668 146.167 73.1151C146.167 70.5631 146.769 68.9772 149.399 68.9772C152.032 68.9772 152.632 70.5767 152.632 73.1151ZM149.421 80.1204C153.633 80.1204 155.629 77.3527 155.629 73.1151C155.629 68.7153 153.782 66.1343 149.421 66.1343C145.239 66.1343 143.176 68.8775 143.176 73.1151C143.176 77.544 145.053 80.1204 149.421 80.1204ZM129.167 79.8168H132.156V69.288C133.115 69.0514 134.102 68.9408 135.09 68.9591C136.743 68.9591 137.859 69.501 137.859 71.5147V79.8159H140.818V71.5147C140.818 67.5181 138.567 66.1343 135.222 66.1343C134.187 66.113 133.154 66.2406 132.156 66.5131V60.8101H129.167V79.8168ZM115.149 85.5833H118.137V79.7425C118.859 80.0044 119.623 80.1349 120.392 80.1204C124.495 80.1204 126.828 77.4905 126.828 72.9248C126.828 68.5277 124.761 66.1343 120.094 66.1343C118.404 66.1309 116.726 66.4109 115.128 66.9626V85.5833H115.149ZM123.815 73.1151C123.815 75.8873 123.082 77.2993 120.258 77.2993C119.524 77.3498 118.791 77.1994 118.137 76.8643V69.2563C118.814 69.0392 119.523 68.9387 120.233 68.9591C122.919 68.9591 123.815 70.0466 123.815 73.097V73.1151Z" fill="white"/>
<path fill-rule="evenodd" clip-rule="evenodd" d="M87.3209 79.0947C87.3952 79.179 87.4767 79.2605 87.5547 79.3394L87.8021 79.5795L83.3597 84.9599C83.1043 84.7356 82.8564 84.5029 82.6165 84.2621C82.3791 84.0265 82.1453 83.7918 81.926 83.5407L87.3073 79.0947H87.3209ZM89.176 80.6416L85.8663 86.7978C85.2815 86.4578 84.7186 86.0816 84.1807 85.6713L88.6059 80.2311C88.7935 80.3652 88.9811 80.4894 89.176 80.6099V80.6416ZM86.2805 77.7453C86.3974 77.9365 86.5252 78.1277 86.6629 78.3117L81.2436 82.7124C80.8322 82.1766 80.456 81.6148 80.1171 81.0304L86.2769 77.7208L86.2805 77.7453ZM90.7338 81.3993L88.6839 88.0575C88.0458 87.8411 87.4225 87.5835 86.8179 87.2863L90.0967 81.1156C90.3052 81.2117 90.5172 81.2996 90.7302 81.3739L90.7338 81.3993ZM85.522 76.1666C85.5999 76.3795 85.6878 76.5916 85.7839 76.7964L79.6132 80.0789C79.3127 79.474 79.0538 78.8494 78.8384 78.2093L85.522 76.1666ZM92.4004 81.8098L91.7026 88.7626C91.0314 88.6671 90.3669 88.5288 89.7134 88.3484L91.7307 81.6784C91.9509 81.7319 92.1738 81.7745 92.4004 81.8098ZM85.087 74.4964C85.1214 74.7229 85.1685 74.9459 85.2211 75.1688L78.5275 77.1789C78.354 76.5273 78.2226 75.8653 78.1342 75.1969L85.087 74.4964ZM84.9837 72.779V73.466L78.0309 74.142C77.9884 73.4675 77.9884 72.791 78.0309 72.1166L84.9837 72.779ZM94.1205 81.9086L94.7929 88.865C94.1168 88.9076 93.4444 88.9076 92.7683 88.865L93.4408 81.9086C93.6673 81.9231 93.8939 81.9231 94.1205 81.9086ZM95.8306 81.6784L97.8479 88.3692C97.1936 88.5505 96.5311 88.6882 95.8587 88.7834L95.1608 81.8306C95.3847 81.7917 95.6112 81.7527 95.8306 81.7001V81.6784ZM85.222 71.0617C85.1685 71.2846 85.1223 71.5085 85.087 71.7377L78.1342 71.0336C78.2226 70.3664 78.354 69.7055 78.5275 69.0552L85.222 71.0653V71.0617ZM97.4663 81.1156L100.745 87.2863C100.138 87.5835 99.5123 87.8411 98.8719 88.0575L96.8329 81.3739C97.0477 81.2963 97.2593 81.2102 97.4672 81.1156H97.4663ZM85.7957 69.4014C85.6996 69.6099 85.6108 69.8156 85.5328 70.0358L78.8574 67.9677C79.0776 67.327 79.3395 66.7008 79.6404 66.0954L85.7966 69.4087L85.7957 69.4014ZM98.9544 80.2311L103.375 85.6541C102.837 86.0646 102.279 86.4398 101.694 86.7797L98.3871 80.6416C98.5783 80.5238 98.7659 80.4006 98.9535 80.2628L98.9544 80.2311ZM86.662 67.9396C86.5249 68.1217 86.3972 68.3108 86.2796 68.5061L80.1262 65.1928C80.4669 64.6128 80.8421 64.0491 81.2526 63.5144L86.662 67.9396ZM105.636 83.5407C105.187 84.0456 104.709 84.5232 104.202 84.9708L99.7601 79.5786L100.007 79.3385L100.241 79.0938L105.636 83.5407ZM83.3597 61.2633L87.8021 66.6437L87.5547 66.8811C87.4767 66.9627 87.3952 67.0443 87.3209 67.1258L81.9405 62.6825C82.1598 62.4351 82.39 62.1868 82.6301 61.9466C82.8712 61.7056 83.1195 61.4717 83.3705 61.2561L83.3597 61.2633ZM107.446 81.0268C107.106 81.615 106.731 82.1777 106.32 82.7124L100.904 78.2872C101.042 78.1032 101.169 77.912 101.286 77.7208L107.446 81.0304V81.0268ZM85.87 59.4544L89.1832 65.607C88.9884 65.729 88.7971 65.8565 88.6096 65.9894L84.188 60.58C84.7227 60.1695 85.2854 59.7906 85.87 59.4544ZM108.724 78.2084C108.508 78.8485 108.249 79.4731 107.949 80.078L101.778 76.7964C101.874 76.5907 101.96 76.3786 102.041 76.1657L108.724 78.2084ZM88.7029 58.1657L90.7383 64.8566C90.5217 64.9309 90.3124 65.0197 90.104 65.1149L86.8333 58.9406C87.4395 58.6431 88.064 58.3843 88.7029 58.1657ZM109.429 75.1969C109.334 75.8657 109.196 76.5277 109.016 77.1789L102.342 75.1688C102.396 74.9462 102.441 74.7216 102.477 74.4955L109.429 75.1969ZM91.7044 57.4679L92.4022 64.4207C92.1757 64.4569 91.9527 64.5022 91.7325 64.5521L89.7152 57.8821C90.3687 57.7017 91.0332 57.5634 91.7044 57.4679ZM109.532 72.1066C109.577 72.779 109.577 73.4515 109.532 74.1239L102.579 73.4587V72.7718L109.532 72.1066ZM94.7938 57.3646L94.1214 64.321H93.4417L92.7692 57.3646C93.4434 57.3221 94.1196 57.3221 94.7938 57.3646ZM109.032 69.0552C109.216 69.7059 109.355 70.3684 109.446 71.0372L102.493 71.7414C102.46 71.5141 102.417 71.2885 102.363 71.0653L109.032 69.0552ZM97.8597 57.8812L95.8315 64.5512C95.61 64.5002 95.3869 64.4564 95.1627 64.4198L95.8596 57.467C96.532 57.5558 97.1945 57.6836 97.8488 57.8567L97.8597 57.8812ZM100.755 58.9651L97.4663 65.1176C97.2596 65.0197 97.0482 64.932 96.8329 64.8548L98.8719 58.1721C99.5123 58.3885 100.138 58.6461 100.745 58.9433L100.755 58.9651ZM107.945 66.158C108.243 66.7633 108.501 67.3905 108.72 68.0276L102.041 70.0983C101.962 69.8863 101.871 69.6842 101.775 69.464L107.945 66.158ZM103.364 60.5718L98.9327 65.9849C98.7467 65.8511 98.5562 65.7235 98.3617 65.6024L101.672 59.4463C102.257 59.7825 102.82 60.1577 103.358 60.5718H103.364ZM106.302 63.499C106.714 64.0337 107.089 64.5938 107.429 65.1774L101.28 68.4879C101.161 68.292 101.033 68.1015 100.897 67.917L106.302 63.4891V63.499ZM104.203 61.2624C104.458 61.4817 104.699 61.7119 104.943 61.953C105.188 62.1931 105.414 62.4333 105.637 62.6888L100.257 67.1385C100.181 67.0527 100.102 66.9701 100.019 66.8911L99.7709 66.6501L104.218 61.2696L104.203 61.2624Z" fill="white"/>
</g>
<defs>
<clipPath id="clip0_1483_321">
<rect width="116" height="116" fill="white" transform="translate(78 15.1152)"/>
</clipPath>
</defs>
</svg>
