<svg width="263" height="147" viewBox="0 0 263 147" fill="none" xmlns="http://www.w3.org/2000/svg">
<rect x="0.5" y="0.653809" width="262" height="145.077" rx="19.5" fill="#5B4A3B" stroke="#766F6F"/>
<path d="M131.953 49.5755C131.686 48.2401 132.027 46.8558 132.95 45.4224C134.042 43.6976 135.329 42.7511 136.811 42.5563C138.73 42.3379 140.503 43.3576 142.154 45.5682C143.685 47.6324 144.365 49.5755 144.195 51.3486C144.17 52.4172 142.592 53.0728 139.459 53.2911C137.005 53.486 135.233 53.2427 134.09 52.5382C132.9 51.8344 132.196 50.839 131.953 49.5755ZM165.811 103.617C165.641 103.98 165.035 103.932 163.989 103.471C162.216 102.621 160.249 101.333 158.039 99.5842C155.586 97.6417 154.152 96.1116 153.764 94.9939C153.691 94.7266 153.716 94.3873 153.861 93.9501L154.323 92.7108C154.638 91.5697 154.225 90.4285 153.084 89.2859C152.526 88.7277 151.773 88.1938 150.849 87.6831C148.688 86.542 145.579 85.5707 141.475 84.7929C137.223 83.9916 133.168 83.5302 129.306 83.4334L124.619 83.6765C123.38 85.1091 122.19 86.4446 121.048 87.6831C120.077 88.7035 119.13 89.6507 118.207 90.5251C114.491 93.8527 110.872 96.3789 107.326 98.1272C102.492 100.483 98.8733 101.163 96.4202 100.119C96.1045 99.9005 96.0072 99.5364 96.1045 99.0259L96.5417 97.6658C98.2176 94.0227 100.962 90.6951 104.727 87.683C105.043 87.4164 105.383 87.1732 105.698 86.9308C108.686 84.7202 112.717 82.3887 117.794 79.9841C121.121 78.5514 123.866 77.6042 126.003 77.1428L128.019 74.3492C128.82 73.3538 129.67 72.4066 130.521 71.5073C132.342 69.5399 134.212 67.7189 136.18 66.0914C136.35 66.0183 136.374 65.9215 136.276 65.7999C135.281 65.2417 133.654 64.1965 131.444 62.6665C129.549 61.3796 128.068 60.4808 126.998 59.9945C123.647 58.4892 120.222 58.9264 116.701 61.3064C114.587 62.7149 113.446 64.2698 113.325 65.9699L113.203 68.0588C113.325 68.6412 111.455 69.613 107.617 70.9731C106.913 71.1916 106.33 71.3857 105.844 71.5071C104.994 71.6771 104.411 71.702 104.12 71.5555L104.022 71.5071L103.756 71.3372C103.415 70.6574 105.018 68.3254 108.54 64.3181C108.783 64.0458 109.029 63.7816 109.276 63.521L109.284 63.5105L109.292 63.505C115.668 56.7982 123.188 54.2026 131.832 55.7446C134.212 56.1576 138.148 57.6146 143.661 60.0924C144.267 59.4846 145.313 58.7565 146.745 57.9303C148.567 56.8864 150.072 56.327 151.214 56.3035C153.716 56.2787 155.294 57.2258 155.95 59.1933C156.339 60.3841 155.464 62.06 153.303 64.2214C151.069 66.5045 148.955 67.9373 146.964 68.5196C144.462 69.2731 141.741 68.8358 138.851 67.2575C137.565 68.253 136.107 69.6863 134.528 71.5073C134.456 71.5804 134.382 71.6772 134.31 71.7504L130.57 76.2197L130.521 76.5348L133.096 76.4382C134.941 76.4871 136.811 76.8021 138.73 77.4094C143.953 79.0853 148.324 81.1494 151.845 83.6032C153.521 84.7928 155.15 86.1535 156.679 87.683C158.258 89.2858 159.788 91.0832 161.221 93.0506C162.485 94.8003 163.553 96.5723 164.451 98.3456C165.714 100.824 166.175 102.572 165.811 103.617ZM146.672 61.064C147.134 61.4281 148.226 61.5744 150 61.5012C151.967 61.4281 153.303 61.0398 154.055 60.2868C154.42 59.9221 154.42 59.5581 154.007 59.2182C153.546 58.8051 152.696 58.7083 151.481 58.8777C150.437 59.0477 149.319 59.4118 148.105 59.9712C146.915 60.5294 146.429 60.8941 146.672 61.064ZM120.174 84.3315L119.615 84.259C117.939 84.5995 116.385 84.9877 114.952 85.4256C112.936 86.0807 111.066 86.8336 109.342 87.6833C107.957 88.3395 106.67 89.0684 105.48 89.8449C101.69 92.298 99.9419 94.679 100.258 96.9856L100.622 97.3987C101.618 98.0549 103.585 97.5443 106.5 95.8685C110.459 93.5619 114.004 90.8415 117.138 87.6833C118.182 86.6146 119.202 85.4976 120.174 84.3315Z" fill="white"/>
</svg>
