<svg width="263" height="147" viewBox="0 0 263 147" fill="none" xmlns="http://www.w3.org/2000/svg">
<rect x="0.5" y="0.576904" width="262" height="145.077" rx="19.5" fill="#5B4A3B" stroke="#766F6F"/>
<g clip-path="url(#clip0_1483_363)">
<path d="M78.0289 75.4859C78.1126 73.9809 78.8511 72.6536 79.9635 71.7123C81.0562 70.7879 82.5259 70.2244 84.1292 70.2234C85.7325 70.2244 87.2022 70.7879 88.2949 71.7123C89.4073 72.6536 90.1458 73.9809 90.2306 75.4859C90.3154 77.0336 89.6937 78.4727 88.6012 79.5379C87.4886 80.6219 85.9031 81.303 84.1302 81.303C82.3563 81.303 80.7698 80.6219 79.6562 79.5379C78.5647 78.4727 77.943 77.0336 78.0289 75.4859Z" fill="white"/>
<path d="M68.3118 78.5335C68.3221 79.121 68.5113 80.266 68.7928 81.1624C69.3854 83.0552 70.3913 84.8076 71.792 86.3522C73.2288 87.9379 74.9958 89.2134 77.0392 90.1169C79.1874 91.0684 81.5153 91.554 83.9289 91.5491C86.3434 91.545 88.6701 91.0515 90.8182 90.0941C92.8598 89.1807 94.6269 87.9021 96.0626 86.3123C97.4613 84.7616 98.4652 83.0064 99.0588 81.1126C99.3554 80.1695 99.5445 79.196 99.6225 78.2106C99.6968 77.2494 99.6657 76.2829 99.5298 75.3285C99.2634 73.4566 98.6148 71.6993 97.6182 70.0976C96.703 68.6268 95.5278 67.3383 94.1288 66.2532L94.1308 66.2512L80.0155 55.4169C80.0037 55.4067 79.9917 55.3967 79.9797 55.3868C79.0507 54.6778 77.4942 54.6798 76.4765 55.3919C75.4449 56.1129 75.3292 57.3026 76.2441 58.0555L76.241 58.0575L82.1289 62.8444L64.1811 62.8633H64.1563C62.6736 62.8643 61.2488 63.8388 60.9653 65.0673C60.6769 66.3201 61.6848 67.3582 63.2263 67.364L63.2243 67.3702L72.3208 67.3523L56.0874 79.8052C56.0675 79.821 56.0455 79.8361 56.0256 79.8519C54.4958 81.0238 54.0001 82.9735 54.9638 84.2071C55.9436 85.4617 58.0238 85.4627 59.5717 84.2122L68.4306 76.967C68.4306 76.967 68.3019 77.9453 68.3118 78.5335ZM91.0757 81.8078C89.2509 83.6687 86.6967 84.7218 83.9299 84.7267C81.1621 84.7318 78.6068 83.6866 76.7808 81.8305C75.8888 80.9252 75.2334 79.8869 74.8283 78.7771C74.4315 77.6868 74.2786 76.5229 74.3803 75.3673C74.4774 74.2398 74.8109 73.1453 75.359 72.1551C75.8929 71.1877 76.6262 70.3141 77.5312 69.5742C79.3051 68.1282 81.5631 67.3462 83.9278 67.3431C86.2926 67.3403 88.5495 68.1162 90.3245 69.5561C91.2284 70.2921 91.9618 71.1627 92.4946 72.1282C93.043 73.1174 93.3772 74.2108 93.4754 75.3374C93.5766 76.4934 93.4233 77.6575 93.0264 78.748C92.6223 79.8591 91.9676 80.8992 91.0757 81.8078Z" fill="white"/>
<path d="M174.746 75.4639C174.884 73.943 176.06 72.9788 177.855 72.9788C179.652 72.9788 180.827 73.943 180.966 75.4639H174.746ZM180.781 79.2156C180.32 80.3435 179.238 81.0108 177.764 81.0108C175.92 81.0108 174.678 79.8599 174.632 78.0419H185.227V77.5073C185.227 72.9548 182.555 70.3956 177.764 70.3956C173.111 70.3956 170.301 72.9788 170.301 77.0296C170.301 81.1035 173.156 83.6813 177.764 83.6813C180.527 83.6813 182.673 82.7359 183.997 81.0685L180.781 79.2156ZM127.719 75.4708C127.86 73.9499 129.034 72.9867 130.831 72.9867C132.625 72.9867 133.802 73.9499 133.94 75.4708H127.719ZM133.755 79.2237C133.295 80.3514 132.211 81.0188 130.738 81.0188C128.895 81.0188 127.651 79.8668 127.605 78.0488H138.2V77.5152C138.2 72.9627 135.527 70.4028 130.738 70.4028C126.083 70.4028 123.276 72.9867 123.276 77.0365C123.276 81.1114 126.129 83.6895 130.738 83.6895C133.5 83.6895 135.647 82.7441 136.971 81.0765L133.755 79.2237ZM118.502 67.6442H122.326V83.2726H118.502V67.6442ZM139.15 71.7949H142.993V72.7263C144.357 71.2754 145.989 70.5424 147.83 70.5424C149.955 70.5424 151.562 71.2754 152.392 72.5238C153.084 73.556 153.129 74.8006 153.129 76.4381V83.2726H149.28V77.2661C149.28 74.7769 148.779 73.6249 146.591 73.6249C144.378 73.6249 142.993 74.9413 142.993 77.1512V83.2726H139.15V71.7949ZM165.506 77.2211C165.506 79.3613 164.076 80.7645 161.866 80.7645C159.653 80.7645 158.224 79.4081 158.224 77.2459C158.224 75.0531 159.631 73.6967 161.866 73.6967C164.076 73.6967 165.506 75.0751 165.506 77.2211ZM165.506 72.3165C164.537 71.2754 163.131 70.7038 161.174 70.7038C156.962 70.7038 154.079 73.3048 154.079 77.1992C154.079 81.0167 156.938 83.6874 161.104 83.6874C163.017 83.6874 164.422 83.2057 165.506 82.1217V83.2726H169.352V66.6519L165.506 67.6442V72.3165ZM109.768 73.6967C112.002 73.6967 113.407 75.0531 113.407 77.2459C113.407 79.4081 111.979 80.7645 109.768 80.7645C107.557 80.7645 106.128 79.3613 106.128 77.2211C106.128 75.0751 107.557 73.6967 109.768 73.6967ZM106.128 67.6442L102.281 66.6519V83.2726H106.128V82.1217C107.211 83.2057 108.615 83.6874 110.527 83.6874C114.696 83.6874 117.552 81.0167 117.552 77.1992C117.552 73.3048 114.674 70.7038 110.458 70.7038C108.5 70.7038 107.096 71.2754 106.128 72.3165V67.6442ZM186.177 83.2726V71.7949H190.024V72.5039C191.175 71.1186 192.394 70.4285 193.777 70.4285C194.054 70.4285 194.399 70.4735 194.86 70.5194V73.7904C194.491 73.7426 194.077 73.7426 193.639 73.7426C191.404 73.7426 190.024 75.2165 190.024 77.7246V83.2726H186.177Z" fill="white"/>
</g>
<defs>
<clipPath id="clip0_1483_363">
<rect width="140.86" height="37" fill="white" transform="translate(54 54.6152)"/>
</clipPath>
</defs>
</svg>
