<svg width="263" height="147" viewBox="0 0 263 147" fill="none" xmlns="http://www.w3.org/2000/svg">
<rect x="0.5" y="0.5" width="262" height="145.077" rx="19.5" fill="#5B4A3B" stroke="#766F6F"/>
<g clip-path="url(#clip0_1483_241)">
<path d="M127 42.9463C115.403 42.9463 106 52.349 106 63.9463C106 75.5435 115.403 84.9463 127 84.9463C138.597 84.9463 148 75.5435 148 63.9463C148 52.349 138.597 42.9463 127 42.9463ZM127 46.1768C136.791 46.189 144.724 54.1305 144.724 63.9235C144.724 73.7253 136.779 81.6703 126.977 81.6703C117.176 81.6703 109.23 73.7253 109.23 63.9235C109.23 59.0235 111.217 54.5873 114.428 51.376C117.643 48.1648 122.082 46.1785 126.986 46.1785H126.998L127 46.1768ZM127 51.0243C119.314 52.3788 112.461 59.4663 112.461 67.1768C116.222 60.5373 118.733 60.0595 119.428 60.0595C120.122 60.0595 120.488 60.42 120.488 61.2198V71.1143C120.488 72.3445 118.098 72.1433 117.307 72.0225C120.229 76.3713 127 76.87 127 76.87L130.23 73.6395L133.461 75.2548C138.561 72.9203 141.537 67.9223 141.537 67.1785C140.31 68.6975 138.657 69.8298 136.758 70.3915L136.69 70.409C136.261 70.409 135.075 70.1885 135.075 69.6005V57.8878C135.075 56.871 137.423 53.7683 138.305 52.6378C132.474 54.1655 130.783 56.8273 130.783 56.8273C130.783 56.8273 130.341 55.8683 128.614 55.8683C129.49 56.696 130.08 57.8178 130.227 59.0743L130.229 59.0988V68.9933C129.31 69.646 128.227 70.136 127.056 70.395L126.997 70.4055C125.877 70.4055 125.33 69.9505 125.33 69.093C125.33 68.2355 125.381 57.4835 125.381 57.4835C125.381 57.4835 123.766 58.0768 123.766 54.757C123.766 53.0963 126.997 51.0208 126.997 51.0208L127 51.0243Z" fill="white"/>
</g>
<path d="M84.05 98.388V91.864H87.158V97.716C87.158 99.004 87.62 99.508 88.894 99.508H91.974C93.248 99.508 93.71 99.004 93.71 97.716V91.864H96.818V98.388C96.818 100.908 95.516 102.112 92.66 102.112H88.208C85.352 102.112 84.05 100.908 84.05 98.388ZM98.9113 102V91.864H103.727L109.565 99.228H109.593V91.864H112.701V102H107.885L102.047 94.636H102.019V102H98.9113ZM117.906 94.384V96.848H123.044C123.884 96.848 124.192 96.512 124.192 95.784V95.448C124.192 94.552 123.744 94.384 122.764 94.384H117.906ZM114.798 102V91.864H124.178C126.572 91.864 127.216 93.054 127.216 94.874V95.518C127.216 96.876 126.908 97.674 125.48 98.01V98.038C126.404 98.206 127.174 98.612 127.174 100.278V102H124.066V100.782C124.066 99.718 123.758 99.368 122.792 99.368H117.906V102H114.798ZM129.318 102V91.864H140.406V94.216H132.426V95.84H139.986V97.94H132.426V99.564H140.588V102H129.318ZM141.476 102L146.964 91.864H151.01L156.582 102H153.124L152.158 100.208H145.858L144.948 102H141.476ZM148.98 94.216L147.02 98.024H150.996L148.98 94.216ZM157.687 102V91.864H160.795V99.396H167.781V102H157.687Z" fill="white"/>
<path d="M105.174 114V108.208H111.51V109.552H106.95V110.48H111.27V111.68H106.95V112.608H111.614V114H105.174ZM112.69 114V108.208H115.442L118.778 112.416H118.794V108.208H120.57V114H117.818L114.482 109.792H114.466V114H112.69ZM121.64 111.968V110.24C121.64 108.544 122.592 108.144 124.192 108.144H126.864C128.88 108.144 129.16 108.872 129.16 110V110.184H127.416C127.416 109.608 127.088 109.536 126.52 109.536H124.592C123.696 109.536 123.464 109.752 123.464 110.744V111.464C123.464 112.456 123.696 112.672 124.592 112.672H126.488C126.952 112.672 127.416 112.6 127.416 112.04V111.872H125.208V110.672H129.192V112.32C129.192 113.984 128.328 114.064 126.328 114.064H124.192C122.592 114.064 121.64 113.664 121.64 111.968ZM130.356 114V108.208H132.132V114H130.356ZM133.432 114V108.208H136.184L139.52 112.416H139.536V108.208H141.312V114H138.56L135.224 109.792H135.208V114H133.432ZM142.51 114V108.208H148.846V109.552H144.286V110.48H148.606V111.68H144.286V112.608H148.95V114H142.51Z" fill="white"/>
<defs>
<clipPath id="clip0_1483_241">
<rect width="42" height="42" fill="white" transform="translate(106 43)"/>
</clipPath>
</defs>
</svg>
