<svg viewBox="0 0 680 680" fill="none" xmlns="http://www.w3.org/2000/svg">
<mask id="mask0_212_345" style="mask-type:luminance" maskUnits="userSpaceOnUse" x="-1" y="-1" width="681" height="681">
<path d="M-0.000488937 -0.000579834L679.84 -0.00058049L679.84 679.84L-0.000488281 679.84L-0.000488937 -0.000579834Z" fill="white"/>
</mask>
<g mask="url(#mask0_212_345)">
<path d="M461.589 155.443L560.464 157.296C562.217 154.609 559.22 149.946 556.125 149.097C553.032 148.247 549.781 149.372 546.753 150.427C543.724 151.482 540.398 152.486 537.373 151.417C533.51 150.05 531.545 145.869 529.889 142.121C527.639 137.025 525.006 131.75 520.354 128.684C515.701 125.617 508.455 125.809 505.453 130.502C503.699 133.243 503.775 136.712 503.349 139.938C502.924 143.165 501.527 146.759 498.431 147.758C494.675 148.969 491.129 145.747 487.602 143.975C479.389 139.85 463.98 146.568 461.589 155.443Z" fill="#E36D19"/>
<path d="M461.589 155.443L560.464 157.296C562.217 154.609 559.22 149.946 556.125 149.097C553.032 148.247 549.781 149.372 546.753 150.427C543.724 151.482 540.398 152.486 537.373 151.417C533.51 150.05 531.545 145.869 529.889 142.121C527.639 137.025 525.006 131.75 520.354 128.684C515.701 125.617 508.455 125.809 505.453 130.502C503.699 133.243 503.775 136.712 503.349 139.938C502.924 143.165 501.527 146.759 498.431 147.758C494.675 148.969 491.129 145.747 487.602 143.975C479.389 139.85 463.98 146.568 461.589 155.443Z" fill="#FF9F00" stroke="#FF9F00" stroke-width="1.33333" stroke-miterlimit="10"/>
<path d="M420.557 519.85L542.382 522.134C543.758 518.578 539.228 515.244 535.431 514.903C531.635 514.562 527.446 515.424 524.271 513.315C519.73 510.302 520.332 503.588 518.483 498.46C516.721 493.579 512.195 489.803 507.078 488.945C501.959 488.089 496.451 490.183 493.194 494.221C488.913 499.533 487.901 508.092 481.508 510.469C474.537 513.061 466.561 505.869 459.723 508.794C455.734 510.5 453.604 515.174 449.577 516.786C446.33 518.085 442.645 517.081 439.393 515.8C436.139 514.52 432.837 512.94 429.345 513.112C425.853 513.286 420.265 516.365 420.557 519.85Z" fill="#E36D19"/>
<path d="M420.557 519.85L542.382 522.134C543.758 518.578 539.228 515.244 535.431 514.903C531.635 514.562 527.446 515.424 524.271 513.315C519.73 510.302 520.332 503.588 518.483 498.46C516.721 493.579 512.195 489.803 507.078 488.945C501.959 488.089 496.451 490.183 493.194 494.221C488.913 499.533 487.901 508.092 481.508 510.469C474.537 513.061 466.561 505.869 459.723 508.794C455.734 510.5 453.604 515.174 449.577 516.786C446.33 518.085 442.645 517.081 439.393 515.8C436.139 514.52 432.837 512.94 429.345 513.112C425.853 513.286 420.265 516.365 420.557 519.85Z" stroke="#E36D19" stroke-width="1.33333" stroke-miterlimit="10"/>
<mask id="mask1_212_345" style="mask-type:luminance" maskUnits="userSpaceOnUse" x="430" y="168" width="183" height="149">
<path d="M430.901 168.124L612.514 168.124L612.514 316.885L430.901 316.885L430.901 168.124Z" fill="white"/>
</mask>
<g mask="url(#mask1_212_345)">
<g opacity="0.199997">
<path d="M611.834 181.284L611.834 303.726C611.834 311.266 605.304 316.825 597.382 316.149L440.993 302.83C435.765 302.384 431.581 297.168 431.581 291.172L431.581 193.838C431.581 187.843 435.765 182.626 440.993 182.181L597.382 168.86C605.304 168.186 611.834 173.743 611.834 181.284Z" fill="#F7F5FD"/>
<path d="M611.834 181.284L611.834 303.726C611.834 311.266 605.304 316.825 597.382 316.149L440.993 302.83C435.765 302.384 431.581 297.168 431.581 291.172L431.581 193.838C431.581 187.843 435.765 182.626 440.993 182.181L597.382 168.86C605.304 168.186 611.834 173.743 611.834 181.284Z" stroke="#B7020B" stroke-width="1.33333" stroke-miterlimit="10"/>
</g>
</g>
<path d="M611.834 181.284L611.834 182.983L431.581 195.188L431.581 193.837C431.581 187.843 435.765 182.626 440.993 182.181L597.382 168.86C605.304 168.186 611.834 173.743 611.834 181.284Z" fill="#970007"/>
<path d="M446.739 187.926C446.739 189.789 445.421 191.393 443.803 191.509C442.192 191.624 440.892 190.22 440.892 188.374C440.892 186.526 442.192 184.923 443.803 184.793C445.421 184.661 446.739 186.064 446.739 187.926Z" fill="white"/>
<path d="M457.248 187.123C457.248 189.013 455.891 190.642 454.226 190.761C452.569 190.881 451.228 189.457 451.228 187.583C451.228 185.709 452.569 184.082 454.226 183.947C455.891 183.811 457.248 185.233 457.248 187.123Z" fill="white"/>
<path d="M468.071 186.296C468.071 188.214 466.675 189.869 464.958 189.992C463.25 190.115 461.87 188.672 461.87 186.77C461.87 184.868 463.25 183.214 464.958 183.075C466.675 182.936 468.071 184.377 468.071 186.296Z" fill="white"/>
<path d="M501.058 221.555L501.058 221.555C499.013 220.428 496.378 222.034 496.378 224.708L496.378 256.184C496.378 258.855 499.008 260.448 501.056 259.31C501.056 259.31 501.056 259.31 501.056 259.309L529.447 243.509L529.448 243.509C531.892 242.149 531.887 238.544 529.45 237.201L501.058 221.555Z" fill="#FF9F00" stroke="#FF9F00" stroke-width="1.33333"/>
<path d="M596.352 316.062L441.685 302.888C436.069 302.409 431.58 296.814 431.58 290.384L431.58 282.098L611.835 292.312L611.835 302.734C611.835 310.823 604.834 316.785 596.352 316.062Z" fill="#970007"/>
<path d="M455.638 293.769L597.932 303.861" stroke="#FFFFFD" stroke-width="2.66667" stroke-miterlimit="10" stroke-linecap="round" stroke-linejoin="round"/>
<path d="M440.417 292.691L469.947 294.784" stroke="#FF9E59" stroke-width="2.66667" stroke-miterlimit="10" stroke-linecap="round" stroke-linejoin="round"/>
<path d="M476.231 295.23C476.231 299.076 473.404 301.967 469.947 301.688C466.522 301.414 463.768 298.127 463.768 294.346C463.768 290.565 466.522 287.669 469.947 287.879C473.404 288.092 476.231 291.383 476.231 295.23Z" fill="#FF9E59"/>
<path d="M473.028 295.003C473.028 296.889 471.645 298.314 469.946 298.186C468.255 298.058 466.89 296.439 466.89 294.568C466.89 292.697 468.255 291.271 469.946 291.383C471.645 291.495 473.028 293.117 473.028 295.003Z" fill="#FFFFFD"/>
<mask id="mask2_212_345" style="mask-type:luminance" maskUnits="userSpaceOnUse" x="504" y="431" width="94" height="91">
<path d="M504.7 431.595L597 431.595L597 521.803L504.7 521.803L504.7 431.595Z" fill="white"/>
</mask>
<g mask="url(#mask2_212_345)">
<g opacity="0.399994">
<path d="M597 485.569L597 521.803C597.119 503.636 538.61 478.274 504.7 468.32L504.7 431.595C540.582 443.682 597 466.925 597 485.569Z" fill="url(#paint0_linear_212_345)"/>
</g>
</g>
<path d="M536.681 451.627C536.698 452.509 536.719 453.394 536.736 454.277C536.739 454.444 536.748 454.611 536.753 454.778C566.941 467.16 596.994 483.217 596.994 496.826L596.994 493.695C596.994 480.076 566.894 464.012 536.681 451.627Z" fill="#E36D19"/>
<path d="M534.297 450.657C528.3 448.237 522.33 445.966 516.622 443.896C516.633 444.906 516.642 445.916 516.653 446.924C516.655 446.96 516.655 446.998 516.655 447.035C522.333 449.092 528.269 451.349 534.233 453.755C534.25 452.723 534.275 451.691 534.297 450.657Z" fill="#E36D19"/>
<path d="M585.556 485.838L585.603 487.976C585.611 488.327 585.621 488.677 585.63 489.026C592.657 494.564 596.995 500.084 596.995 505.251L596.995 502.121C596.995 496.934 592.627 491.395 585.556 485.838Z" fill="#E36D19"/>
<path d="M553.071 467.19C541.209 461.687 528.43 456.605 516.729 452.361C516.743 453.407 516.752 454.452 516.763 455.498C528.439 459.732 541.187 464.801 553.022 470.29L553.071 467.19Z" fill="#E36D19"/>
<path d="M555.478 468.32L555.526 471.466C565.814 476.346 575.284 481.528 582.566 486.738L582.636 483.658C575.334 478.426 565.817 473.22 555.478 468.32Z" fill="#E36D19"/>
<path d="M531.127 466.572C526.279 464.654 521.472 462.837 516.837 461.155C516.848 462.201 516.861 463.248 516.871 464.293C521.469 465.963 526.238 467.763 531.05 469.664C531.074 468.635 531.099 467.603 531.127 466.572Z" fill="#E36D19"/>
<path d="M597.006 484.595L597.006 520.817C597.006 532.794 587.824 544.025 571.748 553.733L571.748 517.496C587.824 507.79 597.006 496.559 597.006 484.595Z" fill="#E36D19"/>
<mask id="mask3_212_345" style="mask-type:luminance" maskUnits="userSpaceOnUse" x="504" y="382" width="94" height="92">
<path d="M504.7 382.835L597 382.835L597 473.043L504.7 473.043L504.7 382.835Z" fill="white"/>
</mask>
<g mask="url(#mask3_212_345)">
<g opacity="0.399994">
<path d="M597 436.809L597 473.043C597 454.399 540.582 431.134 504.7 419.049L504.7 382.835C540.582 394.922 597 418.164 597 436.809Z" fill="url(#paint1_linear_212_345)"/>
</g>
</g>
<path d="M554.357 413.351C554.371 412.44 554.391 411.529 554.403 410.619C542.138 404.862 528.786 399.547 516.622 395.137C516.633 396.147 516.642 397.156 516.654 398.165C516.654 398.2 516.654 398.238 516.654 398.275C528.792 402.672 542.108 407.975 554.349 413.717C554.35 413.594 554.356 413.473 554.357 413.351Z" fill="#E36D19"/>
<path d="M557.4 412.044C557.406 412.479 557.417 412.916 557.422 413.351C557.429 413.967 557.449 414.583 557.466 415.199C579.32 425.753 596.994 437.629 596.994 448.066L596.994 444.935C596.994 434.49 579.284 422.605 557.4 412.044Z" fill="#E36D19"/>
<path d="M581.68 434.224C565.441 422.883 539.1 411.715 516.729 403.601C516.743 404.647 516.752 405.693 516.763 406.738C539.09 414.834 565.366 425.979 581.605 437.298C581.631 436.275 581.655 435.249 581.68 434.224Z" fill="#E36D19"/>
<path d="M584.429 436.223C584.455 437.284 584.481 438.346 584.507 439.41C592.184 445.233 596.994 451.058 596.994 456.491L596.994 453.36C596.994 447.909 592.152 442.065 584.429 436.223Z" fill="#E36D19"/>
<path d="M563.418 432.223C548.996 424.811 532.008 417.903 516.837 412.396C516.848 413.442 516.861 414.487 516.871 415.534C531.997 421.022 548.923 427.906 563.312 435.295C563.343 434.271 563.379 433.247 563.418 432.223Z" fill="#E36D19"/>
<path d="M597.006 435.835L597.006 472.057C597.522 485.864 584.321 496.918 571.748 505.252L571.748 468.736C587.824 459.03 597.006 447.799 597.006 435.835Z" fill="#E36D19"/>
<mask id="mask4_212_345" style="mask-type:luminance" maskUnits="userSpaceOnUse" x="504" y="334" width="94" height="91">
<path d="M504.7 334.076L597 334.076L597 424.284L504.7 424.284L504.7 334.076Z" fill="white"/>
</mask>
<g mask="url(#mask4_212_345)">
<g opacity="0.399994">
<path d="M597 388.05L597 424.283C597.078 405.306 538.849 382.128 504.7 370.035L504.7 334.076C540.582 346.162 597 369.404 597 388.05Z" fill="url(#paint2_linear_212_345)"/>
</g>
</g>
<path d="M542.724 364.628C542.775 363.708 542.806 362.784 542.84 361.86C534.033 358.092 525.044 354.602 516.623 351.549C516.633 352.558 516.642 353.567 516.654 354.576C516.655 354.614 516.655 354.649 516.655 354.686C525.024 357.72 533.953 361.185 542.704 364.925C542.709 364.827 542.719 364.726 542.724 364.628Z" fill="#E36D19"/>
<path d="M589.573 388.509C589.592 389.559 589.6 390.61 589.595 391.659C594.246 396.043 596.994 400.373 596.994 404.478L596.994 401.347C596.994 397.235 594.238 392.899 589.573 388.509Z" fill="#E36D19"/>
<path d="M586.781 386.059C577.073 378.067 561.563 369.998 545.164 362.861C545.186 363.452 545.205 364.042 545.236 364.628C545.263 365.106 545.298 365.582 545.334 366.059C561.634 373.162 577.037 381.183 586.714 389.132C586.731 388.107 586.752 387.083 586.781 386.059Z" fill="#E36D19"/>
<path d="M554.269 375.403C542.076 369.685 528.826 364.401 516.73 360.013C516.742 361.059 516.752 362.104 516.763 363.15C528.837 367.528 542.058 372.801 554.23 378.507C554.242 377.473 554.257 376.438 554.269 375.403Z" fill="#E36D19"/>
<path d="M556.764 376.586C556.778 377.635 556.792 378.682 556.805 379.73C562.082 382.263 567.132 384.872 571.752 387.522C571.767 386.493 571.789 385.462 571.815 384.433C567.165 381.764 562.079 379.137 556.764 376.586Z" fill="#E36D19"/>
<path d="M597.006 387.075L597.006 423.297C597.006 435.274 587.824 446.505 571.748 456.213L571.748 419.976C587.824 410.27 597.006 399.039 597.006 387.075Z" fill="#E36D19"/>
<path d="M361.22 313.637C367.018 301.854 371.559 288.113 366.426 276.103C362.767 267.541 354.751 261.394 346.397 256.718C338.041 252.042 328.997 248.414 321.271 242.844C312.327 236.392 305.544 227.622 297.227 220.448C291.912 215.865 284.519 211.75 277.897 214.43C272.914 216.448 270.284 221.609 268.384 226.446C261.166 244.8 258.213 264.653 259.801 284.16C260.363 291.061 261.833 298.544 267.349 303.016C271.61 306.47 277.428 307.415 282.83 308.815C295.228 312.025 306.725 318.295 315.906 326.849L361.22 313.637Z" fill="#970007"/>
<path d="M288.175 401.255L269.55 463.731C269.55 463.731 266.417 513.549 327.437 512.429C388.456 511.307 398.433 474.101 398.433 474.101L372.051 401.255L288.175 401.255Z" fill="#52090C"/>
<path d="M333.622 289.01C333.622 289.01 302.712 298.39 267.071 314.071C267.071 314.071 277.792 389.558 277.792 395.594C277.792 401.631 275.297 438.333 275.297 438.333C275.297 438.333 340.604 466.277 386.582 438.333C386.582 438.333 376.131 402.598 376.655 397.598C377.177 392.598 393.075 310.028 393.075 310.028C377.925 299.564 333.622 289.01 333.622 289.01Z" fill="#970007"/>
<path d="M364.898 358.042C355.254 364.811 343.774 369.525 332.521 372.867C321.149 376.244 309.237 378.364 297.354 378.344C295.33 378.339 295.473 381.338 297.44 381.446C309.756 382.133 322.012 380.979 333.803 377.258C339.602 375.428 345.233 373.098 350.59 370.217C356.066 367.272 361.102 363.713 366.104 360.035C367.296 359.156 366.133 357.175 364.898 358.042Z" fill="#840005"/>
<path d="M361.524 375.235C354.862 378.561 347.389 380.601 340.089 381.971C332.711 383.356 325.263 383.855 317.761 383.699C315.264 383.647 314.98 387.265 317.469 387.567C325.242 388.516 333.24 387.997 340.865 386.213C348.615 384.4 355.595 381.187 362.51 377.322C363.793 376.604 362.863 374.567 361.524 375.235Z" fill="#840005"/>
<path d="M281.044 439.316C281.217 438.507 281.317 437.668 281.445 436.942C281.701 435.497 281.898 434.042 282.046 432.582C282.296 430.115 282.368 427.65 282.265 425.18C287.871 423.82 293.202 420.187 297.153 416.101C300.886 412.241 303.763 407.493 305.18 402.304C306.916 402.219 308.662 401.985 310.391 401.852C312.268 401.707 314.147 401.584 316.026 401.483C329.563 400.749 343.17 401.021 356.664 402.347C356.573 408.167 357.121 414.437 360.117 419.523C361.651 422.129 363.806 424.251 366.265 425.985C367.423 426.803 368.654 427.52 369.921 428.157C370.862 428.629 371.854 429.134 372.878 429.469C372.859 432.219 372.837 434.969 372.826 437.719C372.816 440.214 372.723 442.736 372.784 445.236C366.304 446.077 359.821 446.959 353.304 447.453C341.06 448.38 328.728 448.149 316.526 446.774C304.498 445.42 292.604 442.895 281.044 439.316ZM277.702 440.642C277.775 441.636 278.679 442.165 279.473 441.951C279.578 442.013 279.665 442.087 279.797 442.128C286.511 444.222 293.337 445.958 300.238 447.314C312.47 449.715 324.937 450.969 337.403 451.035C349.39 451.099 361.672 450.347 373.378 447.613C374.23 448.279 375.762 447.907 375.837 446.483C375.99 443.578 375.859 440.628 375.856 437.719C375.853 434.798 375.838 431.875 375.827 428.954C375.827 428.713 375.778 428.504 375.694 428.325C375.661 427.866 375.388 427.467 374.994 427.191C373.867 426.401 372.387 425.997 371.154 425.366C369.983 424.765 368.845 424.095 367.768 423.335C365.679 421.861 363.866 419.979 362.595 417.754C359.764 412.804 359.802 406.974 359.368 401.457C359.289 400.443 358.38 400.03 357.637 400.213C357.446 400.089 357.228 399.997 356.983 399.968C353.119 399.495 349.244 399.105 345.364 398.805C338.482 398.272 331.575 398.098 324.675 398.185C321.227 398.228 317.778 398.356 314.334 398.554C311.325 398.728 308.216 398.821 305.212 399.251C304.598 398.743 303.526 398.815 303.219 399.831C303.205 399.876 303.188 399.918 303.174 399.964C303.046 400.155 302.978 400.376 302.958 400.61C301.326 405.584 298.649 410.181 295.001 413.949C293.091 415.922 290.952 417.651 288.605 419.079C286.222 420.531 283.722 421.494 281.105 422.418C281.07 422.432 281.048 422.456 281.015 422.47C280.258 422.341 279.426 422.746 279.442 423.756C279.488 426.592 279.393 429.442 279.089 432.264C278.935 433.679 278.72 435.09 278.459 436.491C278.341 437.123 278.212 437.753 278.073 438.381C277.91 439.118 277.645 439.881 277.702 440.642Z" fill="#840005"/>
<path d="M318.421 304.41C301.733 297.358 287.828 291.428 268.061 301.745C268.061 301.745 230.578 320.259 212.388 319.181C187.77 317.722 173.315 346.839 189.959 366.033C201.314 379.128 234.565 374.72 234.565 374.72L282.39 365.971L318.421 304.41Z" fill="#970007"/>
<path d="M356.27 296.67C360.103 290.857 361.813 283.579 358.999 277.328C356.85 272.556 352.332 268.892 347.411 266.15C342.492 263.409 337.079 261.435 331.989 258.95C318.019 252.127 306.582 241.34 299.79 228.585C299.192 227.462 298.607 226.295 297.602 225.428C296.596 224.562 295.043 224.057 293.754 224.551C292.722 224.947 292.093 225.863 291.552 226.733C284.542 238.015 281.101 251.004 281.717 263.858C282.02 270.179 283.429 276.755 287.889 281.707C291.322 285.519 296.252 288.029 300.232 291.404C304.577 295.09 307.701 299.728 311.312 303.986C314.923 308.246 319.304 312.305 325 314.043C337.701 317.918 350.633 305.215 356.27 296.67Z" fill="#52090C"/>
<path d="M374.798 270.827L362.931 271.591C357.707 271.929 353.199 267.967 352.863 262.743L351.931 248.297C351.596 243.072 355.558 238.565 360.78 238.228L372.647 237.462C377.871 237.126 382.379 241.088 382.716 246.312L383.647 260.759C383.984 265.983 380.022 270.49 374.798 270.827Z" fill="white"/>
<path d="M362.042 270.95C357.574 270.95 353.849 267.453 353.56 262.989L352.591 247.963C352.444 245.695 353.189 243.506 354.692 241.8C356.191 240.092 358.268 239.071 360.535 238.926L365.633 238.597C365.818 238.584 366.004 238.579 366.188 238.579C370.657 238.579 374.382 242.076 374.671 246.541L375.639 261.564C375.941 266.247 372.378 270.302 367.696 270.603L362.598 270.932C362.412 270.945 362.227 270.95 362.042 270.95Z" fill="#B7020B"/>
<path d="M366.187 237.899C365.989 237.899 365.789 237.906 365.589 237.918L360.492 238.247C355.427 238.573 351.586 242.943 351.912 248.008L352.881 263.033C353.194 267.896 357.237 271.631 362.042 271.631C362.24 271.631 362.44 271.624 362.643 271.611L367.74 271.282C372.804 270.955 376.643 266.585 376.317 261.521L375.349 246.497C375.036 241.634 370.994 237.899 366.187 237.899ZM366.189 239.259C370.299 239.259 373.728 242.477 373.992 246.584L374.96 261.608C375.237 265.916 371.959 269.647 367.652 269.925L362.554 270.254C362.382 270.265 362.212 270.271 362.042 270.271C357.931 270.271 354.502 267.053 354.238 262.946L353.269 247.92C353.134 245.833 353.821 243.819 355.201 242.247C356.583 240.677 358.492 239.738 360.579 239.604L365.676 239.275C365.847 239.264 366.019 239.259 366.189 239.259Z" fill="#840005"/>
<path d="M352.417 265.405L351.171 277.772L350.52 284.229L349.738 291.99L349.159 299.461C348.536 307.685 341.6 314.012 333.333 313.882C329.177 313.823 325.398 312.131 322.633 309.409C320.2 307.018 318.536 303.819 318.086 300.228C318.029 299.766 317.985 299.287 317.97 298.809L317.204 276.931L316.42 254.532L329.569 258.498L352.417 265.405Z" fill="#DEAA90"/>
<path d="M351.446 275.258L349.737 291.994C332.162 296.974 321.03 288.184 319.248 278.127C326.287 276.696 348.832 273.772 351.446 275.258Z" fill="#52090C"/>
<path d="M367.027 200.235C362.208 193.72 353.265 192.449 345.247 197.129C342.748 198.587 340.343 200.525 338.181 202.823C336.66 200.18 334.069 198.688 331.011 198.994C325.732 199.524 320.723 204.653 316.819 209.547C313.898 213.209 311.352 217.191 308.938 221.279C308.956 222.756 309.096 224.201 309.228 225.649C324.617 219.026 341.087 214.796 354.197 221.837C357.577 223.65 360.527 226.17 362.942 229.416C363.69 230.422 365.076 229.64 365.802 228.479C371.622 219.15 372.077 207.062 367.027 200.235Z" fill="#52090C"/>
<path d="M368.008 246.496C368.205 225.6 365.195 220.156 360.47 215.297C352.941 207.552 318.496 200.881 301.752 224.71C295.383 233.771 298.222 252.888 303.087 256.817C307.953 260.749 368.008 246.496 368.008 246.496Z" fill="#52090C"/>
<path d="M364.797 227.658C362.668 223.806 359.628 219.622 355.414 217.826C344.7 213.222 329.511 214.8 321.098 220.505C308.936 228.745 301.913 244.28 305.214 257.485C305.243 257.63 305.287 257.76 305.315 257.891C307.183 264.884 311.469 271.719 317.203 276.932C320.417 279.87 324.11 282.302 328.063 283.968C333.202 286.124 338.82 286.995 344.496 285.995C346.697 285.604 348.696 285.011 350.52 284.228C357.875 281.144 362.263 275.325 365.043 269.517C370.891 257.268 368.532 234.376 364.797 227.658Z" fill="#DEAA90"/>
<path d="M308.34 248.731C305.064 246.79 300.587 246.412 297.593 248.765C295.098 250.724 294.145 254.086 293.988 257.255C293.787 261.341 294.717 265.549 297.036 268.921C299.352 272.293 303.132 274.736 307.214 275.012C311.296 275.287 315.558 273.196 317.472 269.579C321.143 262.641 314.227 252.221 308.34 248.731Z" fill="#DEAA90"/>
<path d="M312.283 263.768C311.277 261.896 309.786 260.227 307.954 259.133C307.112 258.631 306.247 258.196 305.313 257.893C304.38 257.59 303.389 257.474 302.432 257.262C301.809 257.126 301.454 258.128 302.08 258.351C302.493 258.498 302.87 258.654 303.235 258.902C303.601 259.149 303.941 259.436 304.289 259.708C304.644 259.987 304.993 260.275 305.336 260.569C305.502 260.71 305.668 260.854 305.823 261.007C305.977 261.157 306.221 261.338 306.321 261.53C306.285 261.489 306.25 261.448 306.214 261.409C306.265 261.467 306.315 261.526 306.365 261.586C306.496 261.734 306.625 261.884 306.76 262.028C306.843 262.115 306.927 262.202 307.009 262.29C307.021 262.304 307.015 262.297 307.026 262.308C307.357 262.603 307.63 263.046 307.88 263.405C308.406 264.157 308.912 264.924 309.325 265.745C309.518 266.128 310.077 266.43 310.478 266.506C310.9 266.583 311.442 266.493 311.793 266.236C312.631 265.619 312.756 264.646 312.283 263.768Z" fill="#52090C"/>
<path d="M364.213 234.413C368.168 240.928 350.836 239.333 352.314 234.47C353.422 230.826 362.557 231.686 364.213 234.413Z" fill="#52090C"/>
<path d="M319.988 234.822C320.064 231.387 328.388 230.745 330.497 231.964C336.412 235.383 319.842 241.443 319.988 234.822Z" fill="#52090C"/>
<path d="M337.848 266.106C338.162 265.807 338.609 265.729 339.013 265.89C340.102 266.322 340.513 267.339 342.492 267.131C342.655 267.115 343.016 266.976 343.164 266.908C343.536 266.738 343.993 266.949 344.175 267.287C344.368 267.645 344.261 268.081 343.939 268.342C342.334 269.645 338.25 269.903 337.577 267.267C337.467 266.835 337.505 266.432 337.848 266.106Z" fill="#52090C"/>
<path d="M343.224 251.812C342.835 248.646 342.592 245.449 342.376 242.267C342.339 241.729 343.191 241.623 343.308 242.146C344.108 245.673 344.838 249.218 345.446 252.782C345.719 254.393 346.09 256.053 346.158 257.689C346.211 259.001 345.813 260.304 344.648 260.997C344.1 261.323 343.561 260.68 343.813 260.161C344.369 259.006 343.995 257.534 343.814 256.331C343.584 254.83 343.409 253.32 343.224 251.812Z" fill="#52090C"/>
<path d="M303.475 247.184C308.34 248.731 307.987 252.949 311.96 253.981C315.797 254.979 313.725 233.379 313.725 233.379C317.47 234.59 318.139 231.993 319.125 226.36C321.034 215.455 332.229 222.67 340.897 221.692C348.065 220.886 349.602 216.167 355.419 217.821C344.23 209.219 320.07 210.838 310.351 224.605C300.633 238.373 303.475 247.184 303.475 247.184Z" fill="#52090C"/>
<path d="M353.102 305.184C355.623 305.618 358.474 305.026 360.746 303.879C363.215 302.632 364.957 300.637 366.559 298.436C368.114 296.298 369.646 294.142 371.871 292.646C373.868 291.303 376.226 290.517 378.619 290.298C379.946 290.177 381.304 290.246 382.615 290.495C383.391 290.643 384.374 290.839 385.152 291.265C385.45 290.983 385.787 290.744 386.164 290.596C387.098 290.23 388.25 290.528 388.914 291.27C388.933 291.292 388.942 291.318 388.961 291.34C390.159 292.289 390.112 294.164 389.23 295.296C388.214 296.602 386.161 296.461 385.099 295.296C384.544 294.688 384.249 293.954 384.278 293.147C383.563 292.962 382.841 292.665 382.175 292.542C381.031 292.329 379.868 292.297 378.713 292.41C376.371 292.635 374.084 293.541 372.256 295.026C370.148 296.739 368.764 299.184 367.087 301.283C365.453 303.331 363.502 304.94 361.052 305.911C358.384 306.968 355.623 306.977 352.846 306.378C352.073 306.212 352.331 305.051 353.102 305.184Z" fill="#52090C"/>
<path d="M381.987 304.213C395.909 306.887 404.971 312.19 411.531 330.042C418.092 347.895 444.651 390.143 432.662 407.778C407.852 444.272 372.878 414.257 388.392 388.653L374.779 362.218L381.987 304.213Z" fill="#970007"/>
<path d="M387.329 379.445C388.358 376.21 390.41 373.533 393.12 371.518C399.222 366.981 406.979 367.086 414.223 366.84C415 366.812 415.021 367.976 414.259 368.035C407.773 368.539 400.954 369.541 395.514 373.382C393.285 374.955 391.356 377.132 390.421 379.722C389.968 380.977 389.719 382.307 389.739 383.642C389.763 385.081 390.199 386.264 390.638 387.611C391.166 389.235 388.835 390.189 387.95 388.787C386.282 386.146 386.415 382.317 387.329 379.445Z" fill="#840005"/>
<path d="M389.198 386.837C390.185 385.707 391.62 384.798 392.833 383.919C394.078 383.015 395.359 382.163 396.673 381.362C399.216 379.81 401.872 378.456 404.631 377.326C410.234 375.028 416.178 374.173 422.181 373.72C422.993 373.659 422.997 374.865 422.217 374.966C416.49 375.692 410.911 377.759 405.657 380.099C403.056 381.257 400.518 382.562 398.093 384.058C396.881 384.806 395.695 385.597 394.541 386.431C393.358 387.286 392.258 388.37 391.015 389.125C389.552 390.015 388.119 388.074 389.198 386.837Z" fill="#840005"/>
<path d="M435.143 313.906L432.329 319.665C431.055 322.27 427.913 323.349 425.309 322.077L420.901 319.923C418.297 318.65 417.217 315.507 418.49 312.903L421.305 307.143C422.579 304.538 425.721 303.46 428.325 304.733L432.733 306.886C435.336 308.159 436.416 311.301 435.143 313.906Z" fill="#52090C"/>
<path d="M447.508 298.795C435.731 331.51 449.159 363.902 434.13 396.498C426.356 413.361 404.902 414.277 395.458 396.858L404.873 369.547L426.074 308.037L447.508 298.795Z" fill="#DEAA90"/>
<path d="M418.629 411.043C417.645 410.225 416.239 410.321 415.019 410.106C413.777 409.886 412.552 409.577 411.351 409.187C408.943 408.401 406.708 407.203 404.664 405.709C402.683 404.261 400.909 402.423 399.429 400.469C398.705 399.512 398.057 398.489 397.446 397.456C396.764 396.304 396.235 394.993 395.403 393.952C394.272 392.537 392.412 394.121 392.642 395.536C392.853 396.837 393.758 398.239 394.461 399.34C395.218 400.529 396.104 401.648 397.04 402.699C398.845 404.725 400.956 406.441 403.2 407.955C405.431 409.46 407.861 410.675 410.368 411.647C411.594 412.123 412.858 412.514 414.138 412.815C415.414 413.114 417.164 413.684 418.367 412.994C419.009 412.623 419.262 411.568 418.629 411.043Z" fill="#840005"/>
<path d="M426.073 308.033L427.626 321.945C453.313 320.933 462.639 303.66 470.857 297.449L445.957 279.906L426.073 308.033Z" fill="#DEAA90"/>
<path d="M459.134 286.74C458.841 287.267 458.637 287.859 458.56 288.493C458.54 288.665 458.529 288.827 458.528 288.994C458.476 290.746 459.38 292.35 460.805 293.234C461.349 293.582 461.969 293.818 462.631 293.924L466.81 294.602L472.711 295.545C473.558 295.677 474.379 295.581 475.117 295.3C476.159 294.913 477.032 294.171 477.577 293.185C477.871 292.657 478.065 292.059 478.14 291.427C478.413 289.11 476.945 286.975 474.743 286.352L474.733 286.346C474.614 286.312 474.489 286.287 474.364 286.264L464.327 284.316C464.233 284.294 464.131 284.283 464.03 284.273C461.988 283.999 460.077 285.04 459.134 286.74Z" fill="#DEAA90"/>
<path d="M481.035 260.887C480.262 258.64 477.72 257.547 475.559 258.53L456.913 266.993L442.071 281.664L453.288 295.172L466.47 273.178L479.262 265.679C480.92 264.709 481.662 262.702 481.035 260.887Z" fill="#DEAA90"/>
<path d="M442.071 281.664L445.109 278.659L460.058 273.627L464.549 276.384L452.467 295.672L442.071 281.664Z" fill="#52090C"/>
<path d="M478.628 300.659C478.409 302.326 477.315 303.816 475.634 304.473L466.08 308.121C463.623 309.054 460.846 307.871 459.83 305.444C459.542 304.748 459.44 304.016 459.473 303.303C459.472 303.162 459.488 303.046 459.503 302.927C459.515 302.829 459.531 302.712 459.564 302.616C459.881 300.963 461.047 299.521 462.759 298.949L472.413 295.614C473.789 295.155 475.259 295.35 476.42 296.08C476.586 296.182 476.749 296.303 476.912 296.425C477.494 296.86 477.974 297.461 478.277 298.181C478.627 299.005 478.734 299.856 478.628 300.659Z" fill="#DEAA90"/>
<path d="M476.42 296.08C476.07 296.912 475.475 297.651 474.647 298.18L466.078 303.734C463.939 305.128 460.454 305.159 458.834 302.13C459.152 300.476 461.047 299.522 462.759 298.949L472.413 295.613C473.789 295.156 475.259 295.349 476.42 296.08Z" fill="#52090C"/>
<path d="M471.151 293.426C471.08 294.749 470.458 296.042 469.321 296.912L463.655 301.091C461.569 302.702 458.578 302.344 456.923 300.316C456.2 299.406 455.84 298.356 455.837 297.288C455.823 297.188 455.829 297.07 455.834 296.971C455.912 295.53 456.598 294.16 457.855 293.256L463.705 289.327C464.694 288.628 465.877 288.354 466.997 288.493C468.16 288.614 469.257 289.187 470.058 290.14C470.859 291.094 471.214 292.262 471.151 293.426Z" fill="#52090C"/>
<path d="M457.975 297.092C457.966 297.194 457.948 297.307 457.949 297.416C457.938 297.546 457.945 297.673 457.94 297.792L457.951 297.799C457.952 298.736 458.231 299.672 458.807 300.513C460.293 302.672 463.252 303.254 465.461 301.813L474.042 296.268C474.457 295.992 474.819 295.671 475.117 295.3C475.679 294.616 476.033 293.785 476.143 292.926C476.295 291.768 476.033 290.579 475.308 289.565C474.888 288.994 474.385 288.547 473.807 288.209C473.36 287.962 472.876 287.785 472.377 287.691C471.275 287.464 470.072 287.641 469.039 288.262L460.806 293.235L460.276 293.553C458.958 294.355 458.169 295.666 457.975 297.092Z" fill="#DEAA90"/>
<path d="M460.856 293.144L460.326 293.463C459.007 294.265 458.219 295.576 458.026 297.002C458.015 297.104 457.997 297.217 457.998 297.325C457.989 297.456 457.996 297.584 457.99 297.703L458.001 297.709C459.789 298.854 462.201 298.706 463.856 297.217L466.859 294.512L473.366 288.644C473.546 288.485 473.722 288.305 473.856 288.119C474.317 287.563 474.62 286.933 474.795 286.263L474.782 286.256C474.663 286.221 474.539 286.198 474.414 286.175L464.378 284.225C464.283 284.203 464.181 284.194 464.079 284.183L458.576 288.905C458.526 290.655 459.429 292.261 460.856 293.144Z" fill="#52090C"/>
<path d="M455.236 280.749C454.825 281.487 454.604 282.33 454.625 283.232C454.692 285.876 456.851 287.978 459.479 287.996L462.781 288.016L469.7 288.037C470.738 288.046 471.707 287.709 472.482 287.142C473.052 286.753 473.51 286.226 473.849 285.616C474.259 284.878 474.47 284.028 474.43 283.132C474.331 280.685 472.357 278.716 469.912 278.617L466.603 278.5L463.092 278.361L459.694 278.239C457.777 278.157 456.101 279.189 455.236 280.749Z" fill="#DEAA90"/>
<path d="M467.793 286.283C467.926 287.601 467.509 288.975 466.519 290.008L461.559 295.005C459.745 296.917 456.735 297.021 454.79 295.27C453.935 294.481 453.418 293.501 453.252 292.445C453.222 292.347 453.21 292.23 453.201 292.132C453.055 290.695 453.524 289.237 454.627 288.152L459.809 283.371C460.678 282.53 461.805 282.078 462.933 282.043C464.1 281.985 465.272 282.383 466.21 283.203C467.147 284.023 467.676 285.121 467.793 286.283Z" fill="#52090C"/>
<path d="M472.681 284.931C472.71 286.255 472.188 287.593 471.122 288.546L463.484 295.347C461.527 297.112 458.518 296.983 456.714 295.086C455.924 294.234 455.485 293.215 455.4 292.149C455.379 292.051 455.376 291.932 455.373 291.834C455.34 290.39 455.922 288.973 457.105 287.976L464.947 281.409C465.878 280.637 467.036 280.274 468.165 280.327C469.333 280.359 470.471 280.848 471.343 281.738C472.213 282.627 472.653 283.765 472.681 284.931Z" fill="#DEAA90"/>
<path d="M432.281 307.442L445.91 285.151L461.133 280.405L460.04 289.913L454.679 293.558C454.679 293.558 455.299 314.924 432.281 307.442Z" fill="#52090C"/>
<path d="M461.133 280.404L468.559 285.919C470.173 287.117 470.527 289.388 469.355 291.021C468.312 292.471 466.378 292.964 464.77 292.189L460.039 289.912L461.133 280.404Z" fill="#52090C"/>
<path d="M426.073 308.033L442.071 281.663L460.02 275.999L458.769 287.227L452.455 291.551C452.455 291.551 453.275 316.77 426.073 308.033Z" fill="#DEAA90"/>
<path d="M463.093 278.361L460.622 286.436L462.781 288.017L465.62 290.084C465.773 290.198 465.93 290.3 466.081 290.386C467.736 291.302 469.805 291.055 471.195 289.71C471.94 289.004 472.368 288.092 472.481 287.142C472.648 285.901 472.279 284.607 471.366 283.625L466.603 278.499L463.093 278.361Z" fill="#52090C"/>
<path d="M460.02 275.999L468.809 282.477C470.719 283.885 471.146 286.565 469.769 288.495C468.545 290.213 466.265 290.801 464.361 289.894L458.769 287.227L460.02 275.999Z" fill="#DEAA90"/>
<path d="M425.372 307.772L445.007 318.172L443.046 325.448L421.815 316.23L425.372 307.772Z" fill="#52090C"/>
<path d="M380.29 364.959C381.028 361.459 381.725 357.95 382.409 354.437C383.785 347.364 385.109 340.279 386.474 333.202C387.257 329.149 388.034 325.094 388.674 321.016C388.791 320.27 390.076 320.429 389.994 321.186C389.212 328.387 388.531 335.595 387.473 342.765C386.83 347.129 386.058 351.473 385.228 355.807C385.352 355.726 385.477 355.648 385.598 355.565C385.808 355.421 386.12 355.191 386.198 355.13C387.192 354.356 388.115 353.49 388.954 352.55C390.557 350.757 391.777 348.607 392.412 346.256C392.782 344.888 394.837 345.44 394.531 346.812C393.92 349.544 392.746 352.155 391.052 354.384C390.214 355.486 389.269 356.5 388.178 357.357C387.588 357.819 386.984 358.262 386.348 358.659C385.776 359.017 385.137 359.425 384.483 359.633C384.173 361.175 383.862 362.717 383.542 364.256C382.723 368.196 382.19 372.506 380.287 376.092C379.846 376.925 378.619 376.516 378.586 375.642C378.452 372.056 379.556 368.448 380.29 364.959Z" fill="#840005"/>
<path d="M306.547 471.738C299.885 457.32 252.976 385.814 228.536 410.054C204.095 434.293 217.954 480.89 254.982 510.109C292.01 539.329 332.107 527.051 306.547 471.738Z" fill="#52090C"/>
<path d="M221.356 431.697C224.289 446.897 231.62 460.797 240.326 473.44C244.91 480.098 249.975 486.411 255.224 492.553C260.276 498.463 265.391 504.372 270.748 510.011C276.104 515.648 282.092 520.591 289.758 522.606C291.445 523.05 290.722 525.378 289.089 525.155C281.968 524.18 275.97 519.482 270.976 514.594C265.425 509.161 260.376 503.143 255.29 497.28C244.654 485.025 234.499 472.142 227.767 457.273C224.104 449.179 221.503 440.78 220.349 431.962C220.264 431.318 221.227 431.024 221.356 431.697Z" fill="#443B32"/>
<path d="M292.315 448.296C301.33 459.012 308.572 471.446 312.504 484.949C313.616 488.769 314.498 492.648 315.165 496.569C315.492 498.503 312.492 499.127 312.172 497.181C309.948 483.614 305.204 470.48 298.158 458.676C296.155 455.32 293.98 452.044 291.576 448.96C291.187 448.461 291.899 447.803 292.315 448.296Z" fill="#443B32"/>
<path d="M377.913 573.176L405.465 531.987C399.724 528.796 394.533 527.083 394.533 527.083L362.163 565.195C374.461 573.543 377.913 573.176 377.913 573.176Z" fill="white"/>
<path d="M368.224 563.091C366.286 564.023 364.266 564.742 362.165 565.215C359.923 563.687 357.034 561.59 353.469 559.042C350.162 556.669 346.283 553.855 341.857 550.684C337.064 547.243 331.613 543.368 325.515 539.13C327.196 530.845 330.275 521.954 334.658 514.644L334.674 514.646C347.63 520.352 369.992 521.905 385.7 524.816C389.748 525.554 392.895 526.313 394.526 527.088C395.851 529.726 385.817 554.69 368.224 563.091Z" fill="#443B32"/>
<path d="M310.822 500.238C309.026 498.851 307.119 497.353 305.076 495.674C307.119 497.353 309.023 498.867 310.822 500.238Z" fill="#E0954A"/>
<path d="M292.809 485.335L292.807 485.352C293.47 485.922 294.118 486.473 294.749 487.022C294.119 486.455 293.472 485.904 292.809 485.335Z" fill="#E0954A"/>
<path d="M334.657 514.645C330.275 521.954 327.196 530.845 325.516 539.13C315.098 531.865 300.471 527.147 286.553 518.14L292.802 485.352C293.465 485.921 294.113 486.472 294.744 487.024C296.022 488.124 297.271 489.172 298.456 490.18C299.623 491.186 300.763 492.139 301.871 493.056L301.887 493.057C302.979 493.972 304.04 494.849 305.054 495.672L305.07 495.673C307.114 497.353 309.019 498.868 310.816 500.237C313.965 502.663 316.762 504.667 319.411 506.418C320.149 506.912 320.889 507.385 321.612 507.842C321.983 508.062 322.353 508.3 322.727 508.503C323.434 508.957 324.147 509.362 324.858 509.766C325.214 509.97 325.569 510.171 325.943 510.374C326.639 510.761 327.335 511.146 328.05 511.516C330.197 512.61 332.35 513.638 334.657 514.645Z" fill="#DEAA90"/>
<path d="M286.558 518.139L292.807 485.352L292.809 485.334L292.792 485.333L286.558 518.139Z" fill="#DEAA90"/>
<path d="M353.63 559.187C350.221 556.736 346.232 553.847 341.684 550.594C346.091 550.121 353.086 553.312 353.63 559.187Z" fill="white"/>
<path d="M394.536 527.093C397.174 533.74 387.126 557.958 368.236 563.096C366.112 543.92 378.015 522.367 394.536 527.093Z" fill="white"/>
<path d="M341.773 508.211C343.75 510.948 345.153 514.227 345.864 517.634C346.581 521.077 346.528 524.578 346.057 527.996C346.016 527.955 345.984 527.908 345.932 527.874C343.001 525.963 340.47 523.175 338.61 519.959C336.854 516.921 335.423 512.997 335.418 509.378C335.414 507.502 336.273 505.175 338.232 505.435C339.668 505.627 340.885 506.984 341.773 508.211ZM337.996 539.132C335.488 541.388 331.914 544.106 328.487 543.892C326.77 543.785 325.371 542.6 324.988 540.632C324.582 538.551 325.367 536.588 326.544 535.114C328.762 532.339 332.089 530.615 335.289 529.751C338.406 528.911 341.71 528.921 344.906 529.675C344.891 529.696 344.873 529.704 344.861 529.726C342.839 533.232 340.919 536.499 337.996 539.132ZM338.299 503.582C336.564 503.333 335.053 504.421 334.285 506.115C332.602 509.825 334.372 515.293 336.013 518.818C337.646 522.325 339.929 525.301 342.722 527.569C340.159 527.13 337.573 527.173 335.034 527.818C331.363 528.748 327.515 530.808 325.077 534.089C322.883 537.042 322.26 542.349 325.718 544.813C329.151 547.26 333.592 544.659 336.495 542.664C339.887 540.33 343.283 536.839 345.27 532.728C344.405 535.552 343.853 538.508 343.53 541.5C343.479 541.976 344.084 542.07 344.171 541.62C344.802 538.339 345.796 535.196 346.97 532.146C347.549 530.641 348.188 529.168 348.911 527.751C349.596 526.407 350.622 525.09 351.111 523.636C351.349 522.927 350.56 522.133 350.017 522.658C349.111 523.534 348.486 524.884 347.908 526.114C348.815 519.293 346.657 511.443 342.445 506.399C341.343 505.079 339.909 503.813 338.299 503.582Z" fill="white"/>
<path d="M354.528 526.451C351.299 531.934 349.887 538.875 350.132 545.567C350.15 546.097 350.948 546.13 350.956 545.594C350.997 542.368 351.417 539.15 352.191 536.081C352.974 532.972 354.183 530.166 355.598 527.406C355.733 527.146 355.803 526.741 355.58 526.479C355.495 526.377 355.424 526.292 355.31 526.237C355.047 526.107 354.688 526.178 354.528 526.451Z" fill="white"/>
<path d="M362.354 528.077C358.556 533.177 355.905 539.619 354.347 546.105C354.166 546.861 355.148 547.396 355.373 546.624C356.291 543.493 357.436 540.442 358.77 537.531C360.139 534.545 361.818 531.85 363.538 529.132C364.083 528.271 362.952 527.273 362.354 528.077Z" fill="white"/>
<path d="M369.18 529.799C369.106 529.796 369.034 529.795 368.959 529.793C368.702 529.788 368.522 530.034 368.415 530.26C367.683 531.779 366.793 533.184 366.082 534.721C365.371 536.253 364.727 537.829 364.145 539.435C362.997 542.603 362.14 545.863 361.566 549.255C361.455 549.914 362.438 550.262 362.587 549.601C363.324 546.353 364.249 543.14 365.399 540.068C365.954 538.584 366.564 537.128 367.228 535.707C367.958 534.142 368.673 532.486 369.625 531.089C369.776 530.868 369.8 530.562 369.702 530.295C369.678 530.23 369.655 530.167 369.63 530.102C369.549 529.883 369.369 529.802 369.18 529.799Z" fill="white"/>
<path d="M284.508 520.944L304.451 530.708L320.927 503.143L290.11 474.545L284.508 520.944Z" fill="#52090C"/>
<path d="M406.666 405.911C392.824 413.698 325.27 466.138 351.376 488.576C377.48 511.015 422.829 493.498 449.015 454.266C475.198 415.032 459.775 376.038 406.666 405.911Z" fill="#52090C"/>
<path d="M294.218 550.23L264.168 510.826C269.7 507.286 274.776 505.254 274.776 505.254L309.444 541.287C297.688 550.381 294.218 550.23 294.218 550.23Z" fill="white"/>
<path d="M333.759 489.131C338.586 496.155 342.209 504.838 344.401 513.001C338.576 517.609 333.375 521.815 328.806 525.547C324.585 528.986 320.887 532.035 317.734 534.608C314.334 537.372 311.581 539.644 309.437 541.308C307.31 540.966 305.249 540.373 303.257 539.563C285.179 532.269 273.616 507.973 274.777 505.259C276.357 504.385 279.45 503.432 283.445 502.443C298.943 498.565 321.164 495.631 333.743 489.133L333.759 489.131Z" fill="#443B32"/>
<path d="M356.662 473.274C358.369 471.778 360.177 470.166 362.113 468.363C360.177 470.166 358.372 471.796 356.662 473.274Z" fill="#E0954A"/>
<path d="M373.716 457.283L373.719 457.301C373.092 457.91 372.48 458.501 371.885 459.089C372.477 458.484 373.089 457.892 373.716 457.283Z" fill="#E0954A"/>
<path d="M381.987 489.639C368.654 499.491 354.349 505.106 344.4 513.001C342.21 504.838 338.586 496.155 333.759 489.131C336 487.982 338.084 486.825 340.159 485.598C340.85 485.185 341.52 484.757 342.192 484.328C342.552 484.103 342.895 483.878 343.237 483.655C343.923 483.208 344.609 482.758 345.287 482.262C345.645 482.034 346 481.776 346.357 481.531C347.053 481.032 347.76 480.512 348.467 479.976C351.001 478.063 353.669 475.891 356.662 473.274C358.372 471.796 360.178 470.166 362.114 468.363C362.114 468.363 362.132 468.376 362.13 468.36C363.092 467.475 364.095 466.534 365.128 465.554L365.145 465.551C366.194 464.569 367.271 463.547 368.374 462.47C369.494 461.39 370.677 460.266 371.885 459.088C372.48 458.501 373.092 457.91 373.719 457.3L381.987 489.639Z" fill="#DEAA90"/>
<path d="M381.987 489.639L373.719 457.3L373.716 457.283L373.734 457.28L381.987 489.639Z" fill="#DEAA90"/>
<path d="M317.588 534.762C320.838 532.105 324.641 528.974 328.978 525.444C324.551 525.247 317.768 528.865 317.588 534.762Z" fill="white"/>
<path d="M274.772 505.265C272.55 512.063 284.081 535.612 303.252 539.568C304.185 520.299 290.97 499.524 274.772 505.265Z" fill="white"/>
<path d="M329.626 480.16C331.566 479.779 332.567 482.047 332.68 483.922C332.899 487.533 331.714 491.539 330.148 494.68C328.491 498.004 326.138 500.943 323.331 503.032C323.282 503.071 323.253 503.119 323.214 503.163C322.533 499.78 322.262 496.288 322.765 492.808C323.263 489.364 324.461 486.005 326.265 483.15C327.074 481.869 328.205 480.44 329.626 480.16ZM324.515 504.815C324.501 504.793 324.482 504.785 324.469 504.767C327.61 503.816 330.905 503.601 334.071 504.247C337.318 504.909 340.745 506.425 343.13 509.059C344.396 510.456 345.3 512.367 345.026 514.467C344.765 516.457 343.442 517.725 341.734 517.939C338.329 518.366 334.592 515.875 331.95 513.778C328.869 511.332 326.75 508.188 324.515 504.815ZM325.482 481.382C321.59 486.678 319.922 494.646 321.25 501.399C320.598 500.206 319.889 498.896 318.931 498.08C318.357 497.59 317.617 498.431 317.899 499.123C318.479 500.546 319.582 501.795 320.35 503.095C321.159 504.464 321.889 505.895 322.56 507.36C323.921 510.331 325.108 513.408 325.94 516.644C326.054 517.087 326.654 516.956 326.572 516.485C326.064 513.518 325.331 510.603 324.293 507.836C326.53 511.816 330.136 515.09 333.668 517.21C336.687 519.021 341.281 521.342 344.555 518.686C347.854 516.013 346.903 510.755 344.531 507.944C341.893 504.82 337.926 503.003 334.204 502.301C331.632 501.817 329.048 501.932 326.515 502.531C329.162 500.093 331.256 496.981 332.669 493.38C334.09 489.761 335.518 484.194 333.609 480.594C332.737 478.95 331.161 477.959 329.445 478.315C327.852 478.644 326.499 479.998 325.482 481.382Z" fill="white"/>
<path d="M314.664 502.146C318.227 507.417 320.066 514.256 320.237 520.953C320.25 521.483 319.455 521.563 319.416 521.03C319.174 517.812 318.556 514.626 317.594 511.612C316.617 508.558 315.239 505.833 313.655 503.166C313.505 502.913 313.407 502.514 313.614 502.237C313.694 502.132 313.759 502.044 313.871 501.98C314.124 501.834 314.487 501.883 314.664 502.146Z" fill="white"/>
<path d="M306.953 504.253C311.059 509.107 314.105 515.374 316.061 521.751C316.29 522.493 315.343 523.089 315.069 522.331C313.959 519.264 312.627 516.29 311.116 513.466C309.563 510.57 307.721 507.985 305.837 505.38C305.238 504.554 306.306 503.488 306.953 504.253Z" fill="white"/>
<path d="M300.247 506.395C300.32 506.388 300.394 506.381 300.467 506.376C300.724 506.355 300.918 506.589 301.039 506.807C301.862 508.278 302.84 509.627 303.645 511.116C304.449 512.6 305.189 514.133 305.87 515.7C307.211 518.791 308.269 521.993 309.052 525.341C309.203 525.992 308.244 526.4 308.054 525.751C307.117 522.555 305.995 519.404 304.657 516.41C304.012 514.962 303.311 513.548 302.561 512.169C301.736 510.655 300.92 509.043 299.882 507.711C299.718 507.499 299.676 507.193 299.757 506.922C299.776 506.857 299.797 506.79 299.816 506.725C299.884 506.502 300.059 506.41 300.247 506.395Z" fill="white"/>
<path d="M372.99 452.532C372.23 452.988 339.089 482.472 339.089 482.472L357.083 507.579L392.103 490.443L372.99 452.532Z" fill="#52090C"/>
<path d="M339.78 482.017C343.684 478.185 347.952 474.776 352.336 471.51C352.151 470.88 351.986 470.243 351.858 469.597C350.648 463.436 351.958 456.922 355.18 451.566C355.477 451.07 356.248 451.506 355.961 452.009C352.999 457.22 352.303 463.448 353.969 469.197C354.7 471.722 355.852 474.137 357.394 476.267C358.136 477.291 358.955 478.265 359.843 479.166C360.812 480.149 362.144 480.938 362.906 482.084C363.55 483.055 362.457 484.455 361.359 484.096C359.949 483.637 358.777 482.292 357.792 481.218C356.77 480.103 355.83 478.893 355.044 477.6C354.281 476.342 353.615 475.021 353.07 473.654C349.164 476.856 345.498 480.348 341.919 483.91C346.357 490.93 351.2 497.703 356.336 504.229C361.008 500.387 366.739 497.409 372.683 496.244C371.704 495.586 370.784 494.843 369.971 493.988C368.131 492.055 366.916 489.784 366.054 487.275C365.894 486.813 366.652 486.495 366.857 486.949C367.832 489.123 369.507 491.009 371.377 492.469C372.055 493.001 372.802 493.458 373.56 493.879C373.709 493.776 373.872 493.688 374.08 493.637C388.898 490.112 402.871 483.536 415.205 474.618C427.462 465.756 438.157 454.813 446.468 442.164C451.172 435.006 455.279 427.32 458.241 419.275C458.474 418.64 459.494 418.892 459.271 419.547C456.769 426.869 453.709 433.966 449.809 440.659C445.897 447.367 441.282 453.68 436.16 459.515C425.938 471.162 413.456 480.726 399.568 487.602C392.675 491.014 385.449 493.768 378.02 495.764C378.452 496.1 378.686 496.645 378.535 497.219C378.341 497.962 377.563 498.399 376.826 498.218C376.221 498.07 375.615 497.844 375.022 497.576C374.945 497.947 374.693 498.278 374.183 498.402C371.003 499.173 367.969 500.089 365.037 501.571C362.144 503.031 359.479 504.857 357.058 507.01C356.575 507.437 355.672 507.588 355.211 507.01C349.438 499.776 344.342 492.082 339.831 484.008C339.311 483.505 339.117 482.669 339.78 482.017Z" fill="#443B32"/>
<path d="M329.137 261.774L372.381 259.627C380.877 259.196 387.394 251.556 386.936 242.563C386.479 233.57 379.222 226.63 370.727 227.062L327.482 229.209C318.987 229.642 312.47 237.28 312.927 246.273C313.384 255.265 320.642 262.205 329.137 261.774Z" fill="white"/>
<path d="M372.069 227.011C371.84 227.011 371.611 227.017 371.38 227.029L338.197 228.665C330.062 229.078 323.839 236.703 324.296 245.696C324.739 254.432 331.328 261.247 339.162 261.247C339.391 261.247 339.621 261.241 339.85 261.229L373.035 259.594C381.168 259.18 387.394 251.555 386.938 242.564C386.493 233.825 379.904 227.011 372.069 227.011ZM372.069 228.371C379.238 228.371 385.173 234.635 385.579 242.631C385.997 250.862 380.339 257.86 372.968 258.235L339.781 259.871C339.574 259.882 339.368 259.887 339.162 259.887C331.993 259.887 326.059 253.623 325.653 245.627C325.235 237.398 330.893 230.397 338.264 230.023L371.449 228.386C371.658 228.375 371.863 228.371 372.069 228.371Z" fill="#840005"/>
<path d="M372.071 253.687L358.263 254.37L353.654 254.597L351.695 254.703L343.63 255.097L343.19 255.122C342.596 255.149 341.996 255.133 341.424 255.065C336.496 254.477 332.563 250.409 332.299 245.28C332.009 239.548 336.408 234.669 342.14 234.38L356.762 233.662L364.816 233.266L366.786 233.161L371.023 232.956C371.142 232.949 371.262 232.952 371.383 232.955C371.867 232.937 372.333 232.959 372.786 233.013C377.715 233.602 381.648 237.669 381.912 242.798C382.203 248.519 377.805 253.398 372.071 253.687Z" fill="#B7020B"/>
<path d="M365.991 231.625L350.87 256.326L341.578 256.782L356.711 232.082L365.991 231.625Z" fill="white"/>
<path d="M373.557 231.267L358.44 255.944L353.129 256.205L368.259 231.505L373.141 231.267C373.281 231.259 373.418 231.263 373.557 231.267Z" fill="white"/>
<path d="M371.015 245.796L347.021 246.964C345.554 247.036 344.307 245.905 344.236 244.438C344.164 242.972 345.295 241.725 346.763 241.654L370.758 240.485C372.224 240.414 373.471 241.546 373.542 243.011C373.612 244.478 372.482 245.724 371.015 245.796Z" fill="#FF9E59"/>
<path d="M315.12 275.159L303.318 276.615C298.122 277.255 293.391 273.564 292.75 268.368L290.977 254.001C290.337 248.805 294.028 244.074 299.225 243.433L311.026 241.977C316.222 241.337 320.953 245.028 321.594 250.223L323.366 264.591C324.008 269.787 320.315 274.518 315.12 275.159Z" fill="white"/>
<path d="M301.261 249.68L303.259 249.434C306.661 249.014 309.759 251.431 310.179 254.833L311.173 262.895C311.593 266.297 309.176 269.394 305.774 269.814L303.777 270.06C300.375 270.48 297.276 268.063 296.857 264.661L295.862 256.599C295.443 253.198 297.861 250.1 301.261 249.68Z" fill="#B7020B"/>
<path d="M301.893 276.041C297.61 276.041 293.985 272.831 293.459 268.574L291.615 253.631C291.042 248.974 294.362 244.718 299.019 244.143L304.088 243.517C304.443 243.474 304.794 243.453 305.142 243.453C309.425 243.453 313.051 246.664 313.576 250.921L315.419 265.862C315.993 270.519 312.673 274.775 308.016 275.35L302.947 275.976C302.594 276.019 302.24 276.041 301.893 276.041Z" fill="#B7020B"/>
<path d="M305.142 242.773C304.767 242.773 304.387 242.797 304.005 242.843L298.936 243.468C293.9 244.09 290.32 248.677 290.941 253.713L292.785 268.656C293.359 273.31 297.321 276.721 301.894 276.721C302.269 276.721 302.648 276.697 303.03 276.651L308.099 276.026C313.135 275.403 316.715 270.817 316.094 265.779L314.25 250.839C313.677 246.183 309.716 242.773 305.142 242.773ZM305.142 244.133C309.082 244.133 312.417 247.088 312.902 251.005L314.744 265.946C315.273 270.231 312.218 274.147 307.933 274.676L302.864 275.301C302.541 275.34 302.214 275.361 301.894 275.361C297.953 275.361 294.618 272.406 294.135 268.49L292.291 253.546C292.034 251.471 292.603 249.421 293.889 247.772C295.175 246.122 297.027 245.074 299.103 244.818L304.172 244.193C304.493 244.153 304.82 244.133 305.142 244.133Z" fill="#840005"/>
<path d="M306.221 261.756C310.222 283.92 312.168 296.229 293.735 303.913L282.788 273.412L306.221 261.756Z" fill="#DEAA90"/>
<path d="M306.863 234.506L291.547 238.213C290.152 238.551 288.992 239.517 288.41 240.83L281.537 263.634C280.759 266.212 280.909 268.98 281.96 271.46L294.397 300.8C294.994 296.768 303.78 295.032 305.663 284.755C308.551 273.913 297.553 254.061 297.553 254.061L297.557 245.345L308.913 239.868C310.157 239.267 310.838 237.842 310.415 236.423C309.975 234.943 308.362 234.143 306.863 234.506Z" fill="#DEAA90"/>
<path d="M296.779 251.209C303.737 248.717 307.696 248.352 308.839 248.679C309.691 248.922 315.68 252.34 318.692 254.074C319.702 254.657 320.181 255.854 319.853 256.974C319.482 258.247 318.191 259.016 316.894 258.738L309.158 256.604L298.412 259.288L296.779 251.209Z" fill="#DEAA90"/>
<path d="M298.021 258.82C306.702 257.024 313.966 259.433 314.733 260.167C315.251 260.664 317.952 264.231 319.647 266.493C320.426 267.53 320.225 268.994 319.199 269.788C318.293 270.489 317.018 270.442 316.165 269.68L312.839 266.703C312.342 266.257 311.66 266.077 311.008 266.218L303.788 267.776L298.021 258.82Z" fill="#DEAA90"/>
<path d="M305.045 266.916C310.216 267.729 314.545 269.5 315.188 270.345C315.623 270.916 317.735 274.861 319.059 277.357C319.666 278.503 319.239 279.919 318.102 280.543C317.098 281.094 315.845 280.85 315.123 279.964L312.3 276.506C311.879 275.988 311.233 275.704 310.567 275.742L303.193 276.157L305.045 266.916Z" fill="#DEAA90"/>
<path d="M294.828 251.484C293.8 251.429 292.912 251.583 291.959 251.975C290.988 252.373 290.14 252.902 289.321 253.556C287.739 254.821 286.306 256.159 285.137 257.825C284.931 258.116 285.422 258.47 285.647 258.193C286.84 256.722 288.277 255.353 289.955 254.45C290.761 254.017 291.601 253.635 292.427 253.238C293.304 252.815 294.122 252.393 294.947 251.879C295.14 251.76 295.033 251.495 294.828 251.484Z" fill="#52090C"/>
<path d="M302.944 298.571C287.301 317.729 231.585 373.464 208.173 358.131C207.768 357.866 207.378 357.592 207 357.308C194.054 347.603 198.098 327.059 213.538 322.222C229.99 317.064 267.961 303.404 289.241 286.364L302.944 298.571Z" fill="#DEAA90"/>
<path d="M276.059 341.684C275.813 340.611 276.237 339.439 277.052 338.721C277.683 338.165 278.609 338.025 279.43 338.215C279.578 338.229 279.724 338.267 279.872 338.299C281.936 336.339 285.039 335.237 287.629 334.564C291.243 333.625 295.026 333.377 298.581 332.208C304.216 330.356 308.624 325.794 310.617 320.245C311.755 317.079 312.201 313.636 311.597 310.303C311.491 309.716 312.366 309.636 312.5 310.192C313.952 316.153 312.44 322.338 308.79 327.227C306.987 329.645 304.685 331.661 302.003 333.047C298.668 334.771 294.895 335.293 291.248 335.967C289.213 336.344 287.191 336.789 285.267 337.569C283.907 338.121 282.803 338.855 281.737 339.702C281.879 339.965 281.996 340.242 282.061 340.539C282.292 341.586 281.894 342.668 281.119 343.382C280.398 344.045 279.271 344.266 278.335 344.015C277.83 343.881 277.348 343.667 276.965 343.302C276.489 342.849 276.205 342.321 276.059 341.684Z" fill="#52090C"/>
<path d="M277.187 358.054C277.18 355.212 277.046 352.375 276.798 349.544C276.556 346.782 276.223 344.003 275.639 341.289C275.04 338.514 274.286 335.789 273.541 333.051C273.28 332.095 271.872 332.481 272.063 333.438C273.14 338.828 273.596 344.415 273.997 349.891C274.143 351.876 274.219 353.868 274.264 355.86C274.114 355.382 273.984 354.901 273.819 354.432C273.108 352.391 272.254 350.417 271.273 348.491C270.261 346.509 268.971 344.754 267.731 342.917C267.292 342.267 266.319 342.809 266.669 343.52C267.596 345.406 268.277 347.44 269.041 349.4C269.799 351.341 270.477 353.322 271.116 355.306C271.743 357.251 272.306 359.211 272.756 361.203C272.993 362.251 273.202 363.305 273.384 364.364C273.566 365.419 273.696 366.434 274.456 367.252C274.888 367.716 275.731 367.6 276.026 367.039C276.074 366.948 276.09 366.855 276.128 366.761C276.276 366.642 276.399 366.492 276.461 366.301C277.319 363.661 277.194 360.807 277.187 358.054Z" fill="#840005"/>
<path d="M244.314 358.519C235.45 362.263 225.191 363.032 216.062 359.796C207.839 356.88 200.441 349.855 200.006 340.695C199.782 335.988 201.406 331.004 204.853 327.715C205.432 327.162 204.649 326.065 203.976 326.565C200.173 329.393 197.769 333.623 197.276 338.342C196.77 343.183 198.316 348.101 201.054 352.075C207.006 360.715 217.762 364.658 227.954 364.708C234.067 364.737 240.028 363.354 245.442 360.505C246.775 359.804 245.631 357.961 244.314 358.519Z" fill="#840005"/>
<mask id="mask5_212_345" style="mask-type:luminance" maskUnits="userSpaceOnUse" x="104" y="119" width="135" height="158">
<path d="M104.604 119.923L238.379 119.923L238.379 276.039L104.604 276.039L104.604 119.923Z" fill="white"/>
</mask>
<g mask="url(#mask5_212_345)">
<g opacity="0.399994">
<path d="M238.377 119.923L238.377 226.853C236.105 227.07 233.876 227.301 231.674 227.548C222.654 228.488 214.213 229.501 206.307 230.603C201.34 231.269 196.605 231.979 192.06 232.717C179.114 234.801 167.864 237.088 158.134 239.551C118.996 249.44 104.604 262.168 104.604 276.038L104.604 169.095C104.604 148.172 137.342 129.856 238.377 119.923Z" fill="url(#paint3_linear_212_345)"/>
</g>
</g>
<mask id="mask6_212_345" style="mask-type:luminance" maskUnits="userSpaceOnUse" x="104" y="139" width="120" height="117">
<path d="M104.604 139.255L223.27 139.255L223.27 255.879L104.604 255.879L104.604 139.255Z" fill="white"/>
</mask>
<g mask="url(#mask6_212_345)">
<g opacity="0.399994">
<path d="M223.27 142.547C223.27 144.237 221.981 145.648 220.301 145.82C133.001 154.709 104.604 170.801 104.604 189.154L104.604 182.526C104.604 164.22 132.859 148.162 219.645 139.271C221.583 139.073 223.27 140.6 223.27 142.547Z" fill="url(#paint4_linear_212_345)"/>
<path d="M223.27 155.892C223.27 157.582 221.981 158.994 220.301 159.165C133.001 168.053 104.604 184.146 104.604 202.499L104.604 195.871C104.604 177.566 132.859 161.508 219.645 152.617C221.583 152.418 223.27 153.944 223.27 155.892Z" fill="url(#paint5_linear_212_345)"/>
<path d="M223.27 169.238C223.27 170.928 221.981 172.339 220.301 172.51C133.001 181.399 104.604 197.492 104.604 215.845L104.604 209.216C104.604 190.911 132.859 174.852 219.645 165.962C221.583 165.764 223.27 167.289 223.27 169.238Z" fill="url(#paint6_linear_212_345)"/>
<path d="M223.27 182.583C223.27 184.273 221.981 185.684 220.301 185.856C133.001 194.744 104.604 210.837 104.604 229.19L104.604 222.562C104.604 204.255 132.859 188.197 219.645 179.307C221.583 179.109 223.27 180.634 223.27 182.583Z" fill="url(#paint7_linear_212_345)"/>
<path d="M223.27 195.927C223.27 197.618 221.981 199.03 220.301 199.201C133.001 208.089 104.604 224.182 104.604 242.535L104.604 235.907C104.604 217.6 132.859 201.542 219.645 192.653C221.583 192.454 223.27 193.98 223.27 195.927Z" fill="url(#paint8_linear_212_345)"/>
<path d="M157.497 219.653C157.521 217.566 155.558 216.023 153.532 216.522C117.726 225.352 104.604 236.78 104.604 249.252L104.604 255.88C104.604 243.233 118.089 231.661 155.038 222.778C156.458 222.436 157.478 221.18 157.495 219.718C157.497 219.697 157.497 219.675 157.497 219.653Z" fill="url(#paint9_linear_212_345)"/>
</g>
</g>
<path d="M133.703 201.661L133.703 308.605C115.354 299.425 104.607 288.297 104.607 276.302L104.607 169.357C104.607 181.34 115.354 192.468 133.703 201.661Z" fill="#E36D19"/>
<path d="M196.331 262.673L249.277 235.154C258.763 230.224 262.456 218.537 257.526 209.052L250.608 195.742C245.678 186.257 233.993 182.564 224.506 187.493L171.56 215.012C162.075 219.942 158.382 231.628 163.311 241.115L170.229 254.425C175.159 263.91 186.846 267.601 196.331 262.673Z" fill="#52090C"/>
<path d="M191.585 253.965L244.879 226.266C254.269 221.386 257.924 209.818 253.044 200.428L250.518 195.568C245.638 186.18 234.07 182.524 224.68 187.404L171.387 215.102C161.997 219.983 158.341 231.551 163.222 240.94L165.747 245.801C170.627 255.191 182.195 258.845 191.585 253.965Z" fill="#970007"/>
<path d="M217.566 214.926C221.376 222.255 230.405 225.108 237.733 221.299C245.062 217.491 247.916 208.461 244.106 201.132C240.298 193.804 231.268 190.95 223.939 194.76C216.611 198.568 213.758 207.598 217.566 214.926Z" fill="#840005"/>
<path d="M223.253 208.832L225.685 207.568C226.456 207.167 226.757 206.218 226.356 205.445L225.093 203.014C224.691 202.243 224.991 201.293 225.763 200.892L227.911 199.776C228.682 199.374 229.633 199.675 230.034 200.446L231.298 202.877C231.698 203.648 232.648 203.948 233.421 203.549L235.852 202.284C236.623 201.883 237.573 202.184 237.974 202.955L239.09 205.104C239.492 205.875 239.191 206.826 238.42 207.227L235.989 208.491C235.217 208.891 234.918 209.841 235.319 210.614L236.582 213.045C236.983 213.816 236.682 214.766 235.912 215.167L233.762 216.283C232.991 216.685 232.041 216.384 231.639 215.613L230.376 213.182C229.975 212.41 229.025 212.109 228.254 212.51L225.821 213.775C225.05 214.176 224.1 213.874 223.699 213.105L222.583 210.955C222.181 210.184 222.482 209.234 223.253 208.832Z" fill="#FF9F00"/>
<path d="M171.459 238.891C175.269 246.219 184.297 249.072 191.626 245.264C198.954 241.454 201.808 232.425 197.999 225.097C194.19 217.768 185.16 214.914 177.832 218.724C170.503 222.532 167.65 231.562 171.459 238.891Z" fill="#840005"/>
<path d="M183.053 229.548L183.69 229.218C184.92 228.579 185.399 227.063 184.76 225.833L184.429 225.196C183.79 223.966 182.274 223.487 181.044 224.126L180.408 224.457C179.177 225.097 178.699 226.612 179.338 227.842L179.668 228.478C180.307 229.709 181.823 230.187 183.053 229.548Z" fill="#FF9F00"/>
<path d="M188.413 239.861L189.05 239.53C190.28 238.891 190.759 237.375 190.12 236.145L189.789 235.509C189.15 234.278 187.634 233.8 186.404 234.439L185.768 234.769C184.537 235.41 184.059 236.924 184.698 238.155L185.028 238.791C185.667 240.021 187.183 240.5 188.413 239.861Z" fill="#FF9F00"/>
<path d="M187.174 230.319L187.504 230.955C188.143 232.185 189.659 232.664 190.89 232.025L191.526 231.694C192.756 231.055 193.235 229.54 192.596 228.309L192.266 227.673C191.625 226.442 190.111 225.964 188.88 226.603L188.244 226.933C187.014 227.572 186.535 229.088 187.174 230.319Z" fill="#FF9F00"/>
<path d="M176.862 235.678L177.192 236.315C177.831 237.545 179.347 238.025 180.577 237.385L181.214 237.054C182.444 236.415 182.923 234.899 182.284 233.669L181.953 233.033C181.313 231.802 179.798 231.324 178.568 231.963L177.932 232.294C176.701 232.933 176.223 234.448 176.862 235.678Z" fill="#FF9F00"/>
<path d="M205.496 251.5L234.868 236.233L230.953 228.702C228.949 224.847 224.198 223.346 220.344 225.35L204.933 233.359C201.078 235.363 199.577 240.112 201.581 243.967L205.496 251.5Z" fill="#52090C"/>
<path d="M216.014 233.038C217.714 236.309 221.744 237.582 225.014 235.882C228.285 234.183 229.558 230.153 227.858 226.882C226.159 223.611 222.129 222.337 218.859 224.038C215.587 225.738 214.315 229.768 216.014 233.038Z" fill="#FF9F00"/>
<path d="M201.869 240.39C203.569 243.66 207.599 244.934 210.87 243.234C214.14 241.533 215.414 237.505 213.713 234.233C212.014 230.962 207.985 229.689 204.714 231.389C201.444 233.09 200.17 237.118 201.869 240.39Z" fill="#FF9F00"/>
<path d="M211.986 214.593L200.932 220.339C199.843 220.905 198.502 220.481 197.937 219.391L194.325 212.442C193.76 211.354 194.183 210.012 195.272 209.447L206.326 203.702C207.415 203.136 208.756 203.559 209.323 204.648L212.934 211.596C213.5 212.685 213.075 214.028 211.986 214.593Z" fill="#840005"/>
<path d="M223.963 525.222C223.963 531.97 218.493 537.44 211.745 537.44C204.997 537.44 199.527 531.97 199.527 525.222C199.527 518.474 204.997 513.005 211.745 513.005C218.493 513.005 223.963 518.474 223.963 525.222Z" fill="#B7020B"/>
<path d="M111.657 359.849L102.54 340.607L154.097 316.182L163.213 335.424L111.657 359.849Z" fill="#FF9E59"/>
<path d="M471.48 391.397L527.887 431.926L493.778 449.42L471.48 391.397Z" fill="#B7020B"/>
<path d="M319.313 158.16C319.313 163.004 315.385 166.932 310.541 166.932C305.696 166.932 301.77 163.004 301.77 158.16C301.77 153.315 305.696 149.387 310.541 149.387C315.385 149.387 319.313 153.315 319.313 158.16Z" fill="#B7020B"/>
<mask id="mask7_212_345" style="mask-type:luminance" maskUnits="userSpaceOnUse" x="82" y="373" width="51" height="72">
<path d="M82.2904 373.781L132.877 373.781L132.877 444.052L82.2904 444.052L82.2904 373.781Z" fill="white"/>
</mask>
<g mask="url(#mask7_212_345)">
<g opacity="0.399994">
<path d="M82.2953 405.305C82.2967 405.329 82.2967 405.363 82.3089 405.397L83.4701 444.052C83.1206 432.412 101.939 421.264 132.877 412.528L131.713 373.781C100.764 382.519 81.9459 393.667 82.2953 405.305Z" fill="url(#paint10_linear_212_345)"/>
</g>
</g>
<mask id="mask8_212_345" style="mask-type:luminance" maskUnits="userSpaceOnUse" x="82" y="390" width="41" height="29">
<path d="M82.7198 390.144L122.947 390.144L122.947 418.753L82.7198 418.753L82.7198 390.144Z" fill="white"/>
</mask>
<g mask="url(#mask8_212_345)">
<g opacity="0.399994">
<path d="M119.402 390.288C99.2411 397.136 86.0971 405.137 82.7196 413.538C82.7849 415.275 82.8406 417.014 82.8814 418.753C86.6382 410.271 100.313 402.209 121.099 395.351C122.225 394.979 122.982 393.917 122.946 392.731C122.889 390.935 121.103 389.71 119.402 390.288Z" fill="url(#paint11_linear_212_345)"/>
</g>
</g>
<mask id="mask9_212_345" style="mask-type:luminance" maskUnits="userSpaceOnUse" x="83" y="400" width="40" height="29">
<path d="M83.0077 400.596L122.947 400.596L122.947 428.882L83.0077 428.882L83.0077 400.596Z" fill="white"/>
</mask>
<g mask="url(#mask9_212_345)">
<g opacity="0.399994">
<path d="M119.404 400.741C99.7265 407.425 86.7578 415.208 83.0078 423.391C83.0187 425.222 83.016 427.051 83.0105 428.882C86.9686 420.519 100.572 412.576 121.097 405.803C122.221 405.433 122.982 404.37 122.946 403.186C122.889 401.388 121.103 400.162 119.404 400.741Z" fill="url(#paint12_linear_212_345)"/>
</g>
</g>
<path d="M82.2411 403.348L83.4036 442.098C83.9992 461.892 139.913 476.943 215.974 479.973L214.81 441.214C138.751 438.192 82.8353 423.143 82.2411 403.348Z" fill="#E36D19"/>
<path d="M100.699 416.851L204.788 418.804C206.116 415.224 202.366 410.95 198.686 409.933C195.005 408.917 190.858 409.032 187.769 406.788C181.359 402.13 183.437 390.423 176.562 386.481C172.617 384.219 167.454 385.845 163.947 388.741C160.441 391.637 158.009 395.609 154.905 398.933C151.8 402.258 147.51 405.065 143.001 404.463C138.807 403.901 135.214 400.483 130.987 400.691C125.852 400.944 122.386 406.35 117.396 407.59C114.21 408.382 110.82 407.365 107.584 407.922C104.351 408.48 98.8307 414.152 100.699 416.851Z" fill="#E36D19"/>
<path d="M435.627 130.477C435.627 135.325 431.696 139.255 426.85 139.255C422.001 139.255 418.073 135.325 418.073 130.477C418.073 125.63 422.001 121.701 426.85 121.701C431.696 121.701 435.627 125.63 435.627 130.477Z" fill="#E36D19"/>
<path d="M435.627 130.477C435.627 135.325 431.696 139.255 426.85 139.255C422.001 139.255 418.073 135.325 418.073 130.477C418.073 125.63 422.001 121.701 426.85 121.701C431.696 121.701 435.627 125.63 435.627 130.477Z" fill="#FF9F00" stroke="#FF9F00" stroke-width="1.33333" stroke-miterlimit="10"/>
<path d="M412.499 153.624C411.97 156.684 410.877 159.487 409.324 161.962C407.552 164.779 405.201 167.164 402.466 168.974C397.74 172.077 391.86 173.476 385.848 172.438C382.065 171.784 378.655 170.244 375.79 168.064C374.004 166.696 372.436 165.087 371.129 163.289C369.042 160.424 367.62 157.079 367.019 153.514C366.66 151.411 366.6 149.23 366.864 147.018C366.918 146.609 366.971 146.201 367.043 145.785C367.254 144.574 367.553 143.401 367.934 142.268C371.524 131.702 382.347 125.015 393.685 126.973C394.49 127.107 395.277 127.29 396.041 127.504L396.044 127.513C407.28 130.666 414.533 141.881 412.499 153.624Z" fill="#970007"/>
<path d="M422.417 165.383L422.418 165.403C422.453 165.88 422.321 166.504 422.047 167.099C421.723 167.671 421.284 168.164 420.872 168.418L420.849 168.433L420.827 168.449C420.371 168.786 419.909 168.975 419.418 169.145C418.47 169.458 417.591 169.57 416.7 169.641C414.931 169.753 413.265 169.666 411.618 169.476L411.614 169.476L411.614 169.476C408.745 169.166 405.961 168.648 403.215 168.001L403.2 167.992L403.099 167.971C402.822 167.911 402.559 167.846 402.284 167.778C402.163 167.748 402.04 167.717 401.912 167.687C395.588 166.128 389.564 163.697 383.93 160.579L383.927 160.577C378.256 157.476 372.806 153.966 367.736 149.852C367.67 149.797 367.604 149.742 367.538 149.687C367.401 149.573 367.263 149.457 367.121 149.342C364.805 147.412 362.576 145.368 360.493 143.047C359.375 141.768 358.297 140.426 357.348 138.797C356.876 137.968 356.43 137.107 356.125 135.993C355.98 135.41 355.864 134.806 355.882 134.075L355.883 134.064L355.882 134.053C355.878 133.41 356.09 132.552 356.498 131.808C356.934 131.084 357.543 130.48 358.088 130.177L358.105 130.167L358.122 130.156C358.718 129.777 359.277 129.587 359.827 129.443C360.908 129.17 361.83 129.152 362.768 129.174C364.592 129.24 366.22 129.554 367.842 129.94C369.999 130.465 372.063 131.139 374.091 131.885C373.203 132.663 372.371 133.516 371.602 134.439C370.108 134.094 368.617 133.822 367.155 133.614L367.15 133.613C365.664 133.414 364.155 133.323 362.825 133.426L362.822 133.426C362.545 133.449 362.263 133.484 361.997 133.533L361.983 133.5L361.872 133.533C361.783 133.47 361.643 133.401 361.457 133.408C361.344 133.412 361.25 133.441 361.172 133.481C361.083 133.524 361.019 133.58 360.979 133.622C360.881 133.723 360.838 133.833 360.83 133.855L360.829 133.857C360.818 133.885 360.809 133.911 360.804 133.928C360.775 133.946 360.747 133.965 360.72 133.984C360.691 134.005 360.609 134.066 360.539 134.161C360.512 134.198 360.413 134.334 360.404 134.538C360.398 134.657 360.424 134.795 360.503 134.924C360.581 135.049 360.683 135.125 360.765 135.168L360.777 135.174L360.777 135.174C360.889 135.23 360.989 135.24 361.027 135.242C361.076 135.246 361.115 135.244 361.137 135.242C361.183 135.237 361.22 135.229 361.239 135.225C361.274 135.216 361.304 135.206 361.327 135.198C361.478 135.445 361.653 135.705 361.829 135.952L361.834 135.958L361.839 135.965C362.6 136.978 363.601 138.024 364.676 139.008C365.704 139.952 366.785 140.862 367.914 141.749C367.914 141.749 367.914 141.749 367.914 141.749L368.326 141.225C369.543 142.182 370.82 143.097 372.119 143.99L422.417 165.383ZM422.417 165.383L422.416 165.363M422.417 165.383L422.416 165.363M422.416 165.363C422.408 164.799 422.294 164.315 422.141 163.861C421.832 162.946 421.393 162.217 420.915 161.488C419.933 160.079 418.831 158.9 417.669 157.777C416.214 156.385 414.696 155.101 413.141 153.875C413.039 154.444 412.915 155.014 412.766 155.581C414.022 156.69 415.214 157.857 416.319 159.072L416.321 159.074M422.416 165.363L416.321 159.074M416.321 159.074C417.356 160.219 418.319 161.431 419.054 162.681L419.054 162.681M416.321 159.074L419.054 162.681M419.054 162.681L419.06 162.692M419.054 162.681L419.06 162.692M419.06 162.692C419.395 163.286 419.724 163.951 419.87 164.555C419.96 164.889 419.977 165.173 419.956 165.399C419.945 165.512 419.924 165.617 419.894 165.71C419.879 165.755 419.857 165.81 419.827 165.865C419.812 165.892 419.789 165.931 419.756 165.972C419.732 166.003 419.663 166.087 419.544 166.151L419.48 166.185M419.06 162.692L419.48 166.185M419.48 166.185L419.471 166.188M419.48 166.185L419.471 166.188M419.471 166.188C419.431 166.21 419.372 166.242 419.295 166.277C419.13 166.354 418.904 166.437 418.596 166.501L418.593 166.502C418.027 166.617 417.326 166.634 416.635 166.599L416.635 166.599L416.623 166.598C415.224 166.499 413.746 166.163 412.307 165.767L412.307 165.767L412.294 165.763C410.831 165.328 409.375 164.812 407.934 164.232L407.932 164.231C406.536 163.662 405.156 163.04 403.791 162.378L419.471 166.188ZM360.783 133.992C360.783 133.992 360.783 133.992 360.784 133.99C360.784 133.99 360.784 133.99 360.784 133.99C360.783 133.992 360.783 133.992 360.783 133.992ZM360.719 134.074L360.72 134.072C360.719 134.074 360.718 134.076 360.719 134.074Z" fill="#FF9F00" stroke="#FF9F00" stroke-width="1.33333"/>
</g>
<defs>
<linearGradient id="paint0_linear_212_345" x1="504.7" y1="476.699" x2="597" y2="476.699" gradientUnits="userSpaceOnUse">
<stop stop-color="#E36D19"/>
<stop offset="0.341538" stop-color="#EF8A1C"/>
<stop offset="1" stop-color="#EFEBFA"/>
</linearGradient>
<linearGradient id="paint1_linear_212_345" x1="504.7" y1="427.939" x2="597" y2="427.939" gradientUnits="userSpaceOnUse">
<stop stop-color="#E36D19"/>
<stop offset="0.341538" stop-color="#EF8A1C"/>
<stop offset="1" stop-color="#EFEBFA"/>
</linearGradient>
<linearGradient id="paint2_linear_212_345" x1="504.7" y1="379.18" x2="597" y2="379.18" gradientUnits="userSpaceOnUse">
<stop stop-color="#E36D19"/>
<stop offset="0.341538" stop-color="#EF8A1C"/>
<stop offset="1" stop-color="#EFEBFA"/>
</linearGradient>
<linearGradient id="paint3_linear_212_345" x1="224.68" y1="142.325" x2="118.461" y2="244.784" gradientUnits="userSpaceOnUse">
<stop stop-color="#E36D19"/>
<stop offset="0.341538" stop-color="#EF8A1C"/>
<stop offset="1" stop-color="#FFDFBC"/>
</linearGradient>
<linearGradient id="paint4_linear_212_345" x1="219.283" y1="164.204" x2="126.147" y2="164.204" gradientUnits="userSpaceOnUse">
<stop stop-color="#E36D19"/>
<stop offset="0.341538" stop-color="#EF8A1C"/>
<stop offset="1" stop-color="#FDE7C2"/>
</linearGradient>
<linearGradient id="paint5_linear_212_345" x1="219.283" y1="177.55" x2="126.147" y2="177.55" gradientUnits="userSpaceOnUse">
<stop stop-color="#E36D19"/>
<stop offset="0.341538" stop-color="#EF8A1C"/>
<stop offset="1" stop-color="#EFEBFA"/>
</linearGradient>
<linearGradient id="paint6_linear_212_345" x1="219.283" y1="190.895" x2="126.147" y2="190.895" gradientUnits="userSpaceOnUse">
<stop stop-color="#E36D19"/>
<stop offset="0.341538" stop-color="#EF8A1C"/>
<stop offset="1" stop-color="#EFEBFA"/>
</linearGradient>
<linearGradient id="paint7_linear_212_345" x1="219.283" y1="204.24" x2="126.147" y2="204.24" gradientUnits="userSpaceOnUse">
<stop stop-color="#FF9F00"/>
<stop offset="0.341538" stop-color="#FDAA21"/>
<stop offset="1" stop-color="#FAEBEB"/>
</linearGradient>
<linearGradient id="paint8_linear_212_345" x1="219.283" y1="217.585" x2="126.147" y2="217.585" gradientUnits="userSpaceOnUse">
<stop stop-color="#E36D19"/>
<stop offset="0.341538" stop-color="#EF8A1C"/>
<stop offset="1" stop-color="#EFEBFA"/>
</linearGradient>
<linearGradient id="paint9_linear_212_345" x1="219.283" y1="236.154" x2="126.147" y2="236.154" gradientUnits="userSpaceOnUse">
<stop stop-color="#FF9F00"/>
<stop offset="0.341538" stop-color="#FF9F00"/>
<stop offset="1" stop-color="#FCCFB8"/>
</linearGradient>
<linearGradient id="paint10_linear_212_345" x1="82.9429" y1="397.865" x2="133.921" y2="420.722" gradientUnits="userSpaceOnUse">
<stop stop-color="#E36D19"/>
<stop offset="0.341538" stop-color="#EF8A1C"/>
<stop offset="1" stop-color="#EFEBFA"/>
</linearGradient>
<linearGradient id="paint11_linear_212_345" x1="75.6302" y1="402.946" x2="119.907" y2="405.506" gradientUnits="userSpaceOnUse">
<stop stop-color="#E36D19"/>
<stop offset="0.341538" stop-color="#EF8A1C"/>
<stop offset="1" stop-color="#EFEBFA"/>
</linearGradient>
<linearGradient id="paint12_linear_212_345" x1="75.0373" y1="413.199" x2="119.314" y2="415.759" gradientUnits="userSpaceOnUse">
<stop stop-color="#E36D19"/>
<stop offset="0.341538" stop-color="#EF8A1C"/>
<stop offset="1" stop-color="#EFEBFA"/>
</linearGradient>
</defs>
</svg>
